{"glyphs":{"0":{"ha":1003,"x_min":125,"x_max":918,"o":"m 458 368 q 463 442 458 400 q 479 521 467 483 q 513 585 492 558 q 568 615 535 613 q 583 541 579 579 q 588 475 588 503 q 582 403 588 444 q 564 323 576 361 q 530 257 551 285 q 476 228 508 229 q 462 302 465 264 q 458 368 458 340 m 803 754 q 798 759 800 757 q 793 764 796 761 l 803 754 l 742 819 q 637 918 701 881 q 475 956 572 956 q 303 911 371 956 q 195 797 235 867 q 140 641 156 726 q 125 475 125 556 q 132 358 125 418 q 157 240 139 297 q 204 133 175 183 q 279 49 233 83 l 346 -22 q 441 -89 386 -64 q 572 -114 496 -114 q 741 -69 674 -114 q 847 46 808 -24 q 902 199 886 115 q 918 361 918 283 q 913 467 918 413 q 894 574 907 522 q 858 672 881 625 q 803 754 836 718 m 811 467 q 796 308 811 390 q 742 157 781 225 q 638 44 703 89 q 474 0 574 0 q 306 45 371 0 q 203 160 240 90 q 151 313 165 229 q 138 475 138 397 q 153 638 138 554 q 206 788 168 721 q 310 899 244 856 q 475 943 375 943 q 644 899 579 943 q 747 785 710 854 q 798 631 785 715 q 811 467 811 547 m 472 215 q 534 244 510 215 q 573 313 558 272 q 594 398 588 353 q 600 475 600 443 q 594 551 600 507 q 574 634 589 594 q 536 701 560 674 q 476 729 513 729 q 415 702 439 729 q 376 635 390 675 q 357 551 363 596 q 351 474 351 507 q 357 397 351 442 q 376 313 363 353 q 413 244 389 272 q 472 215 436 215 m 794 467 q 780 313 794 393 q 728 167 765 233 q 630 59 692 101 q 474 17 568 17 q 315 60 376 17 q 217 171 253 104 q 168 319 182 238 q 154 475 154 400 q 169 631 154 551 q 219 777 183 711 q 317 885 256 843 q 475 926 379 926 q 636 883 574 926 q 734 774 699 840 q 782 626 769 707 q 794 467 794 544 m 472 199 q 542 229 514 199 q 586 303 569 260 q 610 393 603 346 q 617 475 617 440 q 610 556 617 510 q 587 645 603 603 q 544 717 571 688 q 476 746 517 746 q 406 717 433 746 q 363 646 378 688 q 341 557 347 604 q 335 474 335 510 q 341 393 335 440 q 363 303 347 346 q 404 229 378 260 q 472 199 431 199 m 729 303 q 714 342 729 326 q 675 357 699 357 q 638 342 654 357 q 622 303 622 326 q 638 265 622 281 q 675 250 654 250 q 714 265 699 250 q 729 303 729 281 m 665 174 q 650 213 665 197 q 611 228 635 228 q 574 213 590 228 q 558 174 558 197 q 574 136 558 151 q 611 121 590 121 q 650 136 635 121 q 665 174 665 151 m 528 103 q 513 142 528 126 q 474 157 497 157 q 437 142 453 157 q 421 103 421 126 q 437 65 421 81 q 474 50 453 50 q 513 65 497 50 q 528 103 528 81 m 403 157 q 388 196 403 181 q 349 211 372 211 q 312 196 328 211 q 296 157 296 181 q 312 119 296 135 q 349 104 328 104 q 388 119 372 104 q 403 157 403 135 m 332 279 q 317 318 332 303 q 278 333 301 333 q 241 318 257 333 q 225 279 225 303 q 241 242 225 257 q 278 226 257 226 q 317 242 301 226 q 332 279 332 257 m 299 421 q 283 460 299 444 q 244 475 268 475 q 208 460 224 475 q 192 421 192 444 q 208 383 192 399 q 244 368 224 368 q 283 383 268 368 q 299 421 299 399 m 297 558 q 282 597 297 582 q 243 613 267 613 q 206 597 222 613 q 190 558 190 582 q 206 521 190 536 q 243 506 222 506 q 282 521 267 506 q 297 558 297 536 m 335 692 q 319 731 335 715 q 281 746 304 746 q 244 731 260 746 q 228 692 228 715 q 244 654 228 669 q 281 639 260 639 q 319 654 304 639 q 335 692 335 669 m 414 804 q 399 843 414 828 q 360 858 383 858 q 323 843 339 858 q 307 804 307 828 q 323 767 307 782 q 360 751 339 751 q 399 767 383 751 q 414 804 414 782 m 556 833 q 540 872 556 857 q 501 888 525 888 q 465 872 481 888 q 449 833 449 857 q 465 796 449 811 q 501 781 481 781 q 540 796 525 781 q 556 833 556 811 m 678 774 q 663 813 678 797 q 624 828 647 828 q 587 813 603 828 q 571 774 571 797 q 587 736 571 751 q 624 721 603 721 q 663 736 647 721 q 678 774 678 751 m 761 465 q 746 504 761 489 q 707 519 731 519 q 670 504 686 519 q 654 465 654 489 q 670 428 654 443 q 707 413 686 413 q 746 428 731 413 q 761 465 761 443 m 749 629 q 733 668 749 653 q 694 683 718 683 q 658 668 674 683 q 642 629 642 653 q 658 592 642 607 q 694 576 674 576 q 733 592 718 576 q 749 629 749 607 "},"1":{"ha":656,"x_min":85,"x_max":543,"o":"m 449 947 l 449 956 l 85 956 l 85 719 l 93 719 l 208 628 l 208 -12 l 217 -12 l 311 -114 l 543 -114 l 543 846 l 449 947 m 436 943 l 436 0 l 221 0 l 221 732 l 97 732 l 97 943 l 436 943 m 419 926 l 419 17 l 238 17 l 238 749 l 114 749 l 114 926 l 419 926 m 376 103 q 361 142 376 126 q 322 157 346 157 q 285 142 301 157 q 269 103 269 126 q 285 65 269 81 q 322 50 301 50 q 361 65 346 50 q 376 103 376 81 m 381 242 q 365 281 381 265 q 326 296 350 296 q 290 281 306 296 q 274 242 274 265 q 290 204 274 219 q 326 189 306 189 q 365 204 350 189 q 381 242 381 219 m 381 383 q 365 422 381 407 q 326 438 350 438 q 290 422 306 438 q 274 383 274 407 q 290 346 274 361 q 326 331 306 331 q 365 346 350 331 q 381 383 381 361 m 385 533 q 369 572 385 557 q 331 588 354 588 q 294 572 310 588 q 278 533 278 557 q 294 496 278 511 q 331 481 310 481 q 369 496 354 481 q 385 533 385 511 m 385 679 q 369 718 385 703 q 331 733 354 733 q 294 718 310 733 q 278 679 278 703 q 294 642 278 657 q 331 626 310 626 q 369 642 354 626 q 385 679 385 657 m 381 838 q 365 876 381 861 q 326 892 350 892 q 290 876 306 892 q 274 838 274 861 q 290 800 274 815 q 326 785 306 785 q 365 800 350 785 q 381 838 381 815 m 244 838 q 229 876 244 861 q 190 892 214 892 q 153 876 169 892 q 138 838 138 861 q 153 800 138 815 q 190 785 169 785 q 229 800 214 785 q 244 838 244 815 "},"2":{"ha":999,"x_min":63,"x_max":911,"o":"m 553 610 q 531 556 546 582 q 499 506 517 529 q 553 610 510 589 m 160 589 l 254 488 l 483 488 l 463 461 l 63 -12 l 75 -12 l 169 -114 l 911 -114 l 911 107 l 817 208 l 817 217 l 756 217 q 865 381 818 296 q 911 558 911 467 q 892 667 911 619 q 840 750 874 714 l 775 819 q 657 922 732 888 q 493 956 582 956 q 360 932 422 956 q 251 863 297 908 q 178 748 204 817 q 151 589 151 679 l 160 589 m 804 664 q 780 540 804 601 q 718 419 756 478 q 635 307 681 361 q 544 204 589 253 l 804 204 l 804 0 l 89 0 l 472 453 q 540 544 508 496 q 571 654 571 593 q 544 710 571 690 q 481 731 517 731 q 417 697 440 731 q 389 601 394 663 l 164 601 q 190 750 164 686 q 260 857 215 814 q 364 922 304 900 q 493 943 424 943 q 613 926 556 943 q 712 873 669 908 q 779 785 754 838 q 804 664 804 733 m 788 664 q 762 540 788 603 q 695 417 736 478 q 604 299 654 357 q 507 188 554 240 l 788 188 l 788 17 l 125 17 l 485 442 q 522 488 504 464 q 555 538 540 513 q 578 593 569 564 q 588 654 588 622 q 556 722 588 697 q 481 747 524 747 q 408 714 436 747 q 374 618 381 681 l 181 618 q 210 750 185 693 q 278 847 236 807 q 375 906 319 886 q 493 926 431 926 q 606 910 553 926 q 700 860 660 893 q 764 778 740 828 q 788 664 788 729 m 351 707 q 336 746 351 731 q 297 761 321 761 q 260 746 276 761 q 244 707 244 731 q 260 669 244 685 q 297 654 276 654 q 336 669 321 654 q 351 707 351 685 m 431 807 q 415 846 431 831 q 376 861 400 861 q 340 846 356 861 q 324 807 324 831 q 340 769 324 785 q 376 754 356 754 q 415 769 400 754 q 431 807 431 785 m 572 840 q 557 879 572 864 q 518 894 542 894 q 481 879 497 894 q 465 840 465 864 q 481 803 465 818 q 518 788 497 788 q 557 803 542 788 q 572 840 572 818 m 693 769 q 678 808 693 793 q 639 824 663 824 q 602 808 618 824 q 586 769 586 793 q 602 732 586 747 q 639 717 618 717 q 678 732 663 717 q 693 769 693 747 m 747 654 q 732 693 747 678 q 693 708 717 708 q 656 693 672 708 q 640 654 640 678 q 656 617 640 632 q 693 601 672 601 q 732 617 717 601 q 747 654 747 632 m 708 525 q 693 564 708 549 q 654 579 678 579 q 617 564 633 579 q 601 525 601 549 q 617 488 601 503 q 654 472 633 472 q 693 488 678 472 q 708 525 708 503 m 636 410 q 621 449 636 433 q 582 464 606 464 q 545 449 561 464 q 529 410 529 433 q 545 372 529 388 q 582 357 561 357 q 621 372 606 357 q 636 410 636 388 m 550 303 q 535 342 550 326 q 496 357 519 357 q 459 342 475 357 q 443 303 443 326 q 459 265 443 281 q 496 250 475 250 q 535 265 519 250 q 550 303 550 281 m 363 99 q 347 138 363 122 q 308 153 332 153 q 272 138 288 153 q 256 99 256 122 q 272 61 256 76 q 308 46 288 46 q 347 61 332 46 q 363 99 363 76 m 456 211 q 440 249 456 235 q 401 263 425 263 q 365 247 381 263 q 349 208 349 232 q 365 171 349 186 q 401 156 381 156 q 440 172 425 156 q 456 211 456 189 m 632 99 q 617 138 632 122 q 578 153 601 153 q 541 138 557 153 q 525 99 525 122 q 541 61 525 76 q 578 46 557 46 q 617 61 601 46 q 632 99 632 76 m 768 94 q 753 133 768 118 q 714 149 738 149 q 677 133 693 149 q 661 94 661 118 q 677 57 661 72 q 714 42 693 42 q 753 57 738 42 q 768 94 768 72 m 504 96 q 489 135 504 119 q 450 150 474 150 q 413 135 429 150 q 397 96 397 119 q 413 58 397 74 q 450 43 429 43 q 489 58 474 43 q 504 96 504 74 "},"3":{"ha":976,"x_min":107,"x_max":861,"o":"m 342 347 l 107 347 q 144 173 110 247 q 238 53 179 99 l 306 -19 q 405 -90 349 -65 q 526 -114 461 -114 q 652 -97 592 -114 q 759 -44 713 -79 q 833 46 806 -8 q 861 175 861 100 q 849 288 861 238 q 800 376 836 338 q 795 381 797 379 q 790 386 793 383 l 776 400 q 827 481 810 436 q 844 574 844 526 q 826 670 844 626 q 778 746 808 714 l 714 814 q 592 920 671 885 q 428 956 513 956 q 308 935 363 956 q 211 872 253 914 q 144 767 169 831 q 114 617 118 703 l 122 617 l 217 515 l 357 515 l 357 374 l 365 374 l 460 272 q 487 272 474 272 q 513 269 500 271 q 485 235 506 246 q 436 222 465 224 l 436 238 l 342 339 l 342 347 m 119 335 l 329 335 q 362 241 329 272 q 432 210 394 210 q 503 231 476 210 q 529 297 529 253 q 488 369 529 353 q 369 386 446 386 l 371 581 q 471 603 432 575 q 510 676 510 632 q 483 721 510 706 q 425 736 456 736 q 363 711 393 736 q 331 629 333 686 l 126 629 q 155 767 131 708 q 219 865 179 826 q 312 924 258 904 q 428 943 365 943 q 540 926 485 943 q 640 876 596 910 q 710 794 683 843 q 738 679 738 744 q 718 585 738 632 q 664 503 699 539 q 736 408 718 464 q 754 281 754 351 q 727 156 754 208 q 655 68 700 103 q 551 17 610 33 q 428 0 492 0 q 310 23 365 0 q 213 89 254 46 q 146 194 171 132 q 119 335 121 257 m 136 318 l 313 318 q 354 224 318 254 q 432 193 390 193 q 515 219 485 193 q 546 297 546 244 q 503 379 546 358 q 386 403 460 400 q 387 483 386 447 q 388 563 388 519 q 488 595 450 563 q 526 676 526 628 q 517 709 526 694 q 494 733 508 724 q 461 748 479 743 q 425 753 443 753 q 389 747 407 753 q 356 728 371 740 q 330 695 340 715 q 315 646 319 675 l 144 646 q 235 858 158 790 q 428 926 313 926 q 535 910 482 926 q 628 863 588 894 q 695 786 669 832 q 721 679 721 740 q 699 588 721 635 q 638 500 676 540 q 718 402 699 457 q 738 281 738 347 q 712 163 738 213 q 643 81 686 113 q 544 33 600 49 q 428 17 488 17 q 321 38 371 17 q 232 99 271 60 q 167 194 193 139 q 136 318 142 250 m 297 225 q 282 264 297 249 q 243 279 267 279 q 206 264 222 279 q 190 225 190 249 q 206 188 190 203 q 243 172 222 172 q 282 188 267 172 q 297 225 297 203 m 394 119 q 379 158 394 143 q 340 174 364 174 q 303 158 319 174 q 288 119 288 143 q 303 82 288 97 q 340 67 319 67 q 379 82 364 67 q 394 119 394 97 m 532 103 q 517 142 532 126 q 478 157 501 157 q 441 142 457 157 q 425 103 425 126 q 441 65 425 81 q 478 50 457 50 q 517 65 501 50 q 532 103 532 81 m 654 167 q 639 206 654 190 q 600 221 624 221 q 563 206 579 221 q 547 167 547 190 q 563 129 547 144 q 600 114 579 114 q 639 129 624 114 q 654 167 654 144 m 638 414 q 622 453 638 438 q 583 468 607 468 q 547 453 563 468 q 531 414 531 438 q 547 376 531 392 q 583 361 563 361 q 622 376 607 361 q 638 414 638 392 m 511 482 q 496 521 511 506 q 457 536 481 536 q 420 521 436 536 q 404 482 404 506 q 420 444 404 460 q 457 429 436 429 q 496 444 481 429 q 511 482 511 460 m 681 653 q 665 692 681 676 q 626 707 650 707 q 590 692 606 707 q 574 653 574 676 q 590 615 574 631 q 626 600 606 600 q 665 615 650 600 q 681 653 681 631 m 640 782 q 625 821 640 806 q 586 836 610 836 q 549 821 565 836 q 533 782 533 806 q 549 744 533 760 q 586 729 565 729 q 625 744 610 729 q 640 782 640 760 m 517 838 q 501 876 517 861 q 463 892 486 892 q 426 876 442 892 q 410 838 410 861 q 424 800 410 815 q 463 785 439 785 q 501 800 486 785 q 517 838 517 815 m 383 822 q 368 861 383 846 q 329 876 353 876 q 292 861 308 876 q 276 822 276 846 q 292 785 276 800 q 329 769 308 769 q 368 785 353 769 q 383 822 383 800 m 299 724 q 283 763 299 747 q 244 778 268 778 q 208 763 224 778 q 192 724 192 747 q 208 686 192 701 q 244 671 224 671 q 283 686 268 671 q 299 724 299 701 m 615 544 q 600 583 615 568 q 561 599 585 599 q 524 583 540 599 q 508 544 508 568 q 524 507 508 522 q 561 492 540 492 q 600 507 585 492 q 615 544 615 522 m 699 294 q 683 333 699 318 q 644 349 668 349 q 608 333 624 349 q 592 294 592 318 q 608 257 592 272 q 644 242 624 242 q 683 257 668 242 q 699 294 699 272 "},"4":{"ha":1076,"x_min":99,"x_max":981,"o":"m 575 410 l 542 410 l 575 547 l 575 410 m 108 158 l 203 57 q 575 58 529 58 l 575 -12 l 583 -12 l 678 -114 l 913 -114 l 913 58 l 981 60 l 981 301 l 913 374 l 913 846 l 818 947 l 818 956 l 575 956 l 575 806 l 529 856 l 531 863 l 296 904 l 99 158 l 108 158 m 806 397 l 874 399 l 874 174 l 806 172 l 806 0 l 588 0 l 588 172 l 115 171 l 306 890 l 515 853 l 407 396 q 588 397 522 397 l 588 943 l 806 943 l 806 397 m 789 381 l 857 382 l 857 190 l 789 189 l 789 17 l 604 17 l 604 189 q 138 188 565 189 l 318 871 l 494 840 l 385 379 q 604 381 539 381 l 604 926 l 789 926 l 789 381 m 749 103 q 733 142 749 126 q 694 157 718 157 q 658 142 674 157 q 642 103 642 126 q 658 65 642 81 q 694 50 674 50 q 733 65 718 50 q 749 103 749 81 m 838 269 q 822 308 838 293 q 783 324 807 324 q 747 308 763 324 q 731 269 731 293 q 747 232 731 247 q 783 217 763 217 q 822 232 807 217 q 838 269 838 247 m 753 403 q 738 442 753 426 q 699 457 722 457 q 662 442 678 457 q 646 403 646 426 q 662 365 646 381 q 699 350 678 350 q 738 365 722 350 q 753 403 753 381 m 757 533 q 742 572 757 557 q 703 588 726 588 q 666 572 682 588 q 650 533 650 557 q 666 496 650 511 q 703 481 682 481 q 742 496 726 481 q 757 533 757 511 m 757 679 q 742 718 757 703 q 703 733 726 733 q 666 718 682 733 q 650 679 650 703 q 666 642 650 657 q 703 626 682 626 q 742 642 726 626 q 757 679 757 657 m 753 838 q 738 876 753 861 q 699 892 722 892 q 662 876 678 892 q 646 838 646 861 q 662 800 646 815 q 699 785 678 785 q 738 800 722 785 q 753 838 753 815 m 701 274 q 686 313 701 297 q 647 328 671 328 q 610 313 626 328 q 594 274 594 297 q 610 236 594 251 q 647 221 626 221 q 687 236 672 221 q 701 274 701 251 m 564 278 q 549 317 564 301 q 510 332 533 332 q 473 317 489 332 q 457 278 457 301 q 473 240 457 256 q 510 225 489 225 q 549 240 533 225 q 564 278 564 256 m 433 282 q 418 321 433 306 q 379 336 403 336 q 342 321 358 336 q 326 282 326 306 q 342 244 326 260 q 379 229 358 229 q 418 244 403 229 q 433 282 433 260 m 303 276 q 288 315 303 300 q 249 331 272 331 q 212 315 228 331 q 196 276 196 300 q 212 239 196 254 q 249 224 228 224 q 288 239 272 224 q 303 276 303 254 m 336 408 q 321 447 336 432 q 282 463 306 463 q 245 447 261 463 q 229 408 229 432 q 245 371 229 386 q 282 356 261 356 q 321 371 306 356 q 336 408 336 386 m 378 533 q 363 572 378 557 q 324 588 347 588 q 287 572 303 588 q 271 533 271 557 q 287 496 271 511 q 324 481 303 481 q 363 496 347 481 q 378 533 378 511 m 444 785 q 429 824 444 808 q 390 839 414 839 q 353 824 369 839 q 338 785 338 808 q 353 747 338 763 q 390 732 369 732 q 429 747 414 732 q 444 785 444 763 m 415 657 q 400 696 415 681 q 361 711 385 711 q 324 696 340 711 q 308 657 308 681 q 324 619 308 635 q 361 604 340 604 q 400 619 385 604 q 415 657 415 635 "},"5":{"ha":1008,"x_min":107,"x_max":901,"o":"m 332 286 l 392 272 q 464 323 425 307 q 538 339 503 339 q 549 339 543 339 q 560 338 554 339 q 530 256 560 286 q 447 225 500 225 q 332 286 390 225 m 253 311 l 107 178 q 197 83 151 124 l 225 54 l 218 63 l 226 54 l 225 54 l 246 33 q 384 -76 313 -39 q 538 -114 456 -114 q 685 -90 618 -114 q 801 -22 753 -67 q 875 88 849 22 q 901 236 901 153 q 878 363 901 304 q 814 465 856 421 q 809 470 811 468 q 804 475 807 472 l 814 465 l 750 533 q 656 625 713 586 l 839 625 l 839 846 l 744 947 l 744 956 l 160 956 l 158 406 l 168 403 l 253 311 m 124 178 l 285 324 q 365 242 325 271 q 447 213 404 213 q 539 247 506 213 q 572 339 572 281 q 535 425 572 397 q 439 453 497 453 q 363 437 403 453 q 292 388 324 421 l 171 417 l 172 943 l 732 943 l 732 739 l 382 739 l 382 656 q 468 665 422 665 q 599 640 539 665 q 702 572 658 615 q 770 469 746 529 q 794 342 794 410 q 769 197 794 260 q 696 90 743 133 q 583 23 649 46 q 439 0 518 0 q 272 45 349 0 q 124 178 196 90 m 146 176 l 282 299 q 363 222 322 249 q 447 196 403 196 q 551 234 514 196 q 589 339 589 272 q 547 438 589 406 q 439 469 504 469 q 362 455 403 469 q 286 407 321 440 l 188 431 q 188 678 188 560 q 189 926 189 797 l 715 926 l 715 756 l 365 756 l 365 633 q 424 645 400 642 q 468 649 449 649 q 592 625 535 649 q 690 560 649 601 q 755 463 732 519 q 778 342 778 407 q 753 203 778 264 q 684 101 729 143 q 576 38 639 60 q 439 17 514 17 q 285 56 356 17 q 146 176 215 94 m 692 836 q 676 875 692 860 q 638 890 661 890 q 601 875 617 890 q 585 836 585 860 q 601 799 585 814 q 638 783 617 783 q 676 799 661 783 q 692 836 692 814 m 564 836 q 549 875 564 860 q 510 890 533 890 q 473 875 489 890 q 457 836 457 860 q 473 799 457 814 q 510 783 489 783 q 549 799 533 783 q 564 836 564 814 m 324 840 q 308 879 324 864 q 269 894 293 894 q 233 879 249 894 q 217 840 217 864 q 233 803 217 818 q 269 788 249 788 q 308 803 293 788 q 324 840 324 818 m 444 836 q 429 875 444 860 q 390 890 414 890 q 353 875 369 890 q 338 836 338 860 q 353 799 338 814 q 390 783 369 783 q 429 799 414 783 q 444 836 444 814 m 328 674 q 313 713 328 697 q 274 728 297 728 q 237 713 253 728 q 221 674 221 697 q 237 636 221 651 q 274 621 253 621 q 313 636 297 621 q 328 674 328 651 m 328 524 q 313 563 328 547 q 274 578 297 578 q 237 563 253 578 q 221 524 221 547 q 237 486 221 501 q 274 471 253 471 q 313 486 297 471 q 328 524 328 501 m 461 561 q 446 600 461 585 q 407 615 431 615 q 370 600 386 615 q 354 561 354 585 q 370 524 354 539 q 407 508 386 508 q 446 524 431 508 q 461 561 461 539 m 599 544 q 583 583 599 568 q 544 599 568 599 q 508 583 524 599 q 492 544 492 568 q 508 507 492 522 q 544 492 524 492 q 583 507 568 492 q 599 544 599 522 m 703 457 q 688 496 703 481 q 649 511 672 511 q 612 496 628 511 q 596 457 596 481 q 612 419 596 435 q 649 404 628 404 q 688 419 672 404 q 703 457 703 435 m 736 324 q 721 363 736 347 q 682 378 706 378 q 645 363 661 378 q 629 324 629 347 q 645 286 629 301 q 682 271 661 271 q 721 286 706 271 q 736 324 736 301 m 690 190 q 675 229 690 214 q 636 244 660 244 q 599 229 615 244 q 583 190 583 214 q 599 153 583 168 q 636 138 615 138 q 675 153 660 138 q 690 190 690 168 m 576 117 q 561 156 576 140 q 522 171 546 171 q 485 156 501 171 q 469 117 469 140 q 485 79 469 94 q 522 64 501 64 q 561 79 546 64 q 576 117 576 94 m 439 108 q 424 147 439 132 q 385 163 408 163 q 348 147 364 163 q 332 108 332 132 q 348 71 332 86 q 385 56 364 56 q 424 71 408 56 q 439 108 439 86 m 318 179 q 303 218 318 203 q 264 233 288 233 q 227 218 243 233 q 211 179 211 203 q 227 142 211 157 q 264 126 243 126 q 303 142 288 126 q 318 179 318 157 "},"6":{"ha":982,"x_min":106,"x_max":890,"o":"m 447 200 l 435 200 l 435 211 q 465 301 435 264 q 547 339 496 339 q 567 338 561 339 q 568 322 568 332 q 534 235 568 269 q 447 200 500 200 m 721 947 l 726 956 l 433 956 q 335 819 392 899 q 228 651 279 739 q 141 476 176 564 q 106 318 106 389 q 135 167 106 233 q 221 57 165 101 l 283 -8 q 281 -6 281 -6 l 290 -15 q 399 -88 335 -62 q 542 -114 463 -114 q 682 -91 618 -114 q 792 -25 746 -68 q 865 81 839 18 q 890 222 890 143 q 868 346 890 289 q 806 446 846 403 l 796 454 l 797 454 l 738 518 q 643 606 700 571 l 817 846 l 721 947 m 447 188 q 544 225 507 188 q 581 322 581 263 q 544 417 581 382 q 449 453 508 453 q 360 413 393 453 q 328 317 328 374 q 360 224 328 261 q 447 188 392 188 m 703 943 l 485 639 q 608 615 553 639 q 703 550 664 592 q 763 451 742 508 q 783 328 783 394 q 758 189 783 250 q 688 86 733 128 q 581 22 643 44 q 443 0 518 0 q 311 22 371 0 q 208 86 251 44 q 142 187 165 128 q 118 318 118 246 q 153 473 118 388 q 239 644 189 558 q 344 809 289 731 q 440 943 400 888 l 703 943 m 447 171 q 556 213 514 171 q 597 322 597 256 q 556 429 597 389 q 449 469 515 469 q 349 425 386 469 q 311 317 311 381 q 348 213 311 254 q 447 171 385 171 m 669 926 l 451 622 q 582 600 524 622 q 681 538 640 578 q 744 444 722 499 q 767 328 767 390 q 742 197 767 254 q 676 99 718 139 q 574 38 633 58 q 443 17 514 17 q 317 38 374 17 q 220 99 261 60 q 157 193 179 138 q 135 318 135 249 q 169 467 135 385 q 251 633 203 550 q 354 794 300 717 q 449 926 408 871 l 669 926 m 554 844 q 539 883 554 868 q 500 899 524 899 q 463 883 479 899 q 447 844 447 868 q 463 807 447 822 q 500 792 479 792 q 539 807 524 792 q 554 844 554 822 m 479 728 q 464 767 479 751 q 425 782 449 782 q 388 767 404 782 q 372 728 372 751 q 388 690 372 706 q 425 675 404 675 q 464 690 449 675 q 479 728 479 706 m 399 617 q 383 656 399 640 q 344 671 368 671 q 308 656 324 671 q 292 617 292 640 q 308 579 292 594 q 344 564 324 564 q 383 579 368 564 q 399 617 399 594 m 333 490 q 318 529 333 514 q 279 544 303 544 q 242 529 258 544 q 226 490 226 514 q 242 453 226 468 q 279 438 258 438 q 318 453 303 438 q 333 490 333 468 m 283 365 q 268 404 283 389 q 229 419 253 419 q 192 404 208 419 q 176 365 176 389 q 192 328 176 343 q 229 313 208 313 q 268 328 253 313 q 283 365 283 343 m 296 228 q 281 267 296 251 q 242 282 265 282 q 205 267 221 282 q 189 228 189 251 q 205 190 189 206 q 242 175 221 175 q 281 190 265 175 q 296 228 296 206 m 396 115 q 381 154 396 139 q 342 169 365 169 q 305 154 321 169 q 289 115 289 139 q 305 78 289 93 q 342 63 321 63 q 381 78 365 63 q 396 115 396 93 m 550 94 q 535 133 550 118 q 496 149 519 149 q 459 133 475 149 q 443 94 443 118 q 459 57 443 72 q 496 42 475 42 q 535 57 519 42 q 550 94 550 72 m 679 163 q 664 201 679 186 q 625 217 649 217 q 588 201 604 217 q 572 163 572 186 q 588 125 572 140 q 625 110 604 110 q 664 125 649 110 q 679 163 679 140 m 742 292 q 726 331 742 315 q 688 346 711 346 q 651 331 667 346 q 635 292 635 315 q 651 254 635 269 q 688 239 667 239 q 726 254 711 239 q 742 292 742 269 m 725 421 q 710 460 725 444 q 671 475 694 475 q 634 460 650 475 q 618 421 618 444 q 634 383 618 399 q 671 368 650 368 q 710 383 694 368 q 725 421 725 399 m 639 517 q 624 556 639 540 q 585 571 608 571 q 548 556 564 571 q 532 517 532 540 q 548 479 532 494 q 585 464 564 464 q 624 479 608 464 q 639 517 639 494 m 507 543 q 492 582 507 567 q 453 597 476 597 q 416 582 432 597 q 400 543 400 567 q 416 506 400 521 q 453 490 432 490 q 492 506 476 490 q 507 543 507 521 "},"7":{"ha":893,"x_min":72,"x_max":843,"o":"m 747 949 l 750 956 l 72 956 l 72 714 l 81 714 l 175 613 l 361 613 l 129 -12 l 139 -12 l 233 -114 l 492 -114 l 843 846 l 747 949 m 732 943 l 386 0 l 147 0 l 417 726 l 85 726 l 85 943 l 732 943 m 708 926 l 375 17 l 171 17 l 440 743 l 101 743 l 101 926 l 708 926 m 360 94 q 344 133 360 118 q 306 149 329 149 q 269 133 285 149 q 253 94 253 118 q 269 57 253 72 q 306 42 285 42 q 344 57 329 42 q 360 94 360 72 m 401 219 q 386 258 401 243 q 347 274 371 274 q 310 258 326 274 q 294 219 294 243 q 310 182 294 197 q 347 167 326 167 q 386 182 371 167 q 401 219 401 197 m 460 349 q 444 388 460 372 q 406 403 429 403 q 369 388 385 403 q 353 349 353 372 q 369 311 353 326 q 406 296 385 296 q 444 311 429 296 q 460 349 460 326 m 500 478 q 485 517 500 501 q 446 532 469 532 q 409 517 425 532 q 393 478 393 501 q 409 440 393 456 q 446 425 425 425 q 485 440 469 425 q 500 478 500 456 m 543 599 q 528 638 543 622 q 489 653 513 653 q 452 638 468 653 q 436 599 436 622 q 452 561 436 576 q 489 546 468 546 q 528 561 513 546 q 543 599 543 576 m 235 832 q 219 871 235 856 q 181 886 204 886 q 144 871 160 886 q 128 832 128 856 q 144 794 128 810 q 181 779 160 779 q 219 794 204 779 q 235 832 235 810 m 369 832 q 354 871 369 856 q 315 886 339 886 q 278 871 294 886 q 263 832 263 856 q 278 794 263 810 q 315 779 294 779 q 354 794 339 779 q 369 832 369 810 m 643 846 q 628 885 643 869 q 589 900 613 900 q 552 885 568 900 q 536 846 536 869 q 552 808 536 824 q 589 793 568 793 q 628 808 613 793 q 643 846 643 824 m 585 725 q 569 764 585 749 q 531 779 554 779 q 494 764 510 779 q 478 725 478 749 q 494 688 478 703 q 531 672 510 672 q 569 688 554 672 q 585 725 585 703 m 508 832 q 493 871 508 856 q 454 886 478 886 q 417 871 433 886 q 401 832 401 856 q 417 794 401 810 q 454 779 433 779 q 493 794 478 779 q 508 832 508 810 "},"8":{"ha":981,"x_min":129,"x_max":897,"o":"m 392 225 l 388 231 l 392 225 m 535 640 q 483 601 522 610 q 535 640 499 632 m 557 285 q 528 227 553 247 q 463 207 503 207 q 491 264 465 244 q 557 285 517 283 m 129 288 q 157 149 129 207 q 233 56 185 92 l 297 -12 l 303 -18 q 417 -90 349 -67 q 565 -114 486 -114 q 695 -97 635 -114 q 801 -42 756 -79 q 872 50 846 -6 q 897 183 897 106 q 826 376 897 299 l 808 394 q 871 563 871 461 q 852 672 871 625 q 800 756 833 719 l 797 758 l 792 764 l 733 825 q 623 923 693 890 q 467 956 553 956 q 348 936 404 956 q 249 881 292 917 q 182 792 207 844 q 157 671 157 739 q 172 579 157 621 q 215 506 188 538 q 149 410 169 464 q 129 288 129 356 m 142 288 q 163 409 142 354 q 233 504 185 464 q 185 577 201 536 q 169 671 169 618 q 193 785 169 735 q 258 872 217 836 q 352 925 299 907 q 467 943 406 943 q 583 925 529 943 q 678 872 638 907 q 741 786 718 838 q 764 668 764 735 q 697 499 764 568 q 790 289 790 419 q 765 159 790 214 q 697 69 740 104 q 594 17 653 33 q 467 0 535 0 q 340 17 400 0 q 237 69 281 33 q 167 158 193 104 q 142 288 142 213 m 463 757 q 396 735 422 757 q 369 671 369 714 q 393 609 369 631 q 460 588 417 588 q 528 608 504 588 q 553 671 553 629 q 463 757 553 757 m 461 194 q 542 222 513 194 q 571 299 571 249 q 542 374 571 349 q 461 399 513 399 q 384 373 413 399 q 356 299 356 347 q 384 222 356 249 q 461 194 413 194 m 158 288 q 182 406 158 351 q 258 503 206 460 q 204 581 222 539 q 186 671 186 622 q 208 778 186 731 q 269 859 231 826 q 359 909 308 892 q 467 926 410 926 q 576 910 525 926 q 665 860 628 893 q 725 779 703 828 q 747 668 747 731 q 672 497 747 575 q 774 289 774 410 q 750 167 774 218 q 685 82 726 115 q 587 33 643 49 q 467 17 531 17 q 347 33 403 17 q 249 82 290 49 q 183 166 207 115 q 158 288 158 217 m 463 774 q 383 748 414 774 q 353 671 353 722 q 381 597 353 622 q 460 571 408 571 q 541 596 513 571 q 569 671 569 621 q 463 774 569 774 m 461 178 q 553 209 519 178 q 588 299 588 240 q 553 386 588 357 q 461 415 519 415 q 372 386 404 415 q 339 299 339 357 q 372 209 339 240 q 461 178 404 178 m 521 494 q 506 533 521 518 q 467 549 490 549 q 430 533 446 549 q 414 494 414 518 q 430 457 414 472 q 467 442 446 442 q 506 457 490 442 q 521 494 521 472 m 675 575 q 659 613 675 599 q 619 626 643 626 q 583 611 599 626 q 567 572 567 596 q 583 535 567 550 q 619 519 599 519 q 659 536 643 519 q 675 575 675 553 m 671 436 q 656 475 671 460 q 617 490 640 490 q 580 475 596 490 q 564 436 564 460 q 580 399 564 414 q 617 383 596 383 q 656 399 640 383 q 671 436 671 414 m 725 311 q 710 350 725 335 q 671 365 694 365 q 634 350 650 365 q 618 311 618 335 q 634 274 618 289 q 671 258 650 258 q 710 274 694 258 q 725 311 725 289 m 450 103 q 435 142 450 126 q 396 157 419 157 q 359 142 375 157 q 343 103 343 126 q 359 65 343 81 q 396 50 375 50 q 435 65 419 50 q 450 103 450 81 m 708 178 q 693 217 708 201 q 654 232 678 232 q 617 217 633 232 q 601 178 601 201 q 617 140 601 156 q 654 125 633 125 q 693 140 678 125 q 708 178 708 156 m 588 107 q 572 146 588 131 q 533 161 557 161 q 497 146 513 161 q 481 107 481 131 q 497 69 481 85 q 533 54 513 54 q 572 69 557 54 q 588 107 588 85 m 333 182 q 318 221 333 206 q 279 236 303 236 q 242 221 258 236 q 226 182 226 206 q 242 144 226 160 q 279 129 258 129 q 318 144 303 129 q 333 182 333 160 m 385 457 q 369 496 385 481 q 331 511 354 511 q 294 496 310 511 q 278 457 278 481 q 294 419 278 435 q 331 404 310 404 q 369 419 354 404 q 385 457 385 435 m 308 333 q 293 372 308 357 q 254 388 278 388 q 217 372 233 388 q 201 333 201 357 q 217 296 201 311 q 254 281 233 281 q 293 296 278 281 q 308 333 308 311 m 343 592 q 328 631 343 615 q 289 646 313 646 q 252 631 268 646 q 236 592 236 615 q 252 554 236 569 q 289 539 268 539 q 328 554 313 539 q 343 592 343 569 m 718 697 q 702 735 718 721 q 663 749 686 749 q 626 733 642 749 q 610 694 610 718 q 626 657 610 672 q 663 642 642 642 q 702 658 686 642 q 718 697 718 675 m 661 810 q 645 847 661 833 q 606 861 629 861 q 569 846 585 861 q 553 807 553 831 q 569 769 553 785 q 606 754 585 754 q 645 771 629 754 q 661 810 661 788 m 525 847 q 509 885 525 871 q 469 899 493 899 q 433 883 449 899 q 417 844 417 868 q 433 807 417 822 q 469 792 449 792 q 509 808 493 792 q 525 847 525 825 m 394 815 q 378 853 394 839 q 339 867 363 867 q 302 851 318 867 q 286 813 286 836 q 302 775 286 790 q 339 760 318 760 q 378 776 363 760 q 394 815 394 793 m 322 714 q 306 751 322 738 q 267 765 290 765 q 230 750 246 765 q 214 711 214 735 q 230 674 214 689 q 267 658 246 658 q 306 675 290 658 q 322 714 322 692 "},"9":{"ha":979,"x_min":93,"x_max":878,"o":"m 532 626 q 507 552 531 585 q 443 519 483 519 l 432 519 q 460 595 433 567 q 532 626 488 624 m 336 236 l 161 -12 l 174 -12 l 268 -114 l 553 -114 q 614 -29 579 -78 q 685 75 649 19 q 756 190 721 131 q 817 308 790 250 q 861 422 844 367 q 878 522 878 476 q 856 650 878 593 q 796 749 835 707 l 732 817 q 616 919 689 883 q 447 956 543 956 q 303 933 368 956 q 192 868 239 911 q 119 762 144 825 q 93 618 93 699 q 124 467 93 535 q 214 354 156 399 l 281 283 q 307 258 293 268 q 336 236 321 247 m 444 740 q 358 709 390 740 q 325 622 325 678 q 358 540 325 572 q 443 507 390 507 q 518 544 492 507 q 544 629 544 581 q 518 709 544 678 q 444 740 492 740 m 186 0 l 407 307 l 403 307 q 280 331 335 307 q 186 397 225 356 q 126 496 147 439 q 106 618 106 553 q 131 756 106 696 q 201 858 156 817 q 309 922 246 900 q 447 943 372 943 q 579 921 519 943 q 682 858 639 899 q 748 758 725 817 q 771 628 771 700 q 754 529 771 583 q 710 417 738 475 q 649 301 683 360 q 579 187 615 242 q 509 84 543 132 q 449 0 475 36 l 186 0 m 444 757 q 345 721 382 757 q 308 622 308 685 q 346 527 308 564 q 443 490 383 490 q 493 502 471 490 q 531 533 515 514 q 553 576 546 551 q 561 629 561 601 q 530 721 561 685 q 444 757 499 757 m 219 17 l 440 324 q 308 347 367 324 q 208 409 249 369 q 144 502 167 449 q 122 618 122 556 q 146 749 122 692 q 213 845 169 806 q 315 906 256 885 q 447 926 375 926 q 573 906 517 926 q 669 846 629 885 q 732 751 710 807 q 754 628 754 696 q 738 534 754 586 q 697 426 722 482 q 637 313 671 371 q 568 202 603 256 q 500 101 533 149 q 440 17 467 53 l 219 17 m 439 110 q 423 147 439 133 q 383 161 407 161 q 347 146 363 161 q 331 107 331 131 q 347 69 331 85 q 383 54 363 54 q 423 71 407 54 q 439 110 439 88 m 526 219 q 510 257 526 243 q 471 271 494 271 q 434 256 450 271 q 418 217 418 240 q 434 179 418 194 q 471 164 450 164 q 510 181 494 164 q 526 219 526 197 m 597 340 q 581 378 597 364 q 542 392 565 392 q 505 376 521 392 q 489 338 489 361 q 505 300 489 315 q 542 285 521 285 q 581 301 565 285 q 597 340 597 318 m 672 453 q 656 490 672 476 q 617 504 640 504 q 580 489 596 504 q 564 450 564 474 q 580 413 564 428 q 617 397 596 397 q 656 414 640 397 q 672 453 672 431 m 701 586 q 685 624 701 610 q 646 638 669 638 q 609 622 625 638 q 593 583 593 607 q 609 546 593 561 q 646 531 625 531 q 685 547 669 531 q 701 586 701 564 m 693 728 q 677 765 693 751 q 638 779 661 779 q 601 764 617 779 q 585 725 585 749 q 601 688 585 703 q 638 672 617 672 q 677 689 661 672 q 693 728 693 706 m 610 828 q 594 865 610 851 q 554 879 578 879 q 517 864 533 879 q 501 825 501 849 q 517 788 501 803 q 554 772 533 772 q 594 789 578 772 q 610 828 610 806 m 460 840 q 444 878 460 864 q 404 892 428 892 q 367 876 383 892 q 351 838 351 861 q 367 800 351 815 q 404 785 383 785 q 444 801 428 785 q 460 840 460 818 m 326 786 q 310 824 326 810 q 271 838 294 838 q 234 822 250 838 q 218 783 218 807 q 234 746 218 761 q 271 731 250 731 q 310 747 294 731 q 326 786 326 764 m 276 674 q 260 711 276 697 q 221 725 244 725 q 184 710 200 725 q 168 671 168 694 q 184 633 168 649 q 221 618 200 618 q 260 635 244 618 q 276 674 276 651 m 282 547 q 266 585 282 571 q 226 599 250 599 q 190 583 206 599 q 174 544 174 568 q 190 507 174 522 q 226 492 206 492 q 266 508 250 492 q 282 547 282 525 m 365 444 q 349 482 365 468 q 310 496 333 496 q 273 481 289 496 q 257 442 257 465 q 272 406 257 419 q 308 392 288 392 q 349 407 332 392 q 365 444 365 422 m 497 415 q 481 453 497 439 q 442 467 465 467 q 405 451 421 467 q 389 413 389 436 q 405 375 389 390 q 442 360 421 360 q 481 376 465 360 q 497 415 497 393 "},"\u0000":{"ha":0,"x_min":0,"x_max":0,"o":""}," ":{"ha":367,"x_min":0,"x_max":0,"o":""},"E":{"ha":1017,"x_min":101,"x_max":890,"o":"m 432 568 l 432 619 l 890 619 l 890 846 l 796 947 l 796 956 l 101 956 l 101 -12 l 110 -12 l 204 -114 l 890 -114 l 890 113 l 796 214 l 796 222 l 432 222 l 432 243 l 881 243 l 882 458 l 788 560 l 788 568 l 432 568 m 325 357 l 325 210 l 783 210 l 783 0 l 114 0 l 114 943 l 783 943 l 783 733 l 325 733 l 326 556 l 775 556 l 774 357 l 325 357 m 308 374 l 308 193 l 767 193 l 767 17 l 131 17 l 131 926 l 767 926 l 767 750 l 308 750 l 310 539 l 758 539 q 758 456 758 493 q 757 374 757 418 l 308 374 m 276 103 q 261 142 276 126 q 222 157 246 157 q 185 142 201 157 q 169 103 169 126 q 185 65 169 81 q 222 50 201 50 q 261 65 246 50 q 276 103 276 81 m 281 242 q 265 281 281 265 q 226 296 250 296 q 190 281 206 296 q 174 242 174 265 q 190 204 174 219 q 226 189 206 189 q 265 204 250 189 q 281 242 281 219 m 281 383 q 265 422 281 407 q 226 438 250 438 q 190 422 206 438 q 174 383 174 407 q 190 346 174 361 q 226 331 206 331 q 265 346 250 331 q 281 383 281 361 m 285 533 q 269 572 285 557 q 231 588 254 588 q 194 572 210 588 q 178 533 178 557 q 194 496 178 511 q 231 481 210 481 q 269 496 254 481 q 285 533 285 511 m 285 679 q 269 718 285 703 q 231 733 254 733 q 194 718 210 733 q 178 679 178 703 q 194 642 178 657 q 231 626 210 626 q 269 642 254 626 q 285 679 285 657 m 281 838 q 265 876 281 861 q 226 892 250 892 q 190 876 206 892 q 174 838 174 861 q 190 800 174 815 q 226 785 206 785 q 265 800 250 785 q 281 838 281 815 m 414 836 q 399 875 414 860 q 360 890 383 890 q 323 875 339 890 q 307 836 307 860 q 323 799 307 814 q 360 783 339 783 q 399 799 383 783 q 414 836 414 814 m 568 836 q 553 875 568 860 q 514 890 538 890 q 477 875 493 890 q 461 836 461 860 q 477 799 461 814 q 514 783 493 783 q 553 799 538 783 q 568 836 568 814 m 722 838 q 707 876 722 861 q 668 892 692 892 q 631 876 647 892 q 615 838 615 861 q 631 800 615 815 q 668 785 647 785 q 707 800 692 785 q 722 838 722 815 m 410 457 q 394 496 410 481 q 356 511 379 511 q 319 496 335 511 q 303 457 303 481 q 319 419 303 435 q 356 404 335 404 q 394 419 379 404 q 410 457 410 435 m 556 454 q 540 493 556 478 q 501 508 525 508 q 465 493 481 508 q 449 454 449 478 q 465 417 449 432 q 501 401 481 401 q 540 417 525 401 q 556 454 556 432 m 710 458 q 694 497 710 482 q 656 513 679 513 q 619 497 635 513 q 603 458 603 482 q 619 421 603 436 q 656 406 635 406 q 694 421 679 406 q 710 458 710 436 m 731 103 q 715 142 731 126 q 676 157 700 157 q 640 142 656 157 q 624 103 624 126 q 640 65 624 81 q 676 50 656 50 q 715 65 700 50 q 731 103 731 81 m 583 99 q 568 138 583 122 q 529 153 553 153 q 492 138 508 153 q 476 99 476 122 q 492 61 476 76 q 529 46 508 46 q 568 61 553 46 q 583 99 583 76 m 429 99 q 414 138 429 122 q 375 153 399 153 q 338 138 354 153 q 322 99 322 122 q 338 61 322 76 q 375 46 354 46 q 414 61 399 46 q 429 99 429 76 "},"F":{"ha":960,"x_min":101,"x_max":865,"o":"m 101 956 l 101 -12 l 110 -12 l 204 -114 l 432 -114 l 432 215 l 856 215 l 856 443 l 761 544 l 761 553 l 432 553 l 432 619 l 865 619 l 865 846 l 771 947 l 771 956 l 101 956 m 114 0 l 114 943 l 758 943 l 758 733 l 325 733 l 325 540 l 749 540 l 749 329 l 325 329 l 325 0 l 114 0 m 131 17 l 131 926 l 742 926 l 742 750 l 308 750 l 308 524 l 732 524 l 732 346 l 308 346 l 308 17 l 131 17 m 276 103 q 261 142 276 126 q 222 157 246 157 q 185 142 201 157 q 169 103 169 126 q 185 65 169 81 q 222 50 201 50 q 261 65 246 50 q 276 103 276 81 m 281 242 q 265 281 281 265 q 226 296 250 296 q 190 281 206 296 q 174 242 174 265 q 190 204 174 219 q 226 189 206 189 q 265 204 250 189 q 281 242 281 219 m 281 383 q 265 422 281 407 q 226 438 250 438 q 190 422 206 438 q 174 383 174 407 q 190 346 174 361 q 226 331 206 331 q 265 346 250 331 q 281 383 281 361 m 285 533 q 269 572 285 557 q 231 588 254 588 q 194 572 210 588 q 178 533 178 557 q 194 496 178 511 q 231 481 210 481 q 269 496 254 481 q 285 533 285 511 m 285 679 q 269 718 285 703 q 231 733 254 733 q 194 718 210 733 q 178 679 178 703 q 194 642 178 657 q 231 626 210 626 q 269 642 254 626 q 285 679 285 657 m 281 838 q 265 876 281 861 q 226 892 250 892 q 190 876 206 892 q 174 838 174 861 q 190 800 174 815 q 226 785 206 785 q 265 800 250 785 q 281 838 281 815 m 422 832 q 407 871 422 856 q 368 886 392 886 q 331 871 347 886 q 315 832 315 856 q 331 794 315 810 q 368 779 347 779 q 407 794 392 779 q 422 832 422 810 m 564 832 q 549 871 564 856 q 510 886 533 886 q 473 871 489 886 q 457 832 457 856 q 473 794 457 810 q 510 779 489 779 q 549 794 533 779 q 564 832 564 810 m 701 832 q 686 871 701 856 q 647 886 671 886 q 610 871 626 886 q 594 832 594 856 q 610 794 594 810 q 647 779 626 779 q 686 794 671 779 q 701 832 701 810 m 422 432 q 407 471 422 456 q 368 486 392 486 q 331 471 347 486 q 315 432 315 456 q 331 394 315 410 q 368 379 347 379 q 407 394 392 379 q 422 432 422 410 m 564 428 q 549 467 564 451 q 510 482 533 482 q 473 467 489 482 q 457 428 457 451 q 473 390 457 406 q 510 375 489 375 q 549 390 533 375 q 564 428 564 406 m 701 428 q 686 467 701 451 q 647 482 671 482 q 610 467 626 482 q 594 428 594 451 q 610 390 594 406 q 647 375 626 375 q 686 390 671 375 q 701 428 701 406 "},"G":{"ha":1167,"x_min":53,"x_max":1083,"o":"m 538 222 q 404 261 465 222 q 382 367 382 310 q 402 465 382 419 q 458 546 422 511 q 540 600 493 581 q 639 619 586 619 q 706 606 671 619 q 778 568 742 592 l 492 568 l 493 339 l 501 339 l 596 238 l 622 238 q 538 222 581 222 m 229 97 l 275 49 l 276 46 q 281 42 279 43 q 285 39 282 40 q 442 -73 351 -32 q 638 -114 532 -114 q 815 -81 733 -114 q 957 12 897 -47 q 1050 153 1017 71 q 1083 332 1083 235 l 1083 458 l 989 560 l 989 568 l 894 568 l 1007 675 l 911 778 l 914 781 q 540 956 731 956 q 350 918 439 956 q 195 815 261 881 q 91 662 129 750 q 53 472 53 574 q 100 260 53 357 q 229 97 147 164 m 538 210 q 670 248 610 210 q 754 351 731 286 l 506 351 l 504 556 l 976 556 l 976 438 q 944 262 976 342 q 853 124 911 182 q 714 33 794 65 q 539 0 633 0 q 354 37 440 0 q 203 138 268 74 q 102 288 139 201 q 65 472 65 374 q 103 657 65 571 q 205 806 140 743 q 356 906 269 869 q 540 943 442 943 q 897 781 726 943 l 743 635 q 640 708 690 682 q 540 733 589 733 q 438 713 486 733 q 353 656 390 692 q 296 574 317 621 q 275 472 275 526 q 296 369 275 417 q 353 285 317 321 q 436 230 389 250 q 538 210 483 210 m 538 193 q 681 240 615 193 q 778 368 747 288 l 522 368 q 522 454 522 415 q 521 539 521 493 l 960 539 l 960 438 q 928 269 960 346 q 841 135 897 192 q 708 48 785 79 q 539 17 631 17 q 361 52 444 17 q 216 149 278 88 q 118 294 154 211 q 82 472 82 376 q 118 649 82 567 q 217 794 154 732 q 363 891 279 856 q 540 926 446 926 q 872 781 711 926 l 743 657 q 640 724 694 697 q 540 750 586 750 q 431 728 482 750 q 342 669 381 707 q 281 581 303 632 q 258 472 258 531 q 281 363 258 414 q 341 274 303 311 q 430 215 379 236 q 538 193 481 193 m 794 775 q 779 814 794 799 q 740 829 764 829 q 703 814 719 829 q 688 775 688 799 q 703 738 688 753 q 740 722 719 722 q 779 738 764 722 q 794 775 794 753 m 668 829 q 653 868 668 853 q 614 883 638 883 q 577 868 593 883 q 561 829 561 853 q 577 792 561 807 q 614 776 593 776 q 653 792 638 776 q 668 829 668 807 m 524 836 q 508 875 524 860 q 469 890 493 890 q 433 875 449 890 q 417 836 417 860 q 433 799 417 814 q 469 783 449 783 q 508 799 493 783 q 524 836 524 814 m 399 774 q 383 813 399 797 q 344 828 368 828 q 308 813 324 828 q 292 774 292 797 q 308 736 292 751 q 344 721 324 721 q 383 736 368 721 q 399 774 399 751 m 294 682 q 279 721 294 706 q 240 736 264 736 q 203 721 219 736 q 188 682 188 706 q 203 644 188 660 q 240 629 219 629 q 279 644 264 629 q 294 682 294 660 m 236 561 q 221 600 236 585 q 182 615 206 615 q 145 600 161 615 q 129 561 129 585 q 145 524 129 539 q 182 508 161 508 q 221 524 206 508 q 236 561 236 539 m 224 419 q 208 458 224 443 q 169 474 193 474 q 133 458 149 474 q 117 419 117 443 q 133 382 117 397 q 169 367 149 367 q 208 382 193 367 q 224 419 224 397 m 286 278 q 271 317 286 301 q 232 332 256 332 q 195 317 211 332 q 179 278 179 301 q 195 240 179 256 q 232 225 211 225 q 271 240 256 225 q 286 278 286 256 m 378 169 q 363 208 378 193 q 324 224 347 224 q 287 208 303 224 q 271 169 271 193 q 287 132 271 147 q 324 117 303 117 q 363 132 347 117 q 378 169 378 147 m 511 107 q 496 146 511 131 q 457 161 481 161 q 420 146 436 161 q 404 107 404 131 q 420 69 404 85 q 457 54 436 54 q 496 69 481 54 q 511 107 511 85 m 661 117 q 646 156 661 140 q 607 171 631 171 q 570 156 586 171 q 554 117 554 140 q 570 79 554 94 q 607 64 586 64 q 646 79 631 64 q 661 117 661 94 m 794 171 q 779 210 794 194 q 740 225 764 225 q 703 210 719 225 q 688 171 688 194 q 703 133 688 149 q 740 118 719 118 q 779 133 764 118 q 794 171 794 149 m 899 288 q 883 326 899 311 q 844 342 868 342 q 808 326 824 342 q 792 288 792 311 q 808 250 792 265 q 844 235 824 235 q 883 250 868 235 q 899 288 899 265 m 931 444 q 915 483 931 468 q 876 499 900 499 q 840 483 856 499 q 824 444 824 468 q 840 407 824 422 q 876 392 856 392 q 915 407 900 392 q 931 444 931 422 m 800 450 q 785 489 800 474 q 746 504 769 504 q 709 489 725 504 q 693 450 693 474 q 709 413 693 428 q 746 397 725 397 q 785 413 769 397 q 800 450 800 428 m 664 454 q 649 493 664 478 q 610 508 633 508 q 573 493 589 508 q 557 454 557 478 q 573 417 557 432 q 610 401 589 401 q 649 417 633 401 q 664 454 664 432 "},"H":{"ha":1092,"x_min":101,"x_max":965,"o":"m 635 956 l 635 599 l 432 599 l 432 846 l 338 947 l 338 956 l 101 956 l 101 -12 l 110 -12 l 204 -114 l 432 -114 l 432 267 l 635 267 l 635 -12 l 643 -12 l 738 -114 l 965 -114 l 965 846 l 871 947 l 871 956 l 635 956 m 647 586 l 647 943 l 858 943 l 858 0 l 647 0 l 647 381 l 325 381 l 325 0 l 114 0 l 114 943 l 325 943 l 325 586 l 647 586 m 664 569 l 664 926 l 842 926 l 842 17 l 664 17 l 664 397 l 308 397 l 308 17 l 131 17 l 131 926 l 308 926 l 308 569 l 664 569 m 276 103 q 261 142 276 126 q 222 157 246 157 q 185 142 201 157 q 169 103 169 126 q 185 65 169 81 q 222 50 201 50 q 261 65 246 50 q 276 103 276 81 m 281 242 q 265 281 281 265 q 226 296 250 296 q 190 281 206 296 q 174 242 174 265 q 190 204 174 219 q 226 189 206 189 q 265 204 250 189 q 281 242 281 219 m 281 383 q 265 422 281 407 q 226 438 250 438 q 190 422 206 438 q 174 383 174 407 q 190 346 174 361 q 226 331 206 331 q 265 346 250 331 q 281 383 281 361 m 285 533 q 269 572 285 557 q 231 588 254 588 q 194 572 210 588 q 178 533 178 557 q 194 496 178 511 q 231 481 210 481 q 269 496 254 481 q 285 533 285 511 m 285 679 q 269 718 285 703 q 231 733 254 733 q 194 718 210 733 q 178 679 178 703 q 194 642 178 657 q 231 626 210 626 q 269 642 254 626 q 285 679 285 657 m 281 838 q 265 876 281 861 q 226 892 250 892 q 190 876 206 892 q 174 838 174 861 q 190 800 174 815 q 226 785 206 785 q 265 800 250 785 q 281 838 281 815 m 804 103 q 789 142 804 126 q 750 157 774 157 q 713 142 729 157 q 697 103 697 126 q 713 65 697 81 q 750 50 729 50 q 789 65 774 50 q 804 103 804 81 m 808 242 q 793 281 808 265 q 754 296 778 296 q 717 281 733 296 q 701 242 701 265 q 717 204 701 219 q 754 189 733 189 q 793 204 778 189 q 808 242 808 219 m 808 383 q 793 422 808 407 q 754 438 778 438 q 717 422 733 438 q 701 383 701 407 q 717 346 701 361 q 754 331 733 331 q 793 346 778 331 q 808 383 808 361 m 813 533 q 797 572 813 557 q 758 588 782 588 q 722 572 738 588 q 706 533 706 557 q 722 496 706 511 q 758 481 738 481 q 797 496 782 481 q 813 533 813 511 m 813 679 q 797 718 813 703 q 758 733 782 733 q 722 718 738 733 q 706 679 706 703 q 722 642 706 657 q 758 626 738 626 q 797 642 782 626 q 813 679 813 657 m 808 838 q 793 876 808 861 q 754 892 778 892 q 717 876 733 892 q 701 838 701 861 q 717 800 701 815 q 754 785 733 785 q 793 800 778 785 q 808 838 808 815 m 418 479 q 403 518 418 503 q 364 533 388 533 q 327 518 343 533 q 311 479 311 503 q 327 442 311 457 q 364 426 343 426 q 403 442 388 426 q 418 479 418 457 m 556 476 q 540 515 556 500 q 501 531 525 531 q 465 515 481 531 q 449 476 449 500 q 465 439 449 454 q 501 424 481 424 q 540 439 525 424 q 556 476 556 454 m 696 474 q 681 513 696 497 q 642 528 665 528 q 605 513 621 528 q 589 474 589 497 q 605 436 589 451 q 642 421 621 421 q 681 436 665 421 q 696 474 696 451 "},"I":{"ha":557,"x_min":101,"x_max":431,"o":"m 101 956 l 101 -12 l 110 -12 l 204 -114 l 431 -114 l 431 846 l 336 947 l 336 956 l 101 956 m 114 0 l 114 943 l 324 943 l 324 0 l 114 0 m 131 17 l 131 926 l 307 926 l 307 17 l 131 17 m 275 103 q 260 142 275 126 q 221 157 244 157 q 184 142 200 157 q 168 103 168 126 q 184 65 168 81 q 221 50 200 50 q 260 65 244 50 q 275 103 275 81 m 279 242 q 264 281 279 265 q 225 296 249 296 q 188 281 204 296 q 172 242 172 265 q 188 204 172 219 q 225 189 204 189 q 264 204 249 189 q 279 242 279 219 m 279 383 q 264 422 279 407 q 225 438 249 438 q 188 422 204 438 q 172 383 172 407 q 188 346 172 361 q 225 331 204 331 q 264 346 249 331 q 279 383 279 361 m 283 533 q 268 572 283 557 q 229 588 253 588 q 192 572 208 588 q 176 533 176 557 q 192 496 176 511 q 229 481 208 481 q 268 496 253 481 q 283 533 283 511 m 283 679 q 268 718 283 703 q 229 733 253 733 q 192 718 208 733 q 176 679 176 703 q 192 642 176 657 q 229 626 208 626 q 268 642 253 626 q 283 679 283 657 m 279 838 q 264 876 279 861 q 225 892 249 892 q 188 876 204 892 q 172 838 172 861 q 188 800 172 815 q 225 785 204 785 q 264 800 249 785 q 279 838 279 815 "},"J":{"ha":799,"x_min":-14,"x_max":672,"o":"m 672 844 l 578 946 l 578 954 l 343 954 l 343 269 q 320 233 343 246 q 272 221 297 221 q 243 231 257 221 l 201 275 l 201 276 l 182 306 l -14 157 q 22 113 3 133 q 63 75 40 93 l 75 61 q 240 -76 168 -37 q 375 -114 313 -114 q 484 -95 431 -114 q 579 -41 538 -76 q 647 44 621 -6 q 672 156 672 94 l 672 844 m 565 942 l 565 844 l 565 261 q 541 153 565 201 q 476 72 517 106 q 383 19 435 38 q 276 0 331 0 q 189 15 233 0 q 103 58 144 29 q 51 101 76 78 q 4 154 26 125 l 179 286 q 215 238 199 256 q 249 213 232 219 l 264 208 l 272 208 q 328 224 301 208 q 356 269 356 239 l 356 942 l 565 942 m 272 192 l 264 192 q 251 193 254 192 q 242 197 242 196 q 208 222 225 204 q 175 263 192 239 l 28 150 q 69 107 47 126 q 113 72 90 88 q 194 32 150 47 q 276 17 239 17 q 377 34 328 17 q 465 83 426 51 q 526 160 503 115 q 549 261 549 206 l 549 925 l 372 925 l 372 269 q 363 235 372 250 q 340 211 354 221 q 308 197 325 201 q 272 192 290 192 m 158 97 q 122 113 138 97 q 106 150 106 128 q 122 189 106 174 q 158 204 138 204 q 197 189 182 204 q 213 150 213 174 q 197 113 213 128 q 158 97 182 97 m 275 47 q 238 63 254 47 q 222 100 222 78 q 238 139 222 124 q 275 154 254 154 q 314 139 299 154 q 329 100 329 124 q 314 63 329 78 q 275 47 299 47 m 457 218 q 420 233 436 218 q 404 271 404 249 q 420 310 404 294 q 457 325 436 325 q 496 310 481 325 q 511 271 511 294 q 496 233 511 249 q 457 218 481 218 m 403 408 q 419 447 403 432 q 456 463 435 463 q 494 447 479 463 q 510 408 510 432 q 494 371 510 386 q 456 356 479 356 q 419 371 435 356 q 403 408 403 386 m 457 633 q 420 649 436 633 q 404 686 404 664 q 420 725 404 710 q 457 740 436 740 q 496 725 481 740 q 511 686 511 710 q 496 649 511 664 q 457 633 481 633 m 454 886 q 493 871 478 886 q 508 832 508 856 q 493 794 508 810 q 454 779 478 779 q 417 794 433 779 q 401 832 401 810 q 417 871 401 856 q 454 886 433 886 m 454 600 q 493 585 478 600 q 508 546 508 569 q 493 508 508 524 q 454 493 478 493 q 417 508 433 493 q 401 546 401 524 q 417 585 401 569 q 454 600 433 600 m 397 200 q 438 185 421 200 q 454 147 454 171 q 438 109 454 125 q 397 93 421 93 q 360 108 376 93 q 344 146 344 124 q 360 185 344 169 q 397 200 376 200 "},"K":{"ha":1013,"x_min":101,"x_max":978,"o":"m 110 -11 l 204 -112 l 433 -112 l 433 128 l 558 -11 l 564 -11 l 658 -112 l 976 -112 l 882 -11 l 888 -11 l 599 296 l 978 844 l 881 947 l 886 954 l 582 954 l 433 739 l 433 844 l 339 946 l 339 954 l 101 954 l 101 -11 l 110 -11 m 326 563 l 588 942 l 864 942 l 488 397 l 860 1 l 563 1 l 326 265 l 326 1 l 114 1 l 114 942 l 326 942 l 326 563 m 310 508 l 596 925 l 832 925 l 465 396 q 643 208 553 303 q 821 18 733 113 l 571 18 l 310 310 l 310 18 l 131 18 l 131 925 l 310 925 l 310 508 m 275 103 q 260 142 275 126 q 221 157 244 157 q 184 142 200 157 q 168 103 168 126 q 184 65 168 81 q 221 50 200 50 q 260 65 244 50 q 275 103 275 81 m 279 242 q 264 281 279 265 q 225 296 249 296 q 188 281 204 296 q 172 242 172 265 q 188 204 172 219 q 225 189 204 189 q 264 204 249 189 q 279 242 279 219 m 279 383 q 264 422 279 407 q 225 438 249 438 q 188 422 204 438 q 172 383 172 407 q 188 346 172 361 q 225 331 204 331 q 264 346 249 331 q 279 383 279 361 m 283 533 q 268 572 283 557 q 229 588 253 588 q 192 572 208 588 q 176 533 176 557 q 192 496 176 511 q 229 481 208 481 q 268 496 253 481 q 283 533 283 511 m 283 679 q 268 718 283 703 q 229 733 253 733 q 192 718 208 733 q 176 679 176 703 q 192 642 176 657 q 229 626 208 626 q 268 642 253 626 q 283 679 283 657 m 279 838 q 264 876 279 861 q 225 892 249 892 q 188 876 204 892 q 172 838 172 861 q 188 800 172 815 q 225 785 204 785 q 264 800 249 785 q 279 838 279 815 m 714 840 q 699 879 714 864 q 660 894 683 894 q 623 879 639 894 q 607 840 607 864 q 623 803 607 818 q 660 788 639 788 q 699 803 683 788 q 714 840 714 818 m 633 738 q 618 776 633 761 q 579 792 603 792 q 542 776 558 792 q 526 738 526 761 q 542 700 526 715 q 579 685 558 685 q 618 700 603 685 q 633 738 633 715 m 558 625 q 543 664 558 649 q 504 679 528 679 q 467 664 483 679 q 451 625 451 649 q 467 588 451 603 q 504 572 483 572 q 543 588 528 572 q 558 625 558 603 m 482 513 q 467 551 482 536 q 428 567 451 567 q 391 551 407 567 q 375 513 375 536 q 391 475 375 490 q 428 460 407 460 q 467 475 451 460 q 482 513 482 490 m 414 399 q 399 438 414 422 q 360 453 383 453 q 323 438 339 453 q 307 399 307 422 q 323 361 307 376 q 360 346 339 346 q 399 361 383 346 q 414 399 414 376 m 510 292 q 494 331 510 315 q 456 346 479 346 q 419 331 435 346 q 403 292 403 315 q 419 254 403 269 q 456 239 435 239 q 494 254 479 239 q 510 292 510 269 m 690 92 q 675 131 690 115 q 636 146 660 146 q 599 131 615 146 q 583 92 583 115 q 599 54 583 69 q 636 39 615 39 q 675 54 660 39 q 690 92 690 69 m 597 190 q 582 229 597 214 q 543 244 567 244 q 506 229 522 244 q 490 190 490 214 q 506 153 490 168 q 543 138 522 138 q 582 153 567 138 q 597 190 597 168 "},"L":{"ha":881,"x_min":101,"x_max":833,"o":"m 333 947 l 333 956 l 101 956 l 101 -12 l 110 -12 l 204 -114 l 833 -114 l 833 108 l 739 210 l 739 218 l 428 218 l 428 846 l 333 947 m 321 943 l 321 206 l 726 206 l 726 0 l 114 0 l 114 943 l 321 943 m 304 926 l 304 189 l 710 189 l 710 17 l 131 17 l 131 926 l 304 926 m 275 103 q 260 142 275 126 q 221 157 244 157 q 184 142 200 157 q 168 103 168 126 q 184 65 168 81 q 221 50 200 50 q 260 65 244 50 q 275 103 275 81 m 279 242 q 264 281 279 265 q 225 296 249 296 q 188 281 204 296 q 172 242 172 265 q 188 204 172 219 q 225 189 204 189 q 264 204 249 189 q 279 242 279 219 m 279 383 q 264 422 279 407 q 225 438 249 438 q 188 422 204 438 q 172 383 172 407 q 188 346 172 361 q 225 331 204 331 q 264 346 249 331 q 279 383 279 361 m 283 533 q 268 572 283 557 q 229 588 253 588 q 192 572 208 588 q 176 533 176 557 q 192 496 176 511 q 229 481 208 481 q 268 496 253 481 q 283 533 283 511 m 283 679 q 268 718 283 703 q 229 733 253 733 q 192 718 208 733 q 176 679 176 703 q 192 642 176 657 q 229 626 208 626 q 268 642 253 626 q 283 679 283 657 m 279 838 q 264 876 279 861 q 225 892 249 892 q 188 876 204 892 q 172 838 172 861 q 188 800 172 815 q 225 785 204 785 q 264 800 249 785 q 279 838 279 815 m 410 103 q 394 142 410 126 q 356 157 379 157 q 319 142 335 157 q 303 103 303 126 q 319 65 303 81 q 356 50 335 50 q 394 65 379 50 q 410 103 410 81 m 556 99 q 540 138 556 122 q 501 153 525 153 q 465 138 481 153 q 449 99 449 122 q 465 61 449 76 q 501 46 481 46 q 540 61 525 46 q 556 99 556 76 m 685 94 q 669 133 685 118 q 631 149 654 149 q 594 133 610 149 q 578 94 578 118 q 594 57 578 72 q 631 42 610 42 q 669 57 654 42 q 685 94 685 72 "},"M":{"ha":1242,"x_min":101,"x_max":1115,"o":"m 132 994 l 101 1036 l 101 -12 l 110 -12 l 204 -114 l 429 -114 l 429 161 l 558 -14 l 561 -10 l 657 -112 l 785 61 l 785 -12 l 793 -12 l 888 -114 l 1115 -114 l 1115 917 l 1021 1018 l 1021 1035 l 772 696 q 672 556 722 625 q 574 424 621 488 l 204 918 l 132 994 m 114 997 l 567 393 q 675 541 618 464 q 789 696 732 618 q 901 850 846 774 q 1008 996 957 926 l 1008 0 l 797 0 l 797 335 l 558 8 l 322 328 l 322 0 l 114 0 l 114 997 m 131 946 l 567 365 l 796 678 l 992 943 l 992 17 l 814 17 l 814 386 l 558 38 l 306 379 l 306 17 l 131 17 l 131 946 m 964 115 q 949 154 964 139 q 910 169 933 169 q 873 154 889 169 q 857 115 857 139 q 873 78 857 93 q 910 63 889 63 q 949 78 933 63 q 964 115 964 93 m 396 526 q 381 565 396 550 q 342 581 365 581 q 305 565 321 581 q 289 526 289 550 q 305 489 289 504 q 342 474 321 474 q 381 489 365 474 q 396 526 396 504 m 539 294 q 524 333 539 318 q 485 349 508 349 q 448 333 464 349 q 432 294 432 318 q 448 257 432 272 q 485 242 464 242 q 524 257 508 242 q 539 294 539 272 m 619 185 q 604 224 619 208 q 565 239 589 239 q 528 224 544 239 q 513 185 513 208 q 528 147 513 163 q 565 132 544 132 q 604 147 589 132 q 619 185 619 163 m 692 299 q 676 338 692 322 q 638 353 661 353 q 601 338 617 353 q 585 299 585 322 q 601 261 585 276 q 638 246 617 246 q 676 261 661 246 q 692 299 692 276 m 771 408 q 756 447 771 432 q 717 463 740 463 q 680 447 696 463 q 664 408 664 432 q 680 371 664 386 q 717 356 696 356 q 756 371 740 356 q 771 408 771 386 m 960 260 q 944 299 960 283 q 906 314 929 314 q 869 299 885 314 q 853 260 853 283 q 869 222 853 238 q 906 207 885 207 q 944 222 929 207 q 960 260 960 238 m 964 401 q 949 440 964 425 q 910 456 933 456 q 873 440 889 456 q 857 401 857 425 q 873 364 857 379 q 910 349 889 349 q 949 364 933 349 q 964 401 964 379 m 967 686 q 951 725 967 710 q 913 740 936 740 q 876 725 892 740 q 860 686 860 710 q 876 649 860 664 q 913 633 892 633 q 951 649 936 633 q 967 686 967 664 m 967 551 q 951 590 967 575 q 913 606 936 606 q 876 590 892 606 q 860 551 860 575 q 876 514 860 529 q 913 499 892 499 q 951 514 936 499 q 967 551 967 529 m 833 518 q 818 557 833 542 q 779 572 803 572 q 742 557 758 572 q 726 518 726 542 q 742 481 726 496 q 779 465 758 465 q 818 481 803 465 q 833 518 833 496 m 272 115 q 257 154 272 139 q 218 169 242 169 q 181 154 197 169 q 165 115 165 139 q 181 78 165 93 q 218 63 197 63 q 257 78 242 63 q 272 115 272 93 m 268 263 q 253 301 268 286 q 214 317 238 317 q 177 301 193 317 q 161 263 161 286 q 177 225 161 240 q 214 210 193 210 q 253 225 238 210 q 268 263 268 240 m 272 396 q 257 435 272 419 q 218 450 242 450 q 181 435 197 450 q 165 396 165 419 q 181 358 165 374 q 218 343 197 343 q 257 358 242 343 q 272 396 272 374 m 265 700 q 250 739 265 724 q 211 754 235 754 q 174 739 190 754 q 158 700 158 724 q 174 663 158 678 q 211 647 190 647 q 250 663 235 647 q 265 700 265 678 m 269 549 q 254 588 269 572 q 215 603 239 603 q 178 590 194 603 q 163 549 163 576 q 178 511 163 526 q 215 496 194 496 q 254 511 239 496 q 269 549 269 526 m 465 413 q 450 454 465 442 q 411 467 435 467 q 374 451 390 467 q 358 413 358 436 q 374 375 358 390 q 411 360 390 360 q 450 375 435 360 q 465 413 465 390 "},"N":{"ha":1128,"x_min":101,"x_max":1001,"o":"m 674 956 l 674 478 l 101 988 l 101 -12 l 110 -12 l 204 -114 l 429 -114 l 429 363 l 1001 -160 l 1001 846 l 907 947 l 907 956 l 674 956 m 686 451 l 686 943 l 894 943 l 894 -36 l 322 486 l 322 0 l 114 0 l 114 961 l 686 451 m 703 414 l 703 926 l 878 926 l 878 1 l 306 524 l 306 17 l 131 17 l 131 925 l 703 414 m 390 600 q 375 639 390 624 q 336 654 360 654 q 299 639 315 654 q 283 600 283 624 q 299 563 283 578 q 336 547 315 547 q 375 563 360 547 q 390 600 390 578 m 728 303 q 713 342 728 326 q 674 357 697 357 q 637 342 653 357 q 621 303 621 326 q 637 265 621 281 q 674 250 653 250 q 713 265 697 250 q 728 303 728 281 m 272 115 q 257 154 272 139 q 218 169 242 169 q 181 154 197 169 q 165 115 165 139 q 181 78 165 93 q 218 63 197 63 q 257 78 242 63 q 272 115 272 93 m 274 265 q 258 304 274 289 q 219 319 243 319 q 183 304 199 319 q 167 265 167 289 q 183 228 167 243 q 219 213 199 213 q 258 228 243 213 q 274 265 274 243 m 272 413 q 257 451 272 436 q 218 467 242 467 q 181 451 197 467 q 165 413 165 436 q 181 375 165 390 q 218 360 197 360 q 257 375 242 360 q 272 413 272 390 m 275 726 q 260 765 275 750 q 221 781 244 781 q 184 765 200 781 q 168 726 168 750 q 184 689 168 704 q 221 674 200 674 q 260 689 244 674 q 275 726 275 704 m 269 565 q 254 604 269 589 q 215 619 239 619 q 178 606 194 619 q 163 565 163 593 q 178 528 163 543 q 215 513 194 513 q 254 528 239 513 q 269 565 269 543 m 514 500 q 499 542 514 529 q 460 554 483 554 q 423 539 439 554 q 407 500 407 524 q 423 463 407 478 q 460 447 439 447 q 499 463 483 447 q 514 500 514 478 m 631 407 q 615 449 631 436 q 576 461 600 461 q 540 446 556 461 q 524 407 524 431 q 540 369 524 385 q 576 354 556 354 q 615 369 600 354 q 631 407 631 385 m 839 832 q 824 874 839 861 q 785 886 808 886 q 748 871 764 886 q 732 832 732 856 q 748 794 732 810 q 785 779 764 779 q 824 794 808 779 q 839 832 839 810 m 843 667 q 828 708 843 696 q 789 721 813 721 q 752 706 768 721 q 736 667 736 690 q 752 629 736 644 q 789 614 768 614 q 828 626 813 614 q 843 667 843 639 m 843 507 q 828 549 843 536 q 789 561 813 561 q 752 546 768 561 q 736 507 736 531 q 752 469 736 485 q 789 454 768 454 q 828 467 813 454 q 843 507 843 479 m 846 361 q 831 403 846 390 q 792 415 815 415 q 755 400 771 415 q 739 361 739 385 q 755 324 739 339 q 792 308 771 308 q 831 324 815 308 q 846 361 846 339 m 851 190 q 836 232 851 219 q 797 244 821 244 q 760 229 776 244 q 744 190 744 214 q 760 153 744 168 q 797 138 776 138 q 836 153 821 138 q 851 190 851 168 "},"O":{"ha":1197,"x_min":53,"x_max":1114,"o":"m 783 471 q 764 373 783 418 q 711 294 744 328 q 633 242 678 261 q 536 222 588 222 q 406 258 463 222 q 383 365 383 310 q 403 463 383 417 q 456 544 422 510 q 536 598 490 578 q 635 618 582 618 q 754 588 697 618 q 783 471 783 535 m 536 953 q 348 915 436 953 q 194 812 260 878 q 90 658 128 746 q 53 471 53 571 q 99 260 53 357 q 226 97 146 164 l 283 38 q 440 -74 350 -33 q 635 -114 531 -114 q 821 -76 733 -114 q 974 26 908 -39 q 1076 178 1039 90 q 1114 365 1114 265 q 1079 544 1114 461 q 985 690 1044 626 l 933 744 q 763 897 867 840 q 536 953 660 953 m 536 940 q 719 903 633 940 q 869 803 806 867 q 970 653 933 739 q 1007 471 1007 568 q 970 286 1007 372 q 869 137 933 200 q 719 37 806 74 q 536 0 633 0 q 352 37 438 0 q 203 137 267 74 q 102 286 139 200 q 65 471 65 372 q 102 653 65 568 q 203 803 139 739 q 352 903 267 867 q 536 940 438 940 m 796 471 q 776 572 796 525 q 720 655 756 619 q 638 711 685 690 q 536 732 590 732 q 434 711 482 732 q 351 655 386 690 q 297 572 317 619 q 276 471 276 525 q 297 369 276 417 q 351 285 317 321 q 434 230 386 250 q 536 210 482 210 q 638 230 590 210 q 720 285 685 250 q 776 369 756 321 q 796 471 796 417 m 536 924 q 713 888 629 924 q 857 791 796 853 q 954 647 918 729 q 990 471 990 564 q 954 293 990 376 q 857 149 918 210 q 713 52 796 88 q 536 17 629 17 q 359 52 442 17 q 215 149 276 88 q 117 293 153 210 q 82 471 82 376 q 117 647 82 564 q 215 791 153 729 q 359 888 276 853 q 536 924 442 924 m 813 471 q 791 578 813 528 q 732 667 769 629 q 644 726 694 704 q 536 749 594 749 q 427 726 478 749 q 340 667 376 704 q 281 578 303 629 q 260 471 260 528 q 281 362 260 413 q 340 274 303 311 q 427 215 376 236 q 536 193 478 193 q 644 215 594 193 q 732 274 694 236 q 791 362 769 311 q 813 471 813 413 m 611 832 q 596 874 611 861 q 557 886 581 886 q 520 871 536 886 q 504 832 504 856 q 520 794 504 810 q 557 779 536 779 q 596 794 581 779 q 611 832 611 810 m 749 799 q 733 840 749 828 q 694 853 718 853 q 658 838 674 853 q 642 799 642 822 q 658 761 642 776 q 694 746 674 746 q 733 761 718 746 q 749 799 749 776 m 861 703 q 846 744 861 732 q 807 757 831 757 q 770 742 786 757 q 754 703 754 726 q 770 665 754 681 q 807 650 786 650 q 846 665 831 650 q 861 703 861 681 m 936 578 q 921 619 936 607 q 882 632 906 632 q 845 617 861 632 q 829 578 829 601 q 845 540 829 556 q 882 525 861 525 q 921 540 906 525 q 936 578 936 556 m 949 428 q 933 469 949 457 q 894 482 918 482 q 858 467 874 482 q 842 428 842 451 q 858 390 842 406 q 894 375 874 375 q 933 390 918 375 q 949 428 949 406 m 903 286 q 888 328 903 315 q 849 340 872 340 q 812 325 828 340 q 796 286 796 310 q 812 249 796 264 q 849 233 828 233 q 888 249 872 233 q 903 286 903 264 m 803 186 q 788 228 803 215 q 749 240 772 240 q 712 225 728 240 q 696 186 696 210 q 712 149 696 164 q 749 133 728 133 q 788 149 772 133 q 803 186 803 164 m 682 115 q 667 157 682 144 q 628 169 651 169 q 591 154 607 169 q 575 115 575 139 q 591 78 575 93 q 628 63 607 63 q 667 78 651 63 q 682 115 682 93 m 536 111 q 521 153 536 140 q 482 165 506 165 q 445 150 461 165 q 429 111 429 135 q 445 74 429 89 q 482 58 461 58 q 521 74 506 58 q 536 111 536 89 m 403 153 q 388 194 403 182 q 349 207 372 207 q 312 192 328 207 q 296 153 296 176 q 312 115 296 131 q 349 100 328 100 q 388 115 372 100 q 403 153 403 131 m 299 244 q 283 286 299 274 q 244 299 268 299 q 208 283 224 299 q 192 244 192 268 q 208 207 192 222 q 244 192 224 192 q 283 207 268 192 q 299 244 299 222 m 235 371 q 219 413 235 400 q 181 425 204 425 q 144 410 160 425 q 128 371 128 394 q 144 333 128 349 q 181 318 160 318 q 219 333 204 318 q 235 371 235 349 m 222 513 q 207 554 222 542 q 168 567 192 567 q 131 551 147 567 q 115 513 115 536 q 131 475 115 490 q 168 460 147 460 q 207 475 192 460 q 222 513 222 490 m 260 638 q 244 679 260 667 q 206 692 229 692 q 169 676 185 692 q 153 638 153 661 q 169 600 153 615 q 206 585 185 585 q 244 600 229 585 q 260 638 260 615 m 347 746 q 332 788 347 775 q 293 800 317 800 q 256 785 272 800 q 240 746 240 769 q 256 708 240 724 q 293 693 272 693 q 332 708 317 693 q 347 746 347 724 m 472 814 q 457 856 472 843 q 418 868 442 868 q 381 853 397 868 q 365 814 365 838 q 381 776 365 792 q 418 761 397 761 q 457 776 442 761 q 472 814 472 792 "},"P":{"ha":1006,"x_min":101,"x_max":942,"o":"m 847 746 l 838 756 l 788 810 l 788 811 q 674 917 743 878 q 514 956 606 956 l 101 956 l 101 -12 l 110 -12 l 204 -114 l 431 -114 l 431 135 l 613 135 q 753 160 692 135 q 856 233 814 186 q 920 347 899 281 q 942 493 942 413 q 917 633 942 568 q 847 746 892 697 m 514 249 l 324 249 l 324 0 l 204 0 l 114 0 l 114 943 l 514 943 q 668 906 601 943 q 778 803 735 869 q 835 599 835 717 q 813 456 835 521 q 751 346 792 392 q 651 274 711 300 q 514 249 590 249 m 615 665 q 574 719 600 700 q 514 738 547 738 l 322 738 l 322 456 l 514 456 q 597 504 565 456 q 628 604 628 547 q 615 665 628 638 m 514 468 l 435 468 l 433 471 l 433 600 l 572 600 q 588 597 579 600 q 601 592 594 594 q 614 582 607 589 q 581 504 607 540 q 514 468 556 468 m 764 794 l 764 793 q 660 891 724 856 q 514 926 597 926 l 131 926 l 131 17 l 307 17 l 307 265 l 514 265 q 643 290 586 265 q 739 358 700 314 q 798 463 778 401 q 818 599 818 524 q 804 706 818 657 q 764 794 790 754 m 776 669 q 761 632 776 647 q 722 617 746 617 q 685 632 701 617 q 669 669 669 647 q 685 708 669 693 q 722 724 701 724 q 761 708 746 724 q 776 669 776 693 m 643 849 q 682 833 667 849 q 697 794 697 818 q 682 757 697 772 q 643 742 667 742 q 606 757 622 742 q 590 794 590 772 q 606 833 590 818 q 643 849 622 849 m 506 890 q 544 875 529 890 q 560 836 560 860 q 544 799 560 814 q 506 783 529 783 q 469 799 485 783 q 453 836 453 814 q 469 875 453 860 q 506 890 485 890 m 372 890 q 411 875 396 890 q 426 836 426 860 q 411 799 426 814 q 372 783 396 783 q 335 799 351 783 q 319 836 319 814 q 335 875 319 860 q 372 890 351 890 m 226 892 q 265 876 250 892 q 281 838 281 861 q 265 800 281 815 q 226 785 250 785 q 190 800 206 785 q 174 838 174 815 q 190 876 174 861 q 226 892 206 892 m 222 50 q 185 65 201 50 q 169 103 169 81 q 185 142 169 126 q 222 157 201 157 q 261 142 246 157 q 276 103 276 126 q 261 65 276 81 q 222 50 246 50 m 226 189 q 190 204 206 189 q 174 242 174 219 q 190 281 174 265 q 226 296 206 296 q 265 281 250 296 q 281 242 281 265 q 265 204 281 219 q 226 189 250 189 m 226 331 q 190 346 206 331 q 174 383 174 361 q 190 422 174 407 q 226 438 206 438 q 265 422 250 438 q 281 383 281 407 q 265 346 281 361 q 226 331 250 331 m 231 481 q 194 496 210 481 q 178 533 178 511 q 194 572 178 557 q 231 588 210 588 q 269 572 254 588 q 285 533 285 557 q 269 496 285 511 q 231 481 254 481 m 231 626 q 194 642 210 626 q 178 679 178 657 q 194 718 178 703 q 231 733 210 733 q 269 718 254 733 q 285 679 285 703 q 269 642 285 657 q 231 626 254 626 m 383 306 q 347 321 363 306 q 331 358 331 336 q 347 397 331 382 q 383 413 363 413 q 422 397 407 413 q 438 358 438 382 q 422 321 438 336 q 383 306 407 306 m 531 303 q 494 318 510 303 q 478 356 478 333 q 494 394 478 379 q 531 410 510 410 q 569 394 554 410 q 585 356 585 379 q 569 318 585 333 q 531 303 554 303 m 514 439 l 306 439 l 306 754 l 514 754 q 583 732 553 754 q 631 672 614 710 q 644 604 644 643 q 611 494 644 542 q 567 453 593 467 q 514 439 542 439 m 660 367 q 623 382 639 367 q 607 419 607 397 q 623 458 607 443 q 660 474 639 474 q 699 458 683 474 q 714 419 714 443 q 699 382 714 397 q 660 367 683 367 m 722 483 q 685 499 701 483 q 669 536 669 514 q 685 575 669 560 q 722 590 701 590 q 761 575 746 590 q 776 536 776 560 q 761 499 776 514 q 722 483 746 483 "},"Q":{"ha":1214,"x_min":53,"x_max":1131,"o":"m 451 199 l 453 197 q 451 199 453 197 m 385 374 q 388 412 385 393 q 397 449 390 431 l 506 303 q 535 263 521 282 q 565 225 550 244 q 551 224 557 224 q 536 224 544 224 q 468 233 500 224 q 408 261 436 243 q 385 374 385 310 m 692 446 l 669 475 l 408 475 q 506 581 440 540 q 646 622 571 622 q 708 613 678 622 q 765 589 738 604 q 790 532 781 561 q 799 471 799 503 q 768 363 799 415 l 767 365 l 692 446 m 244 92 l 293 40 q 445 -72 358 -31 q 632 -114 532 -114 q 723 -105 679 -114 q 810 -81 767 -96 l 842 -114 l 1118 -114 l 1003 46 q 1098 190 1065 110 q 1131 361 1131 269 q 1094 538 1131 453 q 994 689 1057 622 l 943 742 q 865 829 910 789 q 770 898 821 869 q 663 942 719 926 q 547 958 606 958 q 362 922 451 958 q 203 820 272 885 q 94 669 135 756 q 53 483 53 582 q 105 265 53 368 q 244 92 157 163 m 894 153 l 1003 0 l 747 0 l 718 38 q 628 10 674 19 q 533 0 582 0 q 352 40 438 0 q 203 147 267 81 q 102 301 139 214 q 65 483 65 389 q 106 664 65 579 q 213 811 146 749 q 367 910 281 874 q 547 946 454 946 q 727 906 640 946 q 879 800 814 867 q 984 647 944 733 q 1024 467 1024 560 q 990 295 1024 374 q 894 153 957 217 m 664 463 l 764 331 q 799 397 786 363 q 811 471 811 432 q 790 571 811 522 q 731 656 768 619 q 647 714 694 692 q 547 736 599 736 q 446 716 494 736 q 360 660 397 696 q 300 578 322 625 q 278 479 278 532 q 298 378 278 426 q 353 292 318 329 q 435 233 389 256 q 536 211 482 211 q 585 217 563 211 l 404 463 l 664 463 m 872 154 l 969 17 l 754 17 l 724 57 q 628 27 675 38 q 533 17 581 17 q 358 56 440 17 q 215 159 276 94 q 117 308 153 224 q 82 483 82 392 q 121 658 82 576 q 224 799 160 739 q 373 894 289 860 q 547 929 457 929 q 721 891 638 929 q 867 789 804 853 q 969 641 931 725 q 1007 467 1007 557 q 972 299 1007 376 q 872 154 938 221 m 657 446 l 764 301 q 810 387 793 344 q 828 471 828 429 q 805 577 828 526 q 743 667 782 628 q 653 729 704 706 q 547 753 603 753 q 440 731 492 753 q 349 672 389 710 q 285 585 310 635 q 261 479 261 535 q 283 372 261 424 q 342 281 304 321 q 429 218 379 242 q 536 194 479 194 q 570 197 551 194 q 614 206 589 199 q 527 325 574 263 q 438 446 481 388 l 657 446 m 861 103 q 846 144 861 132 q 807 157 831 157 q 770 142 786 157 q 754 103 754 126 q 770 65 754 81 q 807 50 786 50 q 846 65 831 50 q 861 103 861 81 m 753 236 q 738 278 753 265 q 699 290 722 290 q 662 275 678 290 q 646 236 646 260 q 662 199 646 214 q 699 183 678 183 q 738 199 722 183 q 753 236 753 214 m 656 363 q 640 404 656 392 q 601 417 625 417 q 565 401 581 417 q 549 363 549 386 q 565 325 549 340 q 601 310 581 310 q 640 325 625 310 q 656 363 656 340 m 890 261 q 875 303 890 290 q 836 315 860 315 q 799 300 815 315 q 783 261 783 285 q 799 224 783 239 q 836 208 815 208 q 875 224 860 208 q 890 261 890 239 m 961 399 q 946 440 961 428 q 907 453 931 453 q 870 438 886 453 q 854 399 854 422 q 870 361 854 376 q 907 346 886 346 q 946 361 931 346 q 961 399 961 376 m 965 536 q 950 578 965 565 q 911 590 935 590 q 874 575 890 590 q 858 536 858 560 q 874 499 858 514 q 911 483 890 483 q 950 499 935 483 q 965 536 965 514 m 915 671 q 900 713 915 700 q 861 725 885 725 q 824 710 840 725 q 808 671 808 694 q 824 633 808 649 q 861 618 840 618 q 900 633 885 618 q 915 671 915 649 m 814 763 q 799 804 814 792 q 760 817 783 817 q 723 801 739 817 q 707 763 707 786 q 723 725 707 740 q 760 710 739 710 q 799 725 783 710 q 814 763 814 740 m 689 829 q 674 871 689 858 q 635 883 658 883 q 598 868 614 883 q 582 829 582 853 q 598 792 582 807 q 635 776 614 776 q 674 792 658 776 q 689 829 689 807 m 544 828 q 529 869 544 857 q 490 882 514 882 q 453 867 469 882 q 438 828 438 851 q 453 790 438 806 q 490 775 469 775 q 529 790 514 775 q 544 828 544 806 m 415 794 q 400 836 415 824 q 361 849 385 849 q 324 833 340 849 q 308 794 308 818 q 324 757 308 772 q 361 742 340 742 q 400 757 385 742 q 415 794 415 772 m 301 713 q 286 754 301 742 q 247 767 271 767 q 210 751 226 767 q 194 713 194 736 q 210 675 194 690 q 247 660 226 660 q 286 675 271 660 q 301 713 301 690 m 243 579 q 228 621 243 608 q 189 633 213 633 q 152 618 168 633 q 136 579 136 603 q 152 542 136 557 q 189 526 168 526 q 228 542 213 526 q 243 579 243 557 m 226 438 q 211 479 226 467 q 172 492 196 492 q 135 476 151 492 q 119 438 119 461 q 135 400 119 415 q 172 385 151 385 q 211 400 196 385 q 226 438 226 415 m 272 304 q 257 346 272 333 q 218 358 242 358 q 181 343 197 358 q 165 304 165 328 q 181 267 165 282 q 218 251 197 251 q 257 267 242 251 q 272 304 272 282 m 372 183 q 357 225 372 213 q 318 238 342 238 q 281 222 297 238 q 265 183 265 207 q 281 146 265 161 q 318 131 297 131 q 357 146 342 131 q 372 183 372 161 m 497 117 q 482 158 497 146 q 443 171 467 171 q 406 156 422 171 q 390 117 390 140 q 406 79 390 94 q 443 64 422 64 q 482 79 467 64 q 497 117 497 94 m 660 113 q 644 154 660 142 q 606 167 629 167 q 569 151 585 167 q 553 113 553 136 q 569 75 553 90 q 606 60 585 60 q 644 75 629 60 q 660 113 660 90 "},"R":{"ha":988,"x_min":101,"x_max":938,"o":"m 533 688 l 532 689 q 533 688 532 689 m 429 494 l 429 621 l 554 621 l 554 610 q 527 528 554 563 q 454 494 500 494 l 429 494 m 454 956 l 101 956 l 101 -12 l 110 -12 l 204 -114 l 429 -114 l 429 139 l 560 -12 l 565 -12 l 660 -114 l 938 -114 q 815 33 879 -43 q 692 179 751 108 q 844 299 790 213 q 897 504 897 386 q 874 635 897 575 q 808 739 850 694 l 747 803 q 625 915 701 874 q 454 956 549 956 m 114 943 l 454 943 q 586 919 525 943 q 693 850 647 894 q 765 744 739 806 q 790 610 790 683 q 735 404 790 490 q 578 289 679 318 l 821 0 l 565 0 l 322 283 l 322 0 l 114 0 l 114 943 m 322 735 l 322 482 l 454 482 q 537 519 507 482 q 567 610 567 557 q 537 697 567 660 q 454 735 507 735 l 322 735 m 131 926 l 454 926 q 579 903 521 926 q 681 838 638 879 q 749 738 724 796 q 774 610 774 679 q 715 414 774 497 q 549 299 657 331 l 785 17 l 574 17 l 306 329 l 306 17 l 131 17 l 131 926 m 306 751 l 306 465 l 454 465 q 549 508 514 465 q 583 610 583 550 q 574 663 583 638 q 549 708 565 689 q 508 740 532 728 q 454 751 483 751 l 306 751 m 275 103 q 260 142 275 126 q 221 157 244 157 q 184 142 200 157 q 168 103 168 126 q 184 65 168 81 q 221 50 200 50 q 260 65 244 50 q 275 103 275 81 m 279 242 q 264 281 279 265 q 225 296 249 296 q 188 281 204 296 q 172 242 172 265 q 188 204 172 219 q 225 189 204 189 q 264 204 249 189 q 279 242 279 219 m 279 383 q 264 422 279 407 q 225 438 249 438 q 188 422 204 438 q 172 383 172 407 q 188 346 172 361 q 225 331 204 331 q 264 346 249 331 q 279 383 279 361 m 283 533 q 268 572 283 557 q 229 588 253 588 q 192 572 208 588 q 176 533 176 557 q 192 496 176 511 q 229 481 208 481 q 268 496 253 481 q 283 533 283 511 m 283 679 q 268 718 283 703 q 229 733 253 733 q 192 718 208 733 q 176 679 176 703 q 192 642 176 657 q 229 626 208 626 q 268 642 253 626 q 283 679 283 657 m 279 838 q 264 876 279 861 q 225 892 249 892 q 188 876 204 892 q 172 838 172 861 q 188 800 172 815 q 225 785 204 785 q 264 800 249 785 q 279 838 279 815 m 414 844 q 399 883 414 868 q 360 899 383 899 q 323 883 339 899 q 307 844 307 868 q 323 807 307 822 q 360 792 339 792 q 399 807 383 792 q 414 844 414 822 m 568 828 q 553 867 568 851 q 514 882 538 882 q 477 867 493 882 q 461 828 461 851 q 477 790 461 806 q 514 775 493 775 q 553 790 538 775 q 568 828 568 806 m 689 763 q 674 801 689 786 q 635 817 658 817 q 598 801 614 817 q 582 763 582 786 q 598 725 582 740 q 635 710 614 710 q 674 725 658 710 q 689 763 689 740 m 735 626 q 719 665 735 650 q 681 681 704 681 q 644 665 660 681 q 628 626 628 650 q 644 589 628 604 q 681 574 660 574 q 719 589 704 574 q 735 626 735 604 m 704 497 q 689 536 704 521 q 650 551 674 551 q 613 536 629 551 q 597 497 597 521 q 613 460 597 475 q 650 444 629 444 q 689 460 674 444 q 704 497 704 475 m 604 404 q 589 443 604 428 q 550 458 574 458 q 513 443 529 458 q 497 404 497 428 q 513 367 497 382 q 550 351 529 351 q 589 367 574 351 q 604 404 604 382 m 426 385 q 411 424 426 408 q 372 439 396 439 q 335 424 351 439 q 319 385 319 408 q 335 347 319 363 q 372 332 351 332 q 411 347 396 332 q 426 385 426 363 m 503 283 q 488 322 503 307 q 449 338 472 338 q 412 322 428 338 q 396 283 396 307 q 412 246 396 261 q 449 231 428 231 q 488 246 472 231 q 503 283 503 261 m 679 89 q 664 128 679 113 q 625 143 649 143 q 588 128 604 143 q 572 89 572 113 q 588 51 572 67 q 625 36 604 36 q 664 51 649 36 q 679 89 679 67 m 592 188 q 576 226 592 211 q 538 242 561 242 q 501 226 517 242 q 485 188 485 211 q 501 150 485 165 q 538 135 517 135 q 576 150 561 135 q 592 188 592 165 "},"S":{"ha":963,"x_min":46,"x_max":894,"o":"m 835 339 l 767 411 q 661 508 726 471 q 528 581 596 546 l 507 589 l 490 596 q 483 599 488 597 q 474 603 479 600 q 492 615 481 610 q 518 621 503 621 q 565 615 536 621 q 624 599 593 610 q 684 572 654 589 q 735 535 714 556 l 883 701 l 788 804 l 790 807 q 712 871 754 843 q 626 918 669 899 q 538 947 582 938 q 457 957 494 957 q 318 940 383 957 q 205 887 253 922 q 129 799 157 851 q 101 675 101 746 q 123 581 101 621 q 179 508 144 540 l 214 472 l 247 438 l 246 438 l 249 435 q 256 428 251 431 l 261 422 q 353 352 299 381 q 467 299 408 324 l 468 297 l 540 263 q 507 231 533 240 q 446 221 481 221 q 406 225 429 221 q 356 239 382 229 q 306 263 331 249 q 261 299 281 278 q 251 312 256 306 q 242 325 246 318 l 46 193 q 85 143 64 167 q 129 100 106 119 l 140 88 l 142 86 l 196 29 q 351 -80 267 -46 q 518 -114 435 -114 q 670 -94 601 -114 q 789 -36 739 -75 q 867 60 839 3 q 894 190 894 117 q 878 274 894 238 q 835 339 863 310 m 419 0 q 285 22 353 0 q 156 90 218 44 q 63 189 104 131 l 236 308 q 297 251 258 274 q 308 244 301 246 q 383 217 344 225 q 446 208 422 208 q 524 226 492 208 q 556 279 556 243 l 556 285 q 535 318 553 301 q 491 350 517 335 q 434 381 465 365 q 374 410 403 396 q 293 449 333 429 q 218 492 253 468 q 143 566 172 524 q 114 675 114 608 q 141 794 114 743 q 215 878 168 844 q 324 928 261 911 q 457 944 386 944 q 536 935 494 944 q 619 909 578 926 q 701 866 661 892 q 774 807 740 840 l 760 792 l 636 651 q 586 688 615 672 q 526 713 557 703 q 466 729 494 724 q 419 735 438 735 q 371 716 389 735 q 353 678 353 697 q 366 651 353 664 q 400 626 379 638 l 400 625 l 467 593 q 494 582 481 588 q 522 569 507 576 q 591 535 556 553 q 659 498 626 518 q 718 453 692 478 q 761 399 744 429 q 788 296 788 354 q 760 169 788 224 q 684 76 733 114 q 567 19 635 39 q 419 0 500 0 m 747 390 q 708 439 732 417 q 656 479 685 461 q 597 513 628 497 q 535 544 565 529 l 515 554 l 517 554 q 486 567 503 560 q 456 581 469 575 l 392 611 q 352 642 368 625 q 336 678 336 658 q 359 726 336 701 q 419 751 382 751 q 465 747 438 751 q 522 733 492 743 q 581 710 551 724 q 635 675 611 696 l 747 803 l 751 806 q 683 857 719 835 q 607 895 646 879 q 530 919 568 911 q 457 928 492 928 q 330 912 389 928 q 226 865 271 896 q 156 786 182 833 q 131 675 131 739 q 158 575 131 615 q 228 506 185 535 q 297 465 260 483 q 372 429 335 447 l 381 425 l 379 425 l 399 417 q 457 388 428 403 q 510 358 486 374 q 551 324 535 342 q 572 288 568 307 l 572 279 q 535 213 572 235 q 446 192 499 192 q 379 201 421 192 q 301 229 338 210 l 289 236 q 232 285 254 254 l 86 185 q 165 104 119 140 q 290 39 224 61 q 419 17 357 17 q 560 35 496 17 q 672 88 625 53 q 745 176 719 124 q 771 296 771 228 q 747 390 771 350 m 619 846 q 658 833 643 846 q 674 792 674 821 q 658 754 674 769 q 619 739 643 739 q 583 754 599 739 q 567 792 567 769 q 583 831 567 815 q 619 846 599 846 m 485 879 q 524 867 508 879 q 539 825 539 854 q 524 788 539 803 q 485 772 508 772 q 448 788 464 772 q 432 825 432 803 q 448 864 432 849 q 485 879 464 879 m 343 879 q 382 867 367 879 q 397 825 397 854 q 382 788 397 803 q 343 772 367 772 q 306 788 322 772 q 290 825 290 803 q 306 864 290 849 q 343 879 322 879 m 186 742 q 202 781 186 765 q 239 796 218 796 q 278 783 263 796 q 293 742 293 771 q 278 704 293 719 q 239 689 263 689 q 202 704 218 689 q 186 742 186 719 m 257 554 q 220 569 236 554 q 204 607 204 585 q 220 646 204 631 q 257 661 236 661 q 296 649 281 661 q 311 607 311 636 q 296 569 311 585 q 257 554 281 554 m 369 475 q 333 490 349 475 q 317 528 317 506 q 333 567 317 551 q 369 582 349 582 q 408 569 393 582 q 424 528 424 557 q 408 490 424 506 q 369 475 393 475 m 494 413 q 458 428 474 413 q 442 465 442 443 q 458 504 442 489 q 494 519 474 519 q 533 507 518 519 q 549 465 549 494 q 533 428 549 443 q 494 413 518 413 m 558 399 q 574 438 558 422 q 611 453 590 453 q 650 440 635 453 q 665 399 665 428 q 650 361 665 376 q 611 346 635 346 q 574 361 590 346 q 558 399 558 376 m 218 122 q 181 138 197 122 q 165 175 165 153 q 181 214 165 199 q 218 229 197 229 q 257 217 242 229 q 272 175 272 204 q 257 138 272 153 q 218 122 242 122 m 338 61 q 301 76 317 61 q 285 114 285 92 q 301 153 285 138 q 338 168 317 168 q 376 156 361 168 q 392 114 392 143 q 376 76 392 92 q 338 61 361 61 m 469 51 q 433 67 449 51 q 417 104 417 82 q 433 143 417 128 q 469 158 449 158 q 508 146 493 158 q 524 104 524 133 q 508 67 524 82 q 469 51 493 51 m 603 92 q 566 107 582 92 q 550 144 550 122 q 566 183 550 168 q 603 199 582 199 q 642 186 626 199 q 657 144 657 174 q 642 107 657 122 q 603 92 626 92 m 661 208 q 624 224 640 208 q 608 261 608 239 q 624 300 608 285 q 661 315 640 315 q 700 303 685 315 q 715 261 715 290 q 700 224 715 239 q 661 208 685 208 "},"T":{"ha":919,"x_min":28,"x_max":847,"o":"m 28 956 l 28 721 l 36 721 l 131 619 l 264 619 l 264 -12 l 272 -12 l 367 -114 l 593 -114 l 593 619 l 847 619 l 847 846 l 753 947 l 753 956 l 28 956 m 40 733 l 40 943 l 740 943 l 740 733 l 486 733 l 486 0 l 276 0 l 276 733 l 40 733 m 57 750 l 57 926 l 724 926 l 724 750 l 469 750 l 469 17 l 293 17 l 293 750 l 57 750 m 432 104 q 417 143 432 128 q 378 158 401 158 q 341 143 357 158 q 325 104 325 128 q 341 67 325 82 q 378 51 357 51 q 417 67 401 51 q 432 104 432 82 m 436 243 q 421 282 436 267 q 382 297 406 297 q 345 282 361 297 q 329 243 329 267 q 345 206 329 221 q 382 190 361 190 q 421 206 406 190 q 436 243 436 221 m 436 385 q 421 424 436 408 q 382 439 406 439 q 345 424 361 439 q 329 385 329 408 q 345 347 329 363 q 382 332 361 332 q 421 347 406 332 q 436 385 436 363 m 440 535 q 425 574 440 558 q 386 589 410 589 q 349 574 365 589 q 333 535 333 558 q 349 497 333 513 q 386 482 365 482 q 425 497 410 482 q 440 535 440 513 m 440 681 q 425 719 440 704 q 386 735 410 735 q 349 719 365 735 q 333 681 333 704 q 349 643 333 658 q 386 628 365 628 q 425 643 410 628 q 440 681 440 658 m 436 839 q 421 878 436 863 q 382 893 406 893 q 345 878 361 893 q 329 839 329 863 q 345 801 329 817 q 382 786 361 786 q 421 801 406 786 q 436 839 436 817 m 313 835 q 297 874 313 858 q 258 889 282 889 q 222 874 238 889 q 206 835 206 858 q 222 797 206 813 q 258 782 238 782 q 297 797 282 782 q 313 835 313 813 m 188 838 q 172 876 188 861 q 133 892 157 892 q 97 876 113 892 q 81 838 81 861 q 97 800 81 815 q 133 785 113 785 q 174 800 160 785 q 188 838 188 815 m 575 838 q 560 876 575 861 q 521 892 544 892 q 484 876 500 892 q 468 838 468 861 q 484 800 468 815 q 521 785 500 785 q 560 800 544 785 q 575 838 575 815 m 706 835 q 690 874 706 858 q 651 889 675 889 q 615 874 631 889 q 599 835 599 858 q 615 797 599 813 q 651 782 631 782 q 690 797 675 782 q 706 835 706 813 "},"U":{"ha":1117,"x_min":86,"x_max":1008,"o":"m 367 272 l 358 282 l 367 272 m 204 117 l 213 107 l 204 117 m 908 956 l 672 956 l 672 376 q 658 315 672 343 q 619 268 643 288 q 563 238 594 249 q 500 226 532 226 q 421 242 458 226 q 418 256 418 249 q 418 271 418 264 l 418 846 l 324 947 l 324 956 l 89 956 l 86 436 q 86 400 86 421 q 89 364 86 379 q 101 306 93 335 q 119 251 108 278 q 204 117 149 175 l 213 107 q 213 107 232 86 l 303 11 q 433 -81 357 -47 q 599 -114 508 -114 q 883 -16 775 -114 q 1006 258 990 82 q 1008 283 1008 269 q 1008 314 1008 297 q 1008 452 1008 382 q 1008 591 1008 522 q 1006 724 1007 660 q 1003 846 1004 789 l 908 946 l 908 956 m 685 943 l 896 943 q 900 692 899 829 q 901 419 901 556 q 901 390 901 404 q 899 364 901 375 l 899 365 q 779 97 885 193 q 500 0 674 0 q 349 27 418 0 q 228 103 281 54 q 142 219 175 151 q 101 365 110 286 q 99 399 99 381 q 99 436 99 418 l 101 943 l 311 943 l 311 376 q 327 310 311 340 q 370 259 343 281 q 431 226 397 238 q 500 214 464 214 q 567 226 535 214 q 626 259 600 238 q 669 310 653 281 q 685 376 685 340 l 685 943 m 701 926 l 879 926 q 883 684 882 813 q 885 419 885 556 q 885 392 885 406 q 882 368 885 379 q 846 221 875 286 q 767 110 817 156 q 650 41 718 65 q 500 17 582 17 q 356 42 422 17 q 239 115 289 68 q 158 226 189 161 q 118 367 126 290 q 115 400 115 382 q 115 436 115 418 q 117 681 115 558 q 118 926 118 804 l 294 926 l 294 376 q 312 303 294 336 q 358 247 329 271 q 424 210 388 224 q 500 197 461 197 q 574 210 538 197 q 638 247 610 224 q 684 303 667 271 q 701 376 701 336 l 701 926 m 263 840 q 247 879 263 864 q 208 894 232 894 q 172 879 188 894 q 156 840 156 864 q 172 803 156 818 q 208 788 188 788 q 247 803 232 788 q 263 840 263 818 m 258 699 q 243 738 258 722 q 204 753 228 753 q 167 738 183 753 q 151 699 151 722 q 167 661 151 676 q 204 646 183 646 q 243 661 228 646 q 258 699 258 676 m 258 565 q 243 604 258 589 q 204 619 228 619 q 167 604 183 619 q 151 565 151 589 q 167 528 151 543 q 204 513 183 513 q 243 528 228 513 q 258 565 258 543 m 263 432 q 247 471 263 456 q 208 486 232 486 q 172 471 188 486 q 156 432 156 456 q 172 394 156 410 q 208 379 188 379 q 247 394 232 379 q 263 432 263 410 m 283 290 q 268 329 283 314 q 229 344 253 344 q 192 329 208 344 q 176 290 176 314 q 192 253 176 268 q 229 238 208 238 q 268 253 253 238 q 283 290 283 268 m 354 169 q 339 208 354 193 q 300 224 324 224 q 263 208 279 224 q 247 169 247 193 q 263 132 247 147 q 300 117 279 117 q 339 132 324 117 q 354 169 354 147 m 479 115 q 464 154 479 139 q 425 169 449 169 q 388 154 404 169 q 372 115 372 139 q 388 78 372 93 q 425 63 404 63 q 464 78 449 63 q 479 115 479 93 m 617 115 q 601 154 617 139 q 563 169 586 169 q 526 154 542 169 q 510 115 510 139 q 526 78 510 93 q 563 63 542 63 q 601 78 586 63 q 617 115 617 93 m 750 169 q 735 208 750 193 q 696 224 719 224 q 659 208 675 224 q 643 169 643 193 q 659 132 643 147 q 696 117 675 117 q 735 132 719 117 q 750 169 750 147 m 825 283 q 810 322 825 307 q 771 338 794 338 q 734 322 750 338 q 718 283 718 307 q 734 246 718 261 q 771 231 750 231 q 810 246 794 231 q 825 283 825 261 m 854 425 q 839 464 854 449 q 800 479 824 479 q 763 464 779 479 q 747 425 747 449 q 763 388 747 403 q 800 372 779 372 q 839 388 824 372 q 854 425 854 403 m 842 558 q 826 597 842 582 q 788 613 811 613 q 751 597 767 613 q 735 558 735 582 q 751 521 735 536 q 788 506 767 506 q 826 521 811 506 q 842 558 842 536 m 854 696 q 839 735 854 719 q 800 750 824 750 q 763 735 779 750 q 747 696 747 719 q 763 658 747 674 q 800 643 779 643 q 839 658 824 643 q 854 696 854 674 m 858 846 q 843 885 858 869 q 804 900 828 900 q 767 885 783 900 q 751 846 751 869 q 767 808 751 824 q 804 793 783 793 q 843 808 828 793 q 858 846 858 824 "},"V":{"ha":988,"x_min":-4,"x_max":915,"o":"m 415 -112 l 511 -215 l 915 844 l 819 946 l 824 954 l 565 954 l 440 621 l 354 846 l 263 943 l 258 956 l -4 953 l 413 -122 l 415 -112 m 415 515 l 575 942 l 804 942 l 413 -85 l 15 940 l 250 943 l 415 515 m 415 469 l 586 925 l 781 925 l 413 -39 q 317 206 364 86 q 225 443 271 325 q 133 680 179 561 q 39 924 88 799 q 140 925 94 924 q 239 926 186 926 l 415 469 m 414 154 q 453 169 438 154 q 468 207 468 185 q 453 246 468 231 q 414 261 438 261 q 377 246 393 261 q 361 207 361 231 q 377 169 361 185 q 414 154 393 154 m 479 290 q 518 306 503 290 q 533 343 533 321 q 518 382 533 367 q 479 397 503 397 q 442 382 458 397 q 426 343 426 367 q 442 306 426 321 q 479 290 458 290 m 354 293 q 393 308 378 293 q 408 346 408 324 q 393 385 408 369 q 354 400 378 400 q 317 385 333 400 q 301 346 301 369 q 317 308 301 324 q 354 293 333 293 m 304 414 q 343 429 328 414 q 358 467 358 444 q 343 506 358 490 q 304 521 328 521 q 267 506 283 521 q 251 467 251 490 q 267 429 251 444 q 304 414 283 414 m 257 536 q 296 551 281 536 q 311 589 311 567 q 296 628 311 613 q 257 643 281 643 q 220 628 236 643 q 204 589 204 613 q 220 551 204 567 q 257 536 236 536 m 163 796 q 201 811 186 796 q 217 849 217 826 q 201 888 217 872 q 163 903 186 903 q 126 888 142 903 q 110 849 110 872 q 126 811 110 826 q 163 796 142 796 m 215 667 q 254 682 239 667 q 269 719 269 697 q 254 758 269 743 q 215 774 239 774 q 178 758 194 774 q 163 719 163 743 q 178 682 163 697 q 215 667 194 667 m 522 419 q 561 435 546 419 q 576 472 576 450 q 561 511 576 496 q 522 526 546 526 q 485 511 501 526 q 469 472 469 496 q 485 435 469 450 q 522 419 501 419 m 565 549 q 604 564 589 549 q 619 601 619 579 q 604 640 619 625 q 565 656 589 656 q 528 640 544 656 q 513 601 513 625 q 528 564 513 579 q 565 549 544 549 m 617 669 q 656 685 640 669 q 671 722 671 700 q 656 761 671 746 q 617 776 640 776 q 580 761 596 776 q 564 722 564 746 q 580 685 564 700 q 617 669 596 669 m 661 800 q 700 815 685 800 q 715 853 715 831 q 700 892 715 876 q 661 907 685 907 q 624 892 640 907 q 608 853 608 876 q 624 815 608 831 q 661 800 640 800 "},"W":{"ha":1439,"x_min":-4,"x_max":1367,"o":"m 1367 846 l 1271 947 l 1275 956 l 1017 956 l 975 860 l 893 947 l 897 956 l 675 956 l 656 926 l 643 904 l 608 942 l 603 956 l 374 956 q 387 921 379 940 q 404 880 394 901 q 424 837 414 858 q 442 797 433 815 l 507 642 l 471 557 l 350 846 l 260 942 l 254 956 l -4 956 l 446 -106 l 449 -97 l 544 -200 q 622 -14 581 -108 q 704 174 664 81 l 822 -107 l 825 -99 l 921 -201 l 1367 846 m 1256 943 l 822 -74 l 635 369 l 446 -72 l 15 943 l 246 943 l 446 472 q 483 553 465 513 q 521 642 501 593 l 393 943 l 596 943 l 635 858 q 638 865 636 861 q 642 875 639 869 q 655 901 646 885 q 681 943 664 917 l 879 943 l 750 644 l 822 474 l 1025 943 l 1256 943 m 1229 926 l 1036 926 l 822 431 l 732 644 l 853 926 l 690 926 q 666 879 675 901 q 651 840 657 857 q 647 822 649 831 q 642 804 644 813 l 585 926 l 418 926 l 468 808 l 539 642 q 503 558 521 597 q 469 483 486 519 l 444 432 l 235 926 l 40 926 l 446 -29 q 492 80 468 24 q 542 193 517 136 q 590 306 567 250 q 635 413 614 361 l 822 -32 q 1025 447 926 213 q 1229 926 1124 681 m 732 890 q 771 875 756 890 q 786 836 786 860 q 771 799 786 814 q 732 783 756 783 q 695 799 711 783 q 679 836 679 814 q 695 875 679 860 q 732 890 711 890 m 635 779 q 674 764 658 779 q 689 725 689 749 q 674 688 689 703 q 635 672 658 672 q 598 688 614 672 q 582 725 582 703 q 598 764 582 749 q 635 779 614 779 m 535 782 q 498 797 514 782 q 482 835 482 813 q 498 874 482 858 q 535 889 514 889 q 574 874 558 889 q 589 835 589 858 q 574 797 589 813 q 535 782 558 782 m 125 828 q 141 867 125 851 q 178 882 157 882 q 217 867 201 882 q 232 828 232 851 q 217 790 232 806 q 178 775 201 775 q 141 790 157 775 q 125 828 125 806 m 181 710 q 197 749 181 733 q 233 764 213 764 q 272 749 257 764 q 288 710 288 733 q 272 672 288 688 q 233 657 257 657 q 197 672 213 657 q 181 710 181 688 m 226 582 q 242 621 226 606 q 279 636 258 636 q 318 621 303 636 q 333 582 333 606 q 318 544 333 560 q 279 529 303 529 q 242 544 258 529 q 226 582 226 560 m 283 449 q 299 488 283 472 q 336 503 315 503 q 375 488 360 503 q 390 449 390 472 q 375 411 390 426 q 336 396 360 396 q 299 411 315 396 q 283 449 283 426 m 333 315 q 349 354 333 339 q 386 369 365 369 q 425 354 410 369 q 440 315 440 339 q 425 278 440 293 q 386 263 410 263 q 349 278 365 263 q 333 315 333 293 m 449 129 q 412 144 428 129 q 396 182 396 160 q 412 221 396 206 q 449 236 428 236 q 488 221 472 236 q 503 182 503 206 q 488 144 503 160 q 449 129 472 129 m 508 267 q 472 282 488 267 q 456 319 456 297 q 472 358 456 343 q 508 374 488 374 q 547 358 532 374 q 563 319 563 343 q 547 282 563 297 q 508 267 532 267 m 557 414 q 520 429 536 414 q 504 467 504 444 q 520 506 504 490 q 557 521 536 521 q 596 506 581 521 q 611 467 611 490 q 596 429 611 444 q 557 414 581 414 m 578 590 q 594 629 578 614 q 631 644 610 644 q 669 629 654 644 q 685 590 685 614 q 669 553 685 568 q 631 538 654 538 q 594 553 610 538 q 578 590 578 568 m 657 464 q 673 505 657 488 q 711 522 689 522 q 751 505 735 522 q 767 464 767 488 q 751 424 767 440 q 711 408 735 408 q 673 424 689 408 q 657 464 657 440 m 707 319 q 722 360 707 343 q 760 376 736 376 q 796 360 781 376 q 811 319 811 343 q 796 281 811 297 q 760 265 781 265 q 722 281 736 265 q 707 319 707 297 m 824 117 q 784 133 800 117 q 768 172 768 149 q 784 213 768 196 q 824 231 800 231 q 861 213 844 231 q 878 172 878 196 q 861 133 878 149 q 824 117 844 117 m 888 258 q 848 274 864 258 q 832 313 832 289 q 848 353 832 336 q 888 371 864 371 q 924 353 908 371 q 940 313 940 336 q 924 274 940 289 q 888 258 908 258 m 939 397 q 899 413 915 397 q 882 453 882 429 q 899 494 882 476 q 939 511 915 511 q 976 494 961 511 q 992 453 992 476 q 976 413 992 429 q 939 397 961 397 m 997 539 q 956 555 972 539 q 940 594 940 571 q 956 635 940 618 q 997 651 972 651 q 1034 635 1018 651 q 1050 594 1050 618 q 1034 555 1050 571 q 997 539 1018 539 m 1043 672 q 1004 689 1019 672 q 989 729 989 706 q 1004 769 989 753 q 1043 785 1019 785 q 1081 769 1064 785 q 1097 729 1097 753 q 1081 689 1097 706 q 1043 672 1064 672 m 1100 797 q 1060 813 1076 797 q 1044 853 1044 829 q 1060 893 1044 876 q 1100 910 1076 910 q 1137 893 1121 910 q 1153 853 1153 876 q 1137 813 1153 829 q 1100 797 1121 797 "},"X":{"ha":940,"x_min":44,"x_max":906,"o":"m 810 947 l 814 956 l 549 956 q 531 919 540 939 q 510 881 521 900 q 492 848 501 864 q 476 817 483 832 l 447 763 l 446 761 l 401 846 l 314 939 l 306 956 l 44 956 q 172 712 104 840 q 300 467 240 583 l 54 -12 l 65 -12 l 160 -114 l 418 -114 l 504 58 l 542 -12 l 549 -12 l 643 -114 l 897 -114 l 658 361 l 906 846 l 810 947 m 793 943 l 551 467 l 786 0 l 549 0 l 431 231 l 401 174 q 357 86 381 133 q 314 0 333 39 l 75 0 l 313 467 l 65 943 l 299 943 l 429 700 q 494 823 461 761 q 557 943 528 885 l 793 943 m 765 926 l 532 467 q 646 242 586 358 q 760 17 706 125 l 560 17 l 431 268 l 386 181 l 303 17 l 103 17 l 332 468 q 213 697 274 581 q 93 926 151 814 l 288 926 l 429 664 l 503 803 l 568 926 l 765 926 m 285 840 q 269 879 285 864 q 231 894 254 894 q 194 879 210 894 q 178 840 178 864 q 194 803 178 818 q 231 788 210 788 q 269 803 254 788 q 285 840 285 818 m 356 724 q 340 763 356 747 q 301 778 325 778 q 265 763 281 778 q 249 724 249 747 q 265 686 249 701 q 301 671 281 671 q 340 686 325 671 q 356 724 356 701 m 414 599 q 399 638 414 622 q 360 653 383 653 q 323 638 339 653 q 307 599 307 622 q 323 561 307 576 q 360 546 339 546 q 399 561 383 546 q 414 599 414 576 m 489 474 q 474 513 489 497 q 435 528 458 528 q 398 513 414 528 q 382 474 382 497 q 398 436 382 451 q 435 421 414 421 q 474 436 458 421 q 489 474 489 451 m 547 340 q 532 379 547 364 q 493 394 517 394 q 456 379 472 394 q 440 340 440 364 q 456 303 440 318 q 493 288 472 288 q 532 303 517 288 q 547 340 547 318 m 668 103 q 653 142 668 126 q 614 157 638 157 q 577 142 593 157 q 561 103 561 126 q 577 65 561 81 q 614 50 593 50 q 653 65 638 50 q 668 103 668 81 m 610 219 q 594 258 610 243 q 556 274 579 274 q 519 258 535 274 q 503 219 503 243 q 519 182 503 197 q 556 167 535 167 q 594 182 579 167 q 610 219 610 197 m 556 599 q 540 638 556 622 q 501 653 525 653 q 465 638 481 653 q 449 599 449 622 q 465 561 449 576 q 501 546 481 546 q 540 561 525 546 q 556 599 556 576 m 614 715 q 599 754 614 739 q 560 769 583 769 q 523 754 539 769 q 507 715 507 739 q 523 678 507 693 q 560 663 539 663 q 599 678 583 663 q 614 715 614 693 m 685 836 q 669 875 685 860 q 631 890 654 890 q 594 875 610 890 q 578 836 578 860 q 594 799 578 814 q 631 783 610 783 q 669 799 654 783 q 685 836 685 814 m 415 347 q 400 386 415 371 q 361 401 385 401 q 324 386 340 401 q 308 347 308 371 q 324 310 308 325 q 361 294 340 294 q 400 310 385 294 q 415 347 415 325 m 354 226 q 339 265 354 250 q 300 281 324 281 q 263 265 279 281 q 247 226 247 250 q 263 189 247 204 q 300 174 279 174 q 339 189 324 174 q 354 226 354 204 m 297 94 q 282 133 297 118 q 243 149 267 149 q 206 133 222 149 q 190 94 190 118 q 206 57 190 72 q 243 42 222 42 q 282 57 267 42 q 297 94 297 72 "},"Y":{"ha":946,"x_min":-4,"x_max":906,"o":"m 810 947 l 814 956 l 549 956 q 464 810 493 867 q 419 718 435 753 l 353 846 l 265 939 l 257 956 l -4 956 l 285 389 l 285 390 l 289 -12 l 297 -12 l 392 -114 l 622 -114 q 622 -25 622 -78 q 623 84 622 28 q 624 194 624 140 q 624 285 624 247 l 906 846 l 810 947 m 793 943 l 517 392 l 515 0 l 301 0 l 297 392 l 17 943 l 250 943 l 407 642 q 415 669 410 650 q 436 722 421 688 q 479 810 451 756 q 556 943 507 864 l 793 943 m 765 926 l 500 396 q 499 206 500 300 q 499 17 499 113 l 318 17 l 314 396 q 178 661 247 529 q 43 926 110 793 l 239 926 l 407 604 l 424 642 q 435 675 428 654 q 457 729 442 696 q 498 811 472 763 q 564 926 524 860 l 765 926 m 244 836 q 229 875 244 860 q 190 890 214 890 q 153 875 169 890 q 138 836 138 860 q 153 799 138 814 q 190 783 169 783 q 229 799 214 783 q 244 836 244 814 m 308 710 q 293 749 308 733 q 254 764 278 764 q 217 749 233 764 q 201 710 201 733 q 217 672 201 688 q 254 657 233 657 q 293 672 278 657 q 308 710 308 688 m 376 576 q 361 615 376 600 q 322 631 346 631 q 285 615 301 631 q 269 576 269 600 q 285 539 269 554 q 322 524 301 524 q 361 539 346 524 q 376 576 376 554 m 457 436 q 442 475 457 460 q 403 490 426 490 q 366 475 382 490 q 350 436 350 460 q 366 399 350 414 q 403 383 382 383 q 442 399 426 383 q 457 436 457 414 m 549 586 q 533 625 549 610 q 494 640 518 640 q 458 625 474 640 q 442 586 442 610 q 458 549 442 564 q 494 533 474 533 q 533 549 518 533 q 549 586 549 564 m 611 711 q 596 750 611 735 q 557 765 581 765 q 520 750 536 765 q 504 711 504 735 q 520 674 504 689 q 557 658 536 658 q 596 674 581 658 q 611 711 611 689 m 682 840 q 667 879 682 864 q 628 894 651 894 q 591 879 607 894 q 575 840 575 864 q 591 803 575 818 q 628 788 607 788 q 667 803 651 788 q 682 840 682 818 m 453 294 q 438 333 453 318 q 399 349 422 349 q 362 333 378 349 q 346 294 346 318 q 362 257 346 272 q 399 242 378 242 q 438 257 422 242 q 453 294 453 272 m 465 140 q 450 179 465 164 q 411 194 435 194 q 374 179 390 194 q 358 140 358 164 q 374 103 358 118 q 411 88 390 88 q 450 103 435 88 q 465 140 465 118 "},"Z":{"ha":996,"x_min":63,"x_max":943,"o":"m 847 947 l 851 956 l 83 956 l 83 726 l 92 726 l 186 625 l 403 625 l 63 -12 l 74 -12 l 168 -114 l 926 -114 l 926 113 l 832 214 l 832 222 l 607 222 l 943 846 l 847 947 m 831 943 l 436 210 l 819 210 l 819 0 l 83 0 l 478 739 l 96 739 l 96 943 l 831 943 m 803 926 l 407 193 l 803 193 l 803 17 l 111 17 l 507 756 l 113 756 l 113 926 l 803 926 m 261 836 q 246 875 261 860 q 207 890 231 890 q 170 875 186 890 q 154 836 154 860 q 170 799 154 814 q 207 783 186 783 q 246 799 231 783 q 261 836 261 814 m 394 833 q 379 872 394 857 q 340 888 364 888 q 303 872 319 888 q 288 833 288 857 q 303 796 288 811 q 340 781 319 781 q 379 796 364 781 q 394 833 394 811 m 536 833 q 521 872 536 857 q 482 888 506 888 q 445 872 461 888 q 429 833 429 857 q 445 796 429 811 q 482 781 461 781 q 521 796 506 781 q 536 833 536 811 m 690 833 q 675 872 690 857 q 636 888 660 888 q 599 872 615 888 q 583 833 583 857 q 599 796 583 811 q 636 781 615 781 q 675 796 660 781 q 690 833 690 811 m 635 710 q 619 749 635 733 q 581 764 604 764 q 544 749 560 764 q 528 710 528 733 q 544 672 528 688 q 581 657 560 657 q 619 672 604 657 q 635 710 635 688 m 581 593 q 565 632 581 617 q 526 647 550 647 q 490 632 506 647 q 474 593 474 617 q 490 556 474 571 q 526 540 506 540 q 565 556 550 540 q 581 593 581 571 m 499 469 q 483 508 499 493 q 444 524 468 524 q 408 508 424 524 q 392 469 392 493 q 408 432 392 447 q 444 417 424 417 q 483 432 468 417 q 499 469 499 447 m 439 340 q 424 379 439 364 q 385 394 408 394 q 348 379 364 394 q 332 340 332 364 q 348 303 332 318 q 385 288 364 288 q 424 303 408 288 q 439 340 439 318 m 376 228 q 361 267 376 251 q 322 282 346 282 q 285 267 301 282 q 269 228 269 251 q 285 190 269 206 q 322 175 301 175 q 361 190 346 175 q 376 228 376 206 m 315 101 q 300 140 315 125 q 261 156 285 156 q 224 140 240 156 q 208 101 208 125 q 224 64 208 79 q 261 49 240 49 q 300 64 285 49 q 315 101 315 79 m 469 103 q 454 142 469 126 q 415 157 439 157 q 378 142 394 157 q 363 103 363 126 q 378 65 363 81 q 415 50 394 50 q 454 65 439 50 q 469 103 469 81 m 615 99 q 600 138 615 122 q 561 153 585 153 q 524 138 540 153 q 508 99 508 122 q 524 61 508 76 q 561 46 540 46 q 600 61 585 46 q 615 99 615 76 m 774 107 q 758 146 774 131 q 719 161 743 161 q 683 146 699 161 q 667 107 667 131 q 683 69 667 85 q 719 54 699 54 q 758 69 743 54 q 774 107 774 85 "},"a":{"ha":1008,"x_min":19,"x_max":1001,"o":"m 31 -12 l 125 -114 l 369 -114 q 385 -67 376 -93 q 401 -19 393 -42 l 665 -19 l 754 -114 l 1001 -114 l 561 938 l 471 1033 l 463 1054 l 19 -12 l 31 -12 m 264 0 l 39 0 l 463 1021 l 890 0 l 661 0 l 628 94 l 297 94 l 264 0 m 463 503 l 375 292 l 544 293 l 463 503 m 253 17 l 64 17 l 463 976 q 565 731 515 850 q 664 496 615 613 q 763 260 713 379 q 865 17 813 142 l 672 17 l 639 111 l 286 111 q 269 65 279 92 q 253 17 260 39 m 463 547 l 350 275 l 568 276 l 463 547 m 243 103 q 228 142 243 126 q 189 157 213 157 q 152 142 168 157 q 136 103 136 126 q 152 65 136 81 q 189 50 168 50 q 228 65 213 50 q 243 103 243 81 m 297 229 q 282 268 297 253 q 243 283 267 283 q 206 268 222 283 q 190 229 190 253 q 206 192 190 207 q 243 176 222 176 q 282 192 267 176 q 297 229 297 207 m 356 358 q 340 397 356 382 q 301 413 325 413 q 265 397 281 413 q 249 358 249 382 q 265 321 249 336 q 301 306 281 306 q 340 321 325 306 q 356 358 356 336 m 414 486 q 399 525 414 510 q 360 540 383 540 q 323 525 339 540 q 307 486 307 510 q 323 449 307 464 q 360 433 339 433 q 399 449 383 433 q 414 486 414 464 m 464 618 q 449 657 464 642 q 410 672 433 672 q 373 657 389 672 q 357 618 357 642 q 373 581 357 596 q 410 565 389 565 q 449 581 433 565 q 464 618 464 596 m 526 763 q 511 801 526 786 q 472 817 496 817 q 435 801 451 817 q 419 763 419 786 q 435 725 419 740 q 472 710 451 710 q 511 725 496 710 q 526 763 526 740 m 594 618 q 579 657 594 642 q 540 672 564 672 q 503 657 519 672 q 488 618 488 642 q 503 581 488 596 q 540 565 519 565 q 579 581 564 565 q 594 618 594 596 m 631 486 q 615 525 631 510 q 576 540 600 540 q 540 525 556 540 q 524 486 524 510 q 540 449 524 464 q 576 433 556 433 q 615 449 600 433 q 631 486 631 464 m 676 357 q 661 396 676 381 q 622 411 646 411 q 585 396 601 411 q 569 357 569 381 q 585 319 569 335 q 622 304 601 304 q 661 319 646 304 q 676 357 676 335 m 726 228 q 711 267 726 251 q 672 282 696 282 q 635 267 651 282 q 619 228 619 251 q 635 190 619 206 q 672 175 651 175 q 711 190 696 175 q 726 228 726 206 m 797 103 q 782 142 797 126 q 743 157 767 157 q 706 142 722 157 q 690 103 690 126 q 706 65 690 81 q 743 50 722 50 q 782 65 767 50 q 797 103 797 81 m 431 188 q 415 226 431 211 q 376 242 400 242 q 340 226 356 242 q 324 188 324 211 q 340 150 324 165 q 376 135 356 135 q 415 150 400 135 q 431 188 431 165 m 579 196 q 564 235 579 219 q 525 250 549 250 q 488 235 504 250 q 472 196 472 219 q 488 158 472 174 q 525 143 504 143 q 564 158 549 143 q 579 196 579 174 "},"b":{"ha":1050,"x_min":103,"x_max":982,"o":"m 432 583 l 432 626 l 613 626 q 571 592 601 600 q 504 583 540 583 l 432 583 m 432 218 l 432 265 l 647 265 q 606 228 639 238 q 538 218 572 218 l 432 218 m 872 746 l 865 751 l 806 815 l 804 817 q 673 924 758 892 q 486 956 588 956 l 107 956 l 103 -12 l 111 -12 l 206 -114 l 632 -114 q 772 -101 708 -114 q 883 -54 836 -87 q 956 35 929 -21 q 982 178 982 92 q 964 265 982 228 q 919 329 946 301 q 914 335 917 332 q 908 340 911 338 l 878 372 q 927 447 913 406 q 942 546 942 489 q 924 661 942 613 q 872 746 906 710 m 835 651 q 818 551 835 594 q 763 475 801 507 q 802 441 782 460 q 838 399 822 422 q 865 347 854 376 q 875 283 875 318 q 849 145 875 200 q 778 58 824 90 q 671 13 733 25 q 533 0 608 0 l 115 0 l 119 943 l 486 943 q 620 928 557 943 q 731 878 683 913 q 807 788 779 843 q 835 651 835 732 m 631 656 q 619 694 631 678 q 590 721 608 711 q 550 735 572 731 q 506 740 528 740 l 325 740 l 325 571 l 504 571 q 551 574 529 571 q 592 587 574 578 q 620 613 610 596 q 631 656 631 629 m 325 206 l 538 206 q 581 209 558 206 q 621 221 603 213 q 650 244 639 229 q 661 279 661 258 q 631 360 661 340 q 540 379 600 379 l 325 379 l 325 206 m 818 651 q 799 555 818 599 q 736 475 781 511 q 779 439 757 458 q 819 396 801 419 q 847 344 836 372 q 858 283 858 317 q 834 153 858 204 q 767 71 810 101 q 664 28 724 40 q 533 17 604 17 l 132 17 l 136 926 l 486 926 q 613 912 553 926 q 719 865 674 897 q 792 780 765 832 q 818 651 818 728 m 647 656 q 635 703 647 683 q 602 734 622 722 q 556 751 582 746 q 506 757 531 757 l 308 757 l 308 554 l 504 554 q 558 558 532 554 q 603 574 583 563 q 635 604 624 585 q 647 656 647 624 m 308 189 l 538 189 q 588 193 563 189 q 633 208 613 197 q 665 235 653 218 q 678 279 678 253 q 643 373 678 350 q 540 396 608 396 l 308 396 l 308 189 m 278 103 q 263 142 278 126 q 224 157 247 157 q 187 142 203 157 q 171 103 171 126 q 187 65 171 81 q 224 50 203 50 q 263 65 247 50 q 278 103 278 81 m 282 242 q 267 281 282 265 q 228 296 251 296 q 191 281 207 296 q 175 242 175 265 q 191 204 175 219 q 228 189 207 189 q 267 204 251 189 q 282 242 282 219 m 282 383 q 267 422 282 407 q 228 438 251 438 q 191 422 207 438 q 175 383 175 407 q 191 346 175 361 q 228 331 207 331 q 267 346 251 331 q 282 383 282 361 m 286 533 q 271 572 286 557 q 232 588 256 588 q 195 572 211 588 q 179 533 179 557 q 195 496 179 511 q 232 481 211 481 q 271 496 256 481 q 286 533 286 511 m 286 679 q 271 718 286 703 q 232 733 256 733 q 195 718 211 733 q 179 679 179 703 q 195 642 179 657 q 232 626 211 626 q 271 642 256 626 q 286 679 286 657 m 282 838 q 267 876 282 861 q 228 892 251 892 q 191 876 207 892 q 175 838 175 861 q 191 800 175 815 q 228 785 207 785 q 267 800 251 785 q 282 838 282 815 m 424 838 q 408 876 424 861 q 369 892 393 892 q 333 876 349 892 q 317 838 317 861 q 333 800 317 815 q 369 785 349 785 q 408 800 393 785 q 424 838 424 815 m 565 838 q 550 876 565 861 q 511 892 535 892 q 474 876 490 892 q 458 838 458 861 q 474 800 458 815 q 511 785 490 785 q 550 800 535 785 q 565 838 565 815 m 707 799 q 692 838 707 822 q 653 853 676 853 q 616 838 632 853 q 600 799 600 822 q 616 761 600 776 q 653 746 632 746 q 692 761 676 746 q 707 799 707 776 m 790 683 q 775 722 790 707 q 736 738 760 738 q 699 722 715 738 q 683 683 683 707 q 699 646 683 661 q 736 631 715 631 q 775 646 760 631 q 790 683 790 661 m 757 553 q 742 592 757 576 q 703 607 726 607 q 666 592 682 607 q 650 553 650 576 q 666 515 650 531 q 703 500 682 500 q 742 515 726 500 q 757 553 757 531 m 571 472 q 556 511 571 496 q 517 526 540 526 q 480 511 496 526 q 464 472 464 496 q 480 435 464 450 q 517 419 496 419 q 556 435 540 419 q 571 472 571 450 m 428 469 q 413 508 428 493 q 374 524 397 524 q 337 508 353 524 q 321 469 321 493 q 337 432 321 447 q 374 417 353 417 q 413 432 397 417 q 428 469 428 447 m 431 100 q 415 139 431 124 q 376 154 400 154 q 340 139 356 154 q 324 100 324 124 q 340 63 324 78 q 376 47 356 47 q 415 63 400 47 q 431 100 431 78 m 564 100 q 549 139 564 124 q 510 154 533 154 q 473 139 489 154 q 457 100 457 124 q 473 63 457 78 q 510 47 489 47 q 549 63 533 47 q 564 100 564 78 m 706 125 q 690 164 706 149 q 651 179 675 179 q 615 164 631 179 q 599 125 599 149 q 615 88 599 103 q 651 72 631 72 q 690 88 675 72 q 706 125 706 103 m 806 213 q 790 251 806 236 q 751 267 775 267 q 715 251 731 267 q 699 213 699 236 q 715 175 699 190 q 751 160 731 160 q 790 175 775 160 q 806 213 806 190 m 810 346 q 794 385 810 369 q 756 400 779 400 q 719 385 735 400 q 703 346 703 369 q 719 308 703 324 q 756 293 735 293 q 794 308 779 293 q 810 346 810 324 m 711 440 q 696 479 711 464 q 657 494 681 494 q 620 479 636 494 q 604 440 604 464 q 620 403 604 418 q 657 388 636 388 q 696 403 681 388 q 711 440 711 418 "},"c":{"ha":1076,"x_min":56,"x_max":1008,"o":"m 233 94 l 278 47 q 283 42 281 44 q 288 38 285 40 q 444 -74 354 -33 q 639 -114 535 -114 q 827 -70 735 -114 q 1008 57 919 -26 l 913 160 l 915 163 l 746 325 q 638 249 692 276 q 540 222 585 222 q 406 260 464 222 q 385 367 385 307 q 405 465 385 419 q 460 546 425 511 q 541 600 494 581 q 640 619 588 619 q 739 593 686 619 q 844 518 792 567 l 1007 674 l 911 776 l 914 779 q 542 956 733 956 q 352 918 440 956 q 198 815 264 881 q 94 662 132 750 q 56 472 56 574 q 103 258 56 356 q 233 94 150 161 m 746 308 l 899 163 q 724 42 814 83 q 540 0 635 0 q 356 37 442 0 q 206 137 269 74 q 105 286 142 200 q 68 472 68 372 q 105 657 68 571 q 206 806 142 743 q 357 906 271 869 q 542 943 443 943 q 897 779 729 943 l 746 635 q 641 708 693 682 q 542 733 589 733 q 440 713 488 733 q 356 656 392 692 q 299 574 319 621 q 278 472 278 526 q 298 369 278 417 q 353 285 318 321 q 437 230 389 250 q 540 210 485 210 q 640 235 588 210 q 746 308 693 261 m 744 286 l 875 163 q 712 54 796 92 q 540 17 628 17 q 363 52 446 17 q 217 149 279 88 q 120 293 156 210 q 85 472 85 376 q 121 649 85 567 q 219 794 157 732 q 364 891 281 856 q 542 926 447 926 q 872 779 715 926 q 808 717 836 746 q 746 657 781 689 q 642 724 696 699 q 542 750 588 750 q 433 728 483 750 q 344 669 382 707 q 283 581 306 632 q 261 472 261 531 q 283 363 261 414 q 342 274 304 311 q 431 215 379 236 q 540 193 482 193 q 640 219 586 193 q 744 286 694 244 m 793 178 q 778 217 793 201 q 739 232 763 232 q 702 217 718 232 q 686 178 686 201 q 702 140 686 156 q 739 125 718 125 q 778 140 763 125 q 793 178 793 156 m 667 117 q 651 156 667 140 q 613 171 636 171 q 576 156 592 171 q 560 117 560 140 q 576 79 560 94 q 613 64 592 64 q 651 79 636 64 q 667 117 667 94 m 525 113 q 510 151 525 136 q 471 167 494 167 q 434 151 450 167 q 418 113 418 136 q 434 75 418 90 q 471 60 450 60 q 510 75 494 60 q 525 113 525 90 m 383 167 q 368 206 383 190 q 329 221 353 221 q 292 206 308 221 q 276 167 276 190 q 292 129 276 144 q 329 114 308 114 q 368 129 353 114 q 383 167 383 144 m 283 267 q 268 306 283 290 q 229 321 253 321 q 192 306 208 321 q 176 267 176 290 q 192 229 176 244 q 229 214 208 214 q 268 229 253 214 q 283 267 283 244 m 238 396 q 222 435 238 419 q 183 450 207 450 q 147 435 163 450 q 131 396 131 419 q 147 358 131 374 q 183 343 163 343 q 222 358 207 343 q 238 396 238 374 m 229 533 q 214 572 229 557 q 175 588 199 588 q 138 572 154 588 q 122 533 122 557 q 138 496 122 511 q 175 481 154 481 q 214 496 199 481 q 229 533 229 511 m 289 667 q 274 706 289 690 q 235 721 258 721 q 198 706 214 721 q 182 667 182 690 q 198 629 182 644 q 235 614 214 614 q 274 629 258 614 q 289 667 289 644 m 385 775 q 369 814 385 799 q 331 829 354 829 q 294 814 310 829 q 278 775 278 799 q 294 738 278 753 q 331 722 310 722 q 369 738 354 722 q 385 775 385 753 m 518 833 q 503 872 518 857 q 464 888 488 888 q 427 872 443 888 q 411 833 411 857 q 427 796 411 811 q 464 781 443 781 q 503 796 488 781 q 518 833 518 811 m 660 838 q 644 876 660 861 q 606 892 629 892 q 569 876 585 892 q 553 838 553 861 q 569 800 553 815 q 606 785 585 785 q 644 800 629 785 q 660 838 660 815 m 789 779 q 774 818 789 803 q 735 833 758 833 q 698 818 714 833 q 682 779 682 803 q 698 742 682 757 q 735 726 714 726 q 774 742 758 726 q 789 779 789 757 "},"d":{"ha":1119,"x_min":103,"x_max":1036,"o":"m 553 214 q 678 310 629 236 q 708 382 697 342 q 719 464 719 422 q 683 617 719 547 q 501 736 621 729 q 485 736 494 736 q 458 737 476 736 q 408 738 440 738 q 322 738 376 738 l 319 738 l 319 206 l 504 206 q 553 214 519 206 m 433 219 l 433 626 q 466 627 440 626 q 528 622 492 628 q 613 597 565 615 q 697 533 660 578 q 706 464 706 500 q 662 315 706 379 q 547 228 618 250 q 504 219 518 219 l 433 219 m 821 756 q 668 881 761 836 q 457 926 575 926 l 132 926 l 132 17 q 294 16 215 17 q 457 15 374 15 q 644 45 560 15 q 788 133 728 75 q 880 273 847 190 q 913 460 913 356 q 821 756 913 636 m 863 576 q 847 540 863 554 q 808 525 832 525 q 772 540 788 525 q 756 576 756 554 q 772 615 756 600 q 808 631 788 631 q 847 615 832 631 q 863 576 863 600 m 744 754 q 783 739 768 754 q 799 700 799 724 q 783 663 799 678 q 744 649 768 649 q 708 663 724 649 q 692 700 692 678 q 708 739 692 724 q 744 754 724 754 m 629 849 q 668 833 653 849 q 683 794 683 818 q 668 758 683 774 q 629 743 653 743 q 592 758 608 743 q 576 794 576 774 q 592 833 576 818 q 629 849 608 849 m 486 888 q 525 872 510 888 q 540 833 540 857 q 525 797 540 813 q 486 782 510 782 q 449 797 465 782 q 433 833 433 813 q 449 872 433 857 q 486 888 465 888 m 356 888 q 394 872 379 888 q 410 833 410 857 q 394 797 410 813 q 356 782 379 782 q 319 797 335 782 q 303 833 303 813 q 319 872 303 857 q 356 888 335 888 m 303 189 l 306 754 q 394 754 360 754 q 451 753 429 754 q 484 753 472 753 q 503 753 496 753 q 616 717 565 750 q 699 625 667 683 q 736 464 736 556 q 724 377 736 419 q 692 300 713 335 q 633 235 668 261 q 557 197 599 210 q 504 189 524 189 l 303 189 m 225 583 q 264 569 249 583 q 279 531 279 554 q 264 493 279 508 q 225 478 249 478 q 188 493 204 478 q 172 531 172 508 q 188 569 172 554 q 225 583 204 583 m 175 669 q 191 708 175 693 q 228 724 207 724 q 267 708 251 724 q 282 669 282 693 q 267 633 282 649 q 228 618 251 618 q 191 633 207 618 q 175 669 175 649 m 229 42 q 192 57 208 42 q 176 94 176 72 q 192 132 176 117 q 229 147 208 147 q 268 132 253 147 q 283 94 283 117 q 268 57 283 72 q 229 42 253 42 m 229 186 q 192 201 208 186 q 176 238 176 217 q 192 276 176 261 q 229 292 208 292 q 268 276 253 292 q 283 238 283 261 q 268 201 283 217 q 229 186 253 186 m 229 339 q 192 354 208 339 q 176 392 176 369 q 192 429 176 414 q 229 444 208 444 q 268 429 253 444 q 283 392 283 414 q 268 354 283 369 q 229 339 253 339 m 229 772 q 192 788 208 772 q 176 825 176 803 q 192 863 176 849 q 229 878 208 878 q 268 863 253 878 q 283 825 283 849 q 268 788 283 803 q 229 772 253 772 m 354 42 q 317 57 333 42 q 301 94 301 72 q 317 132 301 117 q 354 147 333 147 q 393 132 378 147 q 408 94 408 117 q 393 57 408 72 q 354 42 378 42 m 478 56 q 441 70 457 56 q 425 107 425 85 q 441 146 425 131 q 478 161 457 161 q 517 146 501 161 q 532 107 532 131 q 517 70 532 85 q 478 56 501 56 m 608 83 q 572 98 588 83 q 556 135 556 113 q 572 174 556 158 q 608 189 588 189 q 647 174 632 189 q 663 135 663 158 q 647 98 663 113 q 608 83 632 83 m 728 153 q 691 167 707 153 q 675 204 675 182 q 691 243 675 228 q 728 258 707 258 q 767 243 751 258 q 782 204 782 228 q 767 167 782 182 q 728 153 751 153 m 797 269 q 760 285 776 269 q 744 321 744 300 q 760 360 744 344 q 797 375 776 375 q 836 360 821 375 q 851 321 851 344 q 836 285 851 300 q 797 269 821 269 m 822 397 q 785 413 801 397 q 769 449 769 428 q 785 488 769 472 q 822 503 801 503 q 861 488 846 503 q 876 449 876 472 q 861 413 876 428 q 822 397 846 397 m 906 706 l 904 707 l 901 710 q 900 711 901 710 q 894 717 899 713 q 881 732 890 722 q 856 760 872 742 q 691 903 792 851 q 457 956 590 956 l 103 956 l 103 -12 l 111 -12 l 206 -114 l 556 -115 q 753 -83 664 -115 q 904 9 842 -51 q 1001 156 967 69 q 1036 354 1036 243 q 1003 551 1036 463 q 906 706 969 639 m 457 -1 l 115 0 l 115 943 l 457 943 q 676 896 579 943 q 835 765 772 849 q 905 627 881 703 q 929 460 929 551 q 895 265 929 351 q 799 120 861 179 q 650 30 738 61 q 457 -1 563 -1 "},"e":{"ha":1018,"x_min":103,"x_max":892,"o":"m 433 568 l 433 619 l 892 619 l 892 846 l 797 947 l 797 956 l 103 956 l 103 -12 l 111 -12 l 206 -114 l 892 -114 l 892 113 l 797 214 l 797 222 l 433 222 l 433 243 l 882 243 l 883 458 l 789 560 l 789 568 l 433 568 m 326 357 l 326 210 l 785 210 l 785 0 l 115 0 l 115 943 l 785 943 l 785 733 l 326 733 l 328 556 l 776 556 l 775 357 l 326 357 m 310 374 l 310 193 l 768 193 l 768 17 l 132 17 l 132 926 l 768 926 l 768 750 l 310 750 l 311 539 l 760 539 q 759 456 760 493 q 758 374 758 418 l 310 374 m 278 103 q 263 142 278 126 q 224 157 247 157 q 187 142 203 157 q 171 103 171 126 q 187 65 171 81 q 224 50 203 50 q 263 65 247 50 q 278 103 278 81 m 282 242 q 267 281 282 265 q 228 296 251 296 q 191 281 207 296 q 175 242 175 265 q 191 204 175 219 q 228 189 207 189 q 267 204 251 189 q 282 242 282 219 m 282 383 q 267 422 282 407 q 228 438 251 438 q 191 422 207 438 q 175 383 175 407 q 191 346 175 361 q 228 331 207 331 q 267 346 251 331 q 282 383 282 361 m 286 533 q 271 572 286 557 q 232 588 256 588 q 195 572 211 588 q 179 533 179 557 q 195 496 179 511 q 232 481 211 481 q 271 496 256 481 q 286 533 286 511 m 286 679 q 271 718 286 703 q 232 733 256 733 q 195 718 211 733 q 179 679 179 703 q 195 642 179 657 q 232 626 211 626 q 271 642 256 626 q 286 679 286 657 m 282 838 q 267 876 282 861 q 228 892 251 892 q 191 876 207 892 q 175 838 175 861 q 191 800 175 815 q 228 785 207 785 q 267 800 251 785 q 282 838 282 815 m 415 836 q 400 875 415 860 q 361 890 385 890 q 324 875 340 890 q 308 836 308 860 q 324 799 308 814 q 361 783 340 783 q 400 799 385 783 q 415 836 415 814 m 569 836 q 554 875 569 860 q 515 890 539 890 q 478 875 494 890 q 463 836 463 860 q 478 799 463 814 q 515 783 494 783 q 554 799 539 783 q 569 836 569 814 m 724 838 q 708 876 724 861 q 669 892 693 892 q 633 876 649 892 q 617 838 617 861 q 633 800 617 815 q 669 785 649 785 q 708 800 693 785 q 724 838 724 815 m 411 457 q 396 496 411 481 q 357 511 381 511 q 320 496 336 511 q 304 457 304 481 q 320 419 304 435 q 357 404 336 404 q 396 419 381 404 q 411 457 411 435 m 557 454 q 542 493 557 478 q 503 508 526 508 q 466 493 482 508 q 450 454 450 478 q 466 417 450 432 q 503 401 482 401 q 542 417 526 401 q 557 454 557 432 m 711 458 q 696 497 711 482 q 657 513 681 513 q 620 497 636 513 q 604 458 604 482 q 620 421 604 436 q 657 406 636 406 q 696 421 681 406 q 711 458 711 436 m 732 103 q 717 142 732 126 q 678 157 701 157 q 641 142 657 157 q 625 103 625 126 q 641 65 625 81 q 678 50 657 50 q 717 65 701 50 q 732 103 732 81 m 585 99 q 569 138 585 122 q 531 153 554 153 q 494 138 510 153 q 478 99 478 122 q 494 61 478 76 q 531 46 510 46 q 569 61 554 46 q 585 99 585 76 m 431 99 q 415 138 431 122 q 376 153 400 153 q 340 138 356 153 q 324 99 324 122 q 340 61 324 76 q 376 46 356 46 q 415 61 400 46 q 431 99 431 76 "},"f":{"ha":961,"x_min":103,"x_max":867,"o":"m 103 956 l 103 -12 l 111 -12 l 206 -114 l 433 -114 l 433 215 l 857 215 l 857 443 l 763 544 l 763 553 l 433 553 l 433 619 l 867 619 l 867 846 l 772 947 l 772 956 l 103 956 m 115 0 l 115 943 l 760 943 l 760 733 l 326 733 l 326 540 l 750 540 l 750 329 l 326 329 l 326 0 l 115 0 m 132 17 l 132 926 l 743 926 l 743 750 l 310 750 l 310 524 l 733 524 l 733 346 l 310 346 l 310 17 l 132 17 m 278 103 q 263 142 278 126 q 224 157 247 157 q 187 142 203 157 q 171 103 171 126 q 187 65 171 81 q 224 50 203 50 q 263 65 247 50 q 278 103 278 81 m 282 242 q 267 281 282 265 q 228 296 251 296 q 191 281 207 296 q 175 242 175 265 q 191 204 175 219 q 228 189 207 189 q 267 204 251 189 q 282 242 282 219 m 282 383 q 267 422 282 407 q 228 438 251 438 q 191 422 207 438 q 175 383 175 407 q 191 346 175 361 q 228 331 207 331 q 267 346 251 331 q 282 383 282 361 m 286 533 q 271 572 286 557 q 232 588 256 588 q 195 572 211 588 q 179 533 179 557 q 195 496 179 511 q 232 481 211 481 q 271 496 256 481 q 286 533 286 511 m 286 679 q 271 718 286 703 q 232 733 256 733 q 195 718 211 733 q 179 679 179 703 q 195 642 179 657 q 232 626 211 626 q 271 642 256 626 q 286 679 286 657 m 282 838 q 267 876 282 861 q 228 892 251 892 q 191 876 207 892 q 175 838 175 861 q 191 800 175 815 q 228 785 207 785 q 267 800 251 785 q 282 838 282 815 m 424 832 q 408 871 424 856 q 369 886 393 886 q 333 871 349 886 q 317 832 317 856 q 333 794 317 810 q 369 779 349 779 q 408 794 393 779 q 424 832 424 810 m 565 832 q 550 871 565 856 q 511 886 535 886 q 474 871 490 886 q 458 832 458 856 q 474 794 458 810 q 511 779 490 779 q 550 794 535 779 q 565 832 565 810 m 703 832 q 688 871 703 856 q 649 886 672 886 q 612 871 628 886 q 596 832 596 856 q 612 794 596 810 q 649 779 628 779 q 688 794 672 779 q 703 832 703 810 m 424 432 q 408 471 424 456 q 369 486 393 486 q 333 471 349 486 q 317 432 317 456 q 333 394 317 410 q 369 379 349 379 q 408 394 393 379 q 424 432 424 410 m 565 428 q 550 467 565 451 q 511 482 535 482 q 474 467 490 482 q 458 428 458 451 q 474 390 458 406 q 511 375 490 375 q 550 390 535 375 q 565 428 565 406 m 703 428 q 688 467 703 451 q 649 482 672 482 q 612 467 628 482 q 596 428 596 451 q 612 390 596 406 q 649 375 628 375 q 688 390 672 375 q 703 428 703 406 "},"g":{"ha":1169,"x_min":56,"x_max":1086,"o":"m 540 222 q 407 261 468 222 q 385 367 385 310 q 405 465 385 419 q 460 546 425 511 q 542 600 496 581 q 642 619 589 619 q 709 606 674 619 q 781 568 744 592 l 494 568 l 496 339 l 504 339 l 599 238 l 625 238 q 540 222 583 222 m 232 97 l 278 49 l 279 46 q 283 42 282 43 q 288 39 285 40 q 444 -73 354 -32 q 640 -114 535 -114 q 818 -81 736 -114 q 960 12 900 -47 q 1053 153 1019 71 q 1086 332 1086 235 l 1086 458 l 992 560 l 992 568 l 897 568 l 1010 675 l 914 778 l 917 781 q 543 956 733 956 q 353 918 442 956 q 198 815 264 881 q 94 662 132 750 q 56 472 56 574 q 103 260 56 357 q 232 97 150 164 m 540 210 q 673 248 613 210 q 757 351 733 286 l 508 351 l 507 556 l 979 556 l 979 438 q 947 262 979 342 q 856 124 914 182 q 717 33 797 65 q 542 0 636 0 q 357 37 443 0 q 206 138 271 74 q 105 288 142 201 q 68 472 68 374 q 106 657 68 571 q 208 806 143 743 q 358 906 272 869 q 543 943 444 943 q 900 781 729 943 l 746 635 q 642 708 693 682 q 543 733 592 733 q 441 713 489 733 q 356 656 393 692 q 299 574 319 621 q 278 472 278 526 q 299 369 278 417 q 356 285 319 321 q 439 230 392 250 q 540 210 486 210 m 540 193 q 684 240 618 193 q 781 368 750 288 l 525 368 q 524 454 525 415 q 524 539 524 493 l 963 539 l 963 438 q 931 269 963 346 q 844 135 900 192 q 710 48 788 79 q 542 17 633 17 q 364 52 447 17 q 219 149 281 88 q 121 294 157 211 q 85 472 85 376 q 121 649 85 567 q 219 794 157 732 q 365 891 282 856 q 543 926 449 926 q 875 781 714 926 l 746 657 q 643 724 697 697 q 543 750 589 750 q 434 728 485 750 q 344 669 383 707 q 283 581 306 632 q 261 472 261 531 q 283 363 261 414 q 344 274 306 311 q 433 215 382 236 q 540 193 483 193 m 797 775 q 782 814 797 799 q 743 829 767 829 q 706 814 722 829 q 690 775 690 799 q 706 738 690 753 q 743 722 722 722 q 782 738 767 722 q 797 775 797 753 m 671 829 q 656 868 671 853 q 617 883 640 883 q 580 868 596 883 q 564 829 564 853 q 580 792 564 807 q 617 776 596 776 q 656 792 640 776 q 671 829 671 807 m 526 836 q 511 875 526 860 q 472 890 496 890 q 435 875 451 890 q 419 836 419 860 q 435 799 419 814 q 472 783 451 783 q 511 799 496 783 q 526 836 526 814 m 401 774 q 386 813 401 797 q 347 828 371 828 q 310 813 326 828 q 294 774 294 797 q 310 736 294 751 q 347 721 326 721 q 386 736 371 721 q 401 774 401 751 m 297 682 q 282 721 297 706 q 243 736 267 736 q 206 721 222 736 q 190 682 190 706 q 206 644 190 660 q 243 629 222 629 q 282 644 267 629 q 297 682 297 660 m 239 561 q 224 600 239 585 q 185 615 208 615 q 148 600 164 615 q 132 561 132 585 q 148 524 132 539 q 185 508 164 508 q 224 524 208 508 q 239 561 239 539 m 226 419 q 211 458 226 443 q 172 474 196 474 q 135 458 151 474 q 119 419 119 443 q 135 382 119 397 q 172 367 151 367 q 211 382 196 367 q 226 419 226 397 m 289 278 q 274 317 289 301 q 235 332 258 332 q 198 317 214 332 q 182 278 182 301 q 198 240 182 256 q 235 225 214 225 q 274 240 258 225 q 289 278 289 256 m 381 169 q 365 208 381 193 q 326 224 350 224 q 290 208 306 224 q 274 169 274 193 q 290 132 274 147 q 326 117 306 117 q 365 132 350 117 q 381 169 381 147 m 514 107 q 499 146 514 131 q 460 161 483 161 q 423 146 439 161 q 407 107 407 131 q 423 69 407 85 q 460 54 439 54 q 499 69 483 54 q 514 107 514 85 m 664 117 q 649 156 664 140 q 610 171 633 171 q 573 156 589 171 q 557 117 557 140 q 573 79 557 94 q 610 64 589 64 q 649 79 633 64 q 664 117 664 94 m 797 171 q 782 210 797 194 q 743 225 767 225 q 706 210 722 225 q 690 171 690 194 q 706 133 690 149 q 743 118 722 118 q 782 133 767 118 q 797 171 797 149 m 901 288 q 886 326 901 311 q 847 342 871 342 q 810 326 826 342 q 794 288 794 311 q 810 250 794 265 q 847 235 826 235 q 886 250 871 235 q 901 288 901 265 m 933 444 q 918 483 933 468 q 879 499 903 499 q 842 483 858 499 q 826 444 826 468 q 842 407 826 422 q 879 392 858 392 q 918 407 903 392 q 933 444 933 422 m 803 450 q 788 489 803 474 q 749 504 772 504 q 712 489 728 504 q 696 450 696 474 q 712 413 696 428 q 749 397 728 397 q 788 413 772 397 q 803 450 803 428 m 667 454 q 651 493 667 478 q 613 508 636 508 q 576 493 592 508 q 560 454 560 478 q 576 417 560 432 q 613 401 592 401 q 651 417 636 401 q 667 454 667 432 "},"h":{"ha":1093,"x_min":103,"x_max":967,"o":"m 636 956 l 636 599 l 433 599 l 433 846 l 339 947 l 339 956 l 103 956 l 103 -12 l 111 -12 l 206 -114 l 433 -114 l 433 267 l 636 267 l 636 -12 l 644 -12 l 739 -114 l 967 -114 l 967 846 l 872 947 l 872 956 l 636 956 m 649 586 l 649 943 l 860 943 l 860 0 l 649 0 l 649 381 l 326 381 l 326 0 l 115 0 l 115 943 l 326 943 l 326 586 l 649 586 m 665 569 l 665 926 l 843 926 l 843 17 l 665 17 l 665 397 l 310 397 l 310 17 l 132 17 l 132 926 l 310 926 l 310 569 l 665 569 m 278 103 q 263 142 278 126 q 224 157 247 157 q 187 142 203 157 q 171 103 171 126 q 187 65 171 81 q 224 50 203 50 q 263 65 247 50 q 278 103 278 81 m 282 242 q 267 281 282 265 q 228 296 251 296 q 191 281 207 296 q 175 242 175 265 q 191 204 175 219 q 228 189 207 189 q 267 204 251 189 q 282 242 282 219 m 282 383 q 267 422 282 407 q 228 438 251 438 q 191 422 207 438 q 175 383 175 407 q 191 346 175 361 q 228 331 207 331 q 267 346 251 331 q 282 383 282 361 m 286 533 q 271 572 286 557 q 232 588 256 588 q 195 572 211 588 q 179 533 179 557 q 195 496 179 511 q 232 481 211 481 q 271 496 256 481 q 286 533 286 511 m 286 679 q 271 718 286 703 q 232 733 256 733 q 195 718 211 733 q 179 679 179 703 q 195 642 179 657 q 232 626 211 626 q 271 642 256 626 q 286 679 286 657 m 282 838 q 267 876 282 861 q 228 892 251 892 q 191 876 207 892 q 175 838 175 861 q 191 800 175 815 q 228 785 207 785 q 267 800 251 785 q 282 838 282 815 m 806 103 q 790 142 806 126 q 751 157 775 157 q 715 142 731 157 q 699 103 699 126 q 715 65 699 81 q 751 50 731 50 q 790 65 775 50 q 806 103 806 81 m 810 242 q 794 281 810 265 q 756 296 779 296 q 719 281 735 296 q 703 242 703 265 q 719 204 703 219 q 756 189 735 189 q 794 204 779 189 q 810 242 810 219 m 810 383 q 794 422 810 407 q 756 438 779 438 q 719 422 735 438 q 703 383 703 407 q 719 346 703 361 q 756 331 735 331 q 794 346 779 331 q 810 383 810 361 m 814 533 q 799 572 814 557 q 760 588 783 588 q 723 572 739 588 q 707 533 707 557 q 723 496 707 511 q 760 481 739 481 q 799 496 783 481 q 814 533 814 511 m 814 679 q 799 718 814 703 q 760 733 783 733 q 723 718 739 733 q 707 679 707 703 q 723 642 707 657 q 760 626 739 626 q 799 642 783 626 q 814 679 814 657 m 810 838 q 794 876 810 861 q 756 892 779 892 q 719 876 735 892 q 703 838 703 861 q 719 800 703 815 q 756 785 735 785 q 794 800 779 785 q 810 838 810 815 m 419 479 q 404 518 419 503 q 365 533 389 533 q 328 518 344 533 q 313 479 313 503 q 328 442 313 457 q 365 426 344 426 q 404 442 389 426 q 419 479 419 457 m 557 476 q 542 515 557 500 q 503 531 526 531 q 466 515 482 531 q 450 476 450 500 q 466 439 450 454 q 503 424 482 424 q 542 439 526 424 q 557 476 557 454 m 697 474 q 682 513 697 497 q 643 528 667 528 q 606 513 622 528 q 590 474 590 497 q 606 436 590 451 q 643 421 622 421 q 682 436 667 421 q 697 474 697 451 "},"i":{"ha":558,"x_min":103,"x_max":432,"o":"m 103 956 l 103 -12 l 111 -12 l 206 -114 l 432 -114 l 432 846 l 338 947 l 338 956 l 103 956 m 115 0 l 115 943 l 325 943 l 325 0 l 115 0 m 132 17 l 132 926 l 308 926 l 308 17 l 132 17 m 276 103 q 261 142 276 126 q 222 157 246 157 q 185 142 201 157 q 169 103 169 126 q 185 65 169 81 q 222 50 201 50 q 261 65 246 50 q 276 103 276 81 m 281 242 q 265 281 281 265 q 226 296 250 296 q 190 281 206 296 q 174 242 174 265 q 190 204 174 219 q 226 189 206 189 q 265 204 250 189 q 281 242 281 219 m 281 383 q 265 422 281 407 q 226 438 250 438 q 190 422 206 438 q 174 383 174 407 q 190 346 174 361 q 226 331 206 331 q 265 346 250 331 q 281 383 281 361 m 285 533 q 269 572 285 557 q 231 588 254 588 q 194 572 210 588 q 178 533 178 557 q 194 496 178 511 q 231 481 210 481 q 269 496 254 481 q 285 533 285 511 m 285 679 q 269 718 285 703 q 231 733 254 733 q 194 718 210 733 q 178 679 178 703 q 194 642 178 657 q 231 626 210 626 q 269 642 254 626 q 285 679 285 657 m 281 838 q 265 876 281 861 q 226 892 250 892 q 190 876 206 892 q 174 838 174 861 q 190 800 174 815 q 226 785 206 785 q 265 800 250 785 q 281 838 281 815 "},"j":{"ha":783,"x_min":-11,"x_max":675,"o":"m 675 844 l 581 946 l 581 954 l 346 954 l 346 269 q 323 233 346 246 q 275 221 300 221 q 246 231 260 221 l 204 275 l 204 276 l 185 306 l -11 157 q 24 113 6 133 q 65 75 43 93 l 78 61 q 243 -76 171 -37 q 378 -114 315 -114 q 487 -95 433 -114 q 582 -41 540 -76 q 649 44 624 -6 q 675 156 675 94 l 675 844 m 568 942 l 568 844 l 568 261 q 544 153 568 201 q 478 72 519 106 q 385 19 438 38 q 279 0 333 0 q 192 15 236 0 q 106 58 147 29 q 54 101 79 78 q 7 154 29 125 l 182 286 q 218 238 201 256 q 251 213 235 219 l 267 208 l 275 208 q 331 224 304 208 q 358 269 358 239 l 358 942 l 568 942 m 275 192 l 267 192 q 254 193 257 192 q 244 197 244 196 q 211 222 228 204 q 178 263 194 239 l 31 150 q 72 107 50 126 q 115 72 93 88 q 197 32 153 47 q 279 17 242 17 q 380 34 331 17 q 467 83 429 51 q 528 160 506 115 q 551 261 551 206 l 551 925 l 375 925 l 375 269 q 366 235 375 250 q 342 211 357 221 q 310 197 328 201 q 275 192 293 192 m 161 97 q 124 113 140 97 q 108 150 108 128 q 124 189 108 174 q 161 204 140 204 q 200 189 185 204 q 215 150 215 174 q 200 113 215 128 q 161 97 185 97 m 278 47 q 241 63 257 47 q 225 100 225 78 q 241 139 225 124 q 278 154 257 154 q 317 139 301 154 q 332 100 332 124 q 317 63 332 78 q 278 47 301 47 m 460 218 q 423 233 439 218 q 407 271 407 249 q 423 310 407 294 q 460 325 439 325 q 499 310 483 325 q 514 271 514 294 q 499 233 514 249 q 460 218 483 218 m 406 408 q 422 447 406 432 q 458 463 438 463 q 497 447 482 463 q 513 408 513 432 q 497 371 513 386 q 458 356 482 356 q 422 371 438 356 q 406 408 406 386 m 460 633 q 423 649 439 633 q 407 686 407 664 q 423 725 407 710 q 460 740 439 740 q 499 725 483 740 q 514 686 514 710 q 499 649 514 664 q 460 633 483 633 m 457 886 q 496 871 481 886 q 511 832 511 856 q 496 794 511 810 q 457 779 481 779 q 420 794 436 779 q 404 832 404 810 q 420 871 404 856 q 457 886 436 886 m 457 600 q 496 585 481 600 q 511 546 511 569 q 496 508 511 524 q 457 493 481 493 q 420 508 436 493 q 404 546 404 524 q 420 585 404 569 q 457 600 436 600 m 400 200 q 440 185 424 200 q 457 147 457 171 q 440 109 457 125 q 400 93 424 93 q 363 108 379 93 q 347 146 347 124 q 363 185 347 169 q 400 200 379 200 "},"k":{"ha":1014,"x_min":103,"x_max":979,"o":"m 111 -11 l 206 -112 l 435 -112 l 435 128 l 560 -11 l 565 -11 l 660 -112 l 978 -112 l 883 -11 l 889 -11 l 600 296 l 979 844 l 882 947 l 888 954 l 583 954 l 435 739 l 435 844 l 340 946 l 340 954 l 103 954 l 103 -11 l 111 -11 m 328 563 l 589 942 l 865 942 l 489 397 l 861 1 l 564 1 l 328 265 l 328 1 l 115 1 l 115 942 l 328 942 l 328 563 m 311 508 l 597 925 l 833 925 l 467 396 q 644 208 554 303 q 822 18 735 113 l 572 18 l 311 310 l 311 18 l 132 18 l 132 925 l 311 925 l 311 508 m 276 103 q 261 142 276 126 q 222 157 246 157 q 185 142 201 157 q 169 103 169 126 q 185 65 169 81 q 222 50 201 50 q 261 65 246 50 q 276 103 276 81 m 281 242 q 265 281 281 265 q 226 296 250 296 q 190 281 206 296 q 174 242 174 265 q 190 204 174 219 q 226 189 206 189 q 265 204 250 189 q 281 242 281 219 m 281 383 q 265 422 281 407 q 226 438 250 438 q 190 422 206 438 q 174 383 174 407 q 190 346 174 361 q 226 331 206 331 q 265 346 250 331 q 281 383 281 361 m 285 533 q 269 572 285 557 q 231 588 254 588 q 194 572 210 588 q 178 533 178 557 q 194 496 178 511 q 231 481 210 481 q 269 496 254 481 q 285 533 285 511 m 285 679 q 269 718 285 703 q 231 733 254 733 q 194 718 210 733 q 178 679 178 703 q 194 642 178 657 q 231 626 210 626 q 269 642 254 626 q 285 679 285 657 m 281 838 q 265 876 281 861 q 226 892 250 892 q 190 876 206 892 q 174 838 174 861 q 190 800 174 815 q 226 785 206 785 q 265 800 250 785 q 281 838 281 815 m 715 840 q 700 879 715 864 q 661 894 685 894 q 624 879 640 894 q 608 840 608 864 q 624 803 608 818 q 661 788 640 788 q 700 803 685 788 q 715 840 715 818 m 635 738 q 619 776 635 761 q 581 792 604 792 q 544 776 560 792 q 528 738 528 761 q 544 700 528 715 q 581 685 560 685 q 619 700 604 685 q 635 738 635 715 m 560 625 q 544 664 560 649 q 506 679 529 679 q 469 664 485 679 q 453 625 453 649 q 469 588 453 603 q 506 572 485 572 q 544 588 529 572 q 560 625 560 603 m 483 513 q 468 551 483 536 q 429 567 453 567 q 392 551 408 567 q 376 513 376 536 q 392 475 376 490 q 429 460 408 460 q 468 475 453 460 q 483 513 483 490 m 415 399 q 400 438 415 422 q 361 453 385 453 q 324 438 340 453 q 308 399 308 422 q 324 361 308 376 q 361 346 340 346 q 400 361 385 346 q 415 399 415 376 m 511 292 q 496 331 511 315 q 457 346 481 346 q 420 331 436 346 q 404 292 404 315 q 420 254 404 269 q 457 239 436 239 q 496 254 481 239 q 511 292 511 269 m 692 92 q 676 131 692 115 q 638 146 661 146 q 601 131 617 146 q 585 92 585 115 q 601 54 585 69 q 638 39 617 39 q 676 54 661 39 q 692 92 692 69 m 599 190 q 583 229 599 214 q 544 244 568 244 q 508 229 524 244 q 492 190 492 214 q 508 153 492 168 q 544 138 524 138 q 583 153 568 138 q 599 190 599 168 "},"l":{"ha":882,"x_min":103,"x_max":835,"o":"m 335 947 l 335 956 l 103 956 l 103 -12 l 111 -12 l 206 -114 l 835 -114 l 835 108 l 740 210 l 740 218 l 429 218 l 429 846 l 335 947 m 322 943 l 322 206 l 728 206 l 728 0 l 115 0 l 115 943 l 322 943 m 306 926 l 306 189 l 711 189 l 711 17 l 132 17 l 132 926 l 306 926 m 276 103 q 261 142 276 126 q 222 157 246 157 q 185 142 201 157 q 169 103 169 126 q 185 65 169 81 q 222 50 201 50 q 261 65 246 50 q 276 103 276 81 m 281 242 q 265 281 281 265 q 226 296 250 296 q 190 281 206 296 q 174 242 174 265 q 190 204 174 219 q 226 189 206 189 q 265 204 250 189 q 281 242 281 219 m 281 383 q 265 422 281 407 q 226 438 250 438 q 190 422 206 438 q 174 383 174 407 q 190 346 174 361 q 226 331 206 331 q 265 346 250 331 q 281 383 281 361 m 285 533 q 269 572 285 557 q 231 588 254 588 q 194 572 210 588 q 178 533 178 557 q 194 496 178 511 q 231 481 210 481 q 269 496 254 481 q 285 533 285 511 m 285 679 q 269 718 285 703 q 231 733 254 733 q 194 718 210 733 q 178 679 178 703 q 194 642 178 657 q 231 626 210 626 q 269 642 254 626 q 285 679 285 657 m 281 838 q 265 876 281 861 q 226 892 250 892 q 190 876 206 892 q 174 838 174 861 q 190 800 174 815 q 226 785 206 785 q 265 800 250 785 q 281 838 281 815 m 411 103 q 396 142 411 126 q 357 157 381 157 q 320 142 336 157 q 304 103 304 126 q 320 65 304 81 q 357 50 336 50 q 396 65 381 50 q 411 103 411 81 m 557 99 q 542 138 557 122 q 503 153 526 153 q 466 138 482 153 q 450 99 450 122 q 466 61 450 76 q 503 46 482 46 q 542 61 526 46 q 557 99 557 76 m 686 94 q 671 133 686 118 q 632 149 656 149 q 595 133 611 149 q 579 94 579 118 q 595 57 579 72 q 632 42 611 42 q 671 57 656 42 q 686 94 686 72 "},"m":{"ha":1243,"x_min":103,"x_max":1117,"o":"m 133 994 l 103 1036 l 103 -12 l 111 -12 l 206 -114 l 431 -114 l 431 161 l 560 -14 l 563 -10 l 658 -112 l 786 61 l 786 -12 l 794 -12 l 889 -114 l 1117 -114 l 1117 917 l 1022 1018 l 1022 1035 l 774 696 q 673 556 724 625 q 575 424 622 488 l 206 918 l 133 994 m 115 997 l 568 393 q 676 541 619 464 q 790 696 733 618 q 903 850 847 774 q 1010 996 958 926 l 1010 0 l 799 0 l 799 335 l 560 8 l 324 328 l 324 0 l 115 0 l 115 997 m 132 946 l 568 365 l 797 678 l 993 943 l 993 17 l 815 17 l 815 386 l 560 38 l 307 379 l 307 17 l 132 17 l 132 946 m 965 115 q 950 154 965 139 q 911 169 935 169 q 874 154 890 169 q 858 115 858 139 q 874 78 858 93 q 911 63 890 63 q 950 78 935 63 q 965 115 965 93 m 397 526 q 382 565 397 550 q 343 581 367 581 q 306 565 322 581 q 290 526 290 550 q 306 489 290 504 q 343 474 322 474 q 382 489 367 474 q 397 526 397 504 m 540 294 q 525 333 540 318 q 486 349 510 349 q 449 333 465 349 q 433 294 433 318 q 449 257 433 272 q 486 242 465 242 q 525 257 510 242 q 540 294 540 272 m 621 185 q 606 224 621 208 q 567 239 590 239 q 530 224 546 239 q 514 185 514 208 q 530 147 514 163 q 567 132 546 132 q 606 147 590 132 q 621 185 621 163 m 693 299 q 678 338 693 322 q 639 353 663 353 q 602 338 618 353 q 586 299 586 322 q 602 261 586 276 q 639 246 618 246 q 678 261 663 246 q 693 299 693 276 m 772 408 q 757 447 772 432 q 718 463 742 463 q 681 447 697 463 q 665 408 665 432 q 681 371 665 386 q 718 356 697 356 q 757 371 742 356 q 772 408 772 386 m 961 260 q 946 299 961 283 q 907 314 931 314 q 870 299 886 314 q 854 260 854 283 q 870 222 854 238 q 907 207 886 207 q 946 222 931 207 q 961 260 961 238 m 965 401 q 950 440 965 425 q 911 456 935 456 q 874 440 890 456 q 858 401 858 425 q 874 364 858 379 q 911 349 890 349 q 950 364 935 349 q 965 401 965 379 m 968 686 q 953 725 968 710 q 914 740 938 740 q 877 725 893 740 q 861 686 861 710 q 877 649 861 664 q 914 633 893 633 q 953 649 938 633 q 968 686 968 664 m 968 551 q 953 590 968 575 q 914 606 938 606 q 877 590 893 606 q 861 551 861 575 q 877 514 861 529 q 914 499 893 499 q 953 514 938 499 q 968 551 968 529 m 835 518 q 819 557 835 542 q 781 572 804 572 q 744 557 760 572 q 728 518 728 542 q 744 481 728 496 q 781 465 760 465 q 819 481 804 465 q 835 518 835 496 m 274 115 q 258 154 274 139 q 219 169 243 169 q 183 154 199 169 q 167 115 167 139 q 183 78 167 93 q 219 63 199 63 q 258 78 243 63 q 274 115 274 93 m 269 263 q 254 301 269 286 q 215 317 239 317 q 178 301 194 317 q 163 263 163 286 q 178 225 163 240 q 215 210 194 210 q 254 225 239 210 q 269 263 269 240 m 274 396 q 258 435 274 419 q 219 450 243 450 q 183 435 199 450 q 167 396 167 419 q 183 358 167 374 q 219 343 199 343 q 258 358 243 343 q 274 396 274 374 m 267 700 q 251 739 267 724 q 213 754 236 754 q 176 739 192 754 q 160 700 160 724 q 176 663 160 678 q 213 647 192 647 q 251 663 236 647 q 267 700 267 678 m 271 549 q 256 588 271 572 q 217 603 240 603 q 180 590 196 603 q 164 549 164 576 q 180 511 164 526 q 217 496 196 496 q 256 511 240 496 q 271 549 271 526 m 467 413 q 451 454 467 442 q 413 467 436 467 q 376 451 392 467 q 360 413 360 436 q 376 375 360 390 q 413 360 392 360 q 451 375 436 360 q 467 413 467 390 "},"n":{"ha":1129,"x_min":103,"x_max":1003,"o":"m 675 956 l 675 478 l 103 988 l 103 -12 l 111 -12 l 206 -114 l 431 -114 l 431 363 l 1003 -160 l 1003 846 l 908 947 l 908 956 l 675 956 m 688 451 l 688 943 l 896 943 l 896 -36 l 324 486 l 324 0 l 115 0 l 115 961 l 688 451 m 704 414 l 704 926 l 879 926 l 879 1 l 307 524 l 307 17 l 132 17 l 132 925 l 704 414 m 392 600 q 376 639 392 624 q 338 654 361 654 q 301 639 317 654 q 285 600 285 624 q 301 563 285 578 q 338 547 317 547 q 376 563 361 547 q 392 600 392 578 m 729 303 q 714 342 729 326 q 675 357 699 357 q 638 342 654 357 q 622 303 622 326 q 638 265 622 281 q 675 250 654 250 q 714 265 699 250 q 729 303 729 281 m 274 115 q 258 154 274 139 q 219 169 243 169 q 183 154 199 169 q 167 115 167 139 q 183 78 167 93 q 219 63 199 63 q 258 78 243 63 q 274 115 274 93 m 275 265 q 260 304 275 289 q 221 319 244 319 q 184 304 200 319 q 168 265 168 289 q 184 228 168 243 q 221 213 200 213 q 260 228 244 213 q 275 265 275 243 m 274 413 q 258 451 274 436 q 219 467 243 467 q 183 451 199 467 q 167 413 167 436 q 183 375 167 390 q 219 360 199 360 q 258 375 243 360 q 274 413 274 390 m 276 726 q 261 765 276 750 q 222 781 246 781 q 185 765 201 781 q 169 726 169 750 q 185 689 169 704 q 222 674 201 674 q 261 689 246 674 q 276 726 276 704 m 271 565 q 256 604 271 589 q 217 619 240 619 q 180 606 196 619 q 164 565 164 593 q 180 528 164 543 q 217 513 196 513 q 256 528 240 513 q 271 565 271 543 m 515 500 q 500 542 515 529 q 461 554 485 554 q 424 539 440 554 q 408 500 408 524 q 424 463 408 478 q 461 447 440 447 q 500 463 485 447 q 515 500 515 478 m 632 407 q 617 449 632 436 q 578 461 601 461 q 541 446 557 461 q 525 407 525 431 q 541 369 525 385 q 578 354 557 354 q 617 369 601 354 q 632 407 632 385 m 840 832 q 825 874 840 861 q 786 886 810 886 q 749 871 765 886 q 733 832 733 856 q 749 794 733 810 q 786 779 765 779 q 825 794 810 779 q 840 832 840 810 m 844 667 q 829 708 844 696 q 790 721 814 721 q 753 706 769 721 q 738 667 738 690 q 753 629 738 644 q 790 614 769 614 q 829 626 814 614 q 844 667 844 639 m 844 507 q 829 549 844 536 q 790 561 814 561 q 753 546 769 561 q 738 507 738 531 q 753 469 738 485 q 790 454 769 454 q 829 467 814 454 q 844 507 844 479 m 847 361 q 832 403 847 390 q 793 415 817 415 q 756 400 772 415 q 740 361 740 385 q 756 324 740 339 q 793 308 772 308 q 832 324 817 308 q 847 361 847 339 m 853 190 q 838 232 853 219 q 799 244 822 244 q 762 229 778 244 q 746 190 746 214 q 762 153 746 168 q 799 138 778 138 q 838 153 822 138 q 853 190 853 168 "},"o":{"ha":1200,"x_min":56,"x_max":1117,"o":"m 786 471 q 767 373 786 418 q 714 294 747 328 q 635 242 681 261 q 539 222 590 222 q 408 258 465 222 q 386 365 386 310 q 406 463 386 417 q 459 544 425 510 q 539 598 493 578 q 638 618 585 618 q 757 588 700 618 q 786 471 786 535 m 539 953 q 351 915 439 953 q 197 812 263 878 q 93 658 131 746 q 56 471 56 571 q 102 260 56 357 q 229 97 149 164 l 286 38 q 443 -74 353 -33 q 638 -114 533 -114 q 824 -76 736 -114 q 976 26 911 -39 q 1079 178 1042 90 q 1117 365 1117 265 q 1082 544 1117 461 q 988 690 1047 626 l 936 744 q 766 897 869 840 q 539 953 663 953 m 539 940 q 722 903 636 940 q 872 803 808 867 q 973 653 936 739 q 1010 471 1010 568 q 973 286 1010 372 q 872 137 936 200 q 722 37 808 74 q 539 0 636 0 q 355 37 440 0 q 206 137 269 74 q 105 286 142 200 q 68 471 68 372 q 105 653 68 568 q 206 803 142 739 q 355 903 269 867 q 539 940 440 940 m 799 471 q 778 572 799 525 q 723 655 758 619 q 640 711 688 690 q 539 732 593 732 q 437 711 485 732 q 354 655 389 690 q 299 572 319 619 q 279 471 279 525 q 299 369 279 417 q 354 285 319 321 q 437 230 389 250 q 539 210 485 210 q 640 230 593 210 q 723 285 688 250 q 778 369 758 321 q 799 471 799 417 m 539 924 q 715 888 632 924 q 860 791 799 853 q 957 647 921 729 q 993 471 993 564 q 957 293 993 376 q 860 149 921 210 q 715 52 799 88 q 539 17 632 17 q 362 52 444 17 q 217 149 279 88 q 120 293 156 210 q 85 471 85 376 q 120 647 85 564 q 217 791 156 729 q 362 888 279 853 q 539 924 444 924 m 815 471 q 794 578 815 528 q 735 667 772 629 q 647 726 697 704 q 539 749 597 749 q 430 726 481 749 q 342 667 379 704 q 284 578 306 629 q 263 471 263 528 q 284 362 263 413 q 342 274 306 311 q 430 215 379 236 q 539 193 481 193 q 647 215 597 193 q 735 274 697 236 q 794 362 772 311 q 815 471 815 413 m 614 832 q 599 874 614 861 q 560 886 583 886 q 523 871 539 886 q 507 832 507 856 q 523 794 507 810 q 560 779 539 779 q 599 794 583 779 q 614 832 614 810 m 751 799 q 736 840 751 828 q 697 853 721 853 q 660 838 676 853 q 644 799 644 822 q 660 761 644 776 q 697 746 676 746 q 736 761 721 746 q 751 799 751 776 m 864 703 q 849 744 864 732 q 810 757 833 757 q 773 742 789 757 q 757 703 757 726 q 773 665 757 681 q 810 650 789 650 q 849 665 833 650 q 864 703 864 681 m 939 578 q 924 619 939 607 q 885 632 908 632 q 848 617 864 632 q 832 578 832 601 q 848 540 832 556 q 885 525 864 525 q 924 540 908 525 q 939 578 939 556 m 951 428 q 936 469 951 457 q 897 482 921 482 q 860 467 876 482 q 844 428 844 451 q 860 390 844 406 q 897 375 876 375 q 936 390 921 375 q 951 428 951 406 m 906 286 q 890 328 906 315 q 851 340 875 340 q 815 325 831 340 q 799 286 799 310 q 815 249 799 264 q 851 233 831 233 q 890 249 875 233 q 906 286 906 264 m 806 186 q 790 228 806 215 q 751 240 775 240 q 715 225 731 240 q 699 186 699 210 q 715 149 699 164 q 751 133 731 133 q 790 149 775 133 q 806 186 806 164 m 685 115 q 669 157 685 144 q 631 169 654 169 q 594 154 610 169 q 578 115 578 139 q 594 78 578 93 q 631 63 610 63 q 669 78 654 63 q 685 115 685 93 m 539 111 q 524 153 539 140 q 485 165 508 165 q 448 150 464 165 q 432 111 432 135 q 448 74 432 89 q 485 58 464 58 q 524 74 508 58 q 539 111 539 89 m 406 153 q 390 194 406 182 q 351 207 375 207 q 315 192 331 207 q 299 153 299 176 q 315 115 299 131 q 351 100 331 100 q 390 115 375 100 q 406 153 406 131 m 301 244 q 286 286 301 274 q 247 299 271 299 q 210 283 226 299 q 194 244 194 268 q 210 207 194 222 q 247 192 226 192 q 286 207 271 192 q 301 244 301 222 m 238 371 q 222 413 238 400 q 183 425 207 425 q 147 410 163 425 q 131 371 131 394 q 147 333 131 349 q 183 318 163 318 q 222 333 207 318 q 238 371 238 349 m 225 513 q 210 554 225 542 q 171 567 194 567 q 134 551 150 567 q 118 513 118 536 q 134 475 118 490 q 171 460 150 460 q 210 475 194 460 q 225 513 225 490 m 263 638 q 247 679 263 667 q 208 692 232 692 q 172 676 188 692 q 156 638 156 661 q 172 600 156 615 q 208 585 188 585 q 247 600 232 585 q 263 638 263 615 m 350 746 q 335 788 350 775 q 296 800 319 800 q 259 785 275 800 q 243 746 243 769 q 259 708 243 724 q 296 693 275 693 q 335 708 319 693 q 350 746 350 724 m 475 814 q 460 856 475 843 q 421 868 444 868 q 384 853 400 868 q 368 814 368 838 q 384 776 368 792 q 421 761 400 761 q 460 776 444 761 q 475 814 475 792 "},"p":{"ha":1007,"x_min":103,"x_max":943,"o":"m 849 746 l 839 756 l 789 810 l 789 811 q 676 917 744 878 q 515 956 607 956 l 103 956 l 103 -12 l 111 -12 l 206 -114 l 432 -114 l 432 135 l 614 135 q 754 160 693 135 q 858 233 815 186 q 922 347 900 281 q 943 493 943 413 q 918 633 943 568 q 849 746 893 697 m 515 249 l 325 249 l 325 0 l 206 0 l 115 0 l 115 943 l 515 943 q 669 906 603 943 q 779 803 736 869 q 836 599 836 717 q 815 456 836 521 q 753 346 793 392 q 652 274 713 300 q 515 249 592 249 m 617 665 q 575 719 601 700 q 515 738 549 738 l 324 738 l 324 456 l 515 456 q 599 504 567 456 q 629 604 629 547 q 617 665 629 638 m 515 468 l 436 468 l 435 471 l 435 600 l 574 600 q 589 597 581 600 q 602 592 596 594 q 615 582 608 589 q 583 504 608 540 q 515 468 557 468 m 765 794 l 765 793 q 662 891 725 856 q 515 926 599 926 l 132 926 l 132 17 l 308 17 l 308 265 l 515 265 q 644 290 588 265 q 740 358 701 314 q 799 463 779 401 q 819 599 819 524 q 806 706 819 657 q 765 794 792 754 m 778 669 q 763 632 778 647 q 724 617 747 617 q 687 632 703 617 q 671 669 671 647 q 687 708 671 693 q 724 724 703 724 q 763 708 747 724 q 778 669 778 693 m 644 849 q 683 833 668 849 q 699 794 699 818 q 683 757 699 772 q 644 742 668 742 q 608 757 624 742 q 592 794 592 772 q 608 833 592 818 q 644 849 624 849 m 507 890 q 546 875 531 890 q 561 836 561 860 q 546 799 561 814 q 507 783 531 783 q 470 799 486 783 q 454 836 454 814 q 470 875 454 860 q 507 890 486 890 m 374 890 q 413 875 397 890 q 428 836 428 860 q 413 799 428 814 q 374 783 397 783 q 337 799 353 783 q 321 836 321 814 q 337 875 321 860 q 374 890 353 890 m 228 892 q 267 876 251 892 q 282 838 282 861 q 267 800 282 815 q 228 785 251 785 q 191 800 207 785 q 175 838 175 815 q 191 876 175 861 q 228 892 207 892 m 224 50 q 187 65 203 50 q 171 103 171 81 q 187 142 171 126 q 224 157 203 157 q 263 142 247 157 q 278 103 278 126 q 263 65 278 81 q 224 50 247 50 m 228 189 q 191 204 207 189 q 175 242 175 219 q 191 281 175 265 q 228 296 207 296 q 267 281 251 296 q 282 242 282 265 q 267 204 282 219 q 228 189 251 189 m 228 331 q 191 346 207 331 q 175 383 175 361 q 191 422 175 407 q 228 438 207 438 q 267 422 251 438 q 282 383 282 407 q 267 346 282 361 q 228 331 251 331 m 232 481 q 195 496 211 481 q 179 533 179 511 q 195 572 179 557 q 232 588 211 588 q 271 572 256 588 q 286 533 286 557 q 271 496 286 511 q 232 481 256 481 m 232 626 q 195 642 211 626 q 179 679 179 657 q 195 718 179 703 q 232 733 211 733 q 271 718 256 733 q 286 679 286 703 q 271 642 286 657 q 232 626 256 626 m 385 306 q 348 321 364 306 q 332 358 332 336 q 348 397 332 382 q 385 413 364 413 q 424 397 408 413 q 439 358 439 382 q 424 321 439 336 q 385 306 408 306 m 532 303 q 495 318 511 303 q 479 356 479 333 q 495 394 479 379 q 532 410 511 410 q 571 394 556 410 q 586 356 586 379 q 571 318 586 333 q 532 303 556 303 m 515 439 l 307 439 l 307 754 l 515 754 q 585 732 554 754 q 632 672 615 710 q 646 604 646 643 q 613 494 646 542 q 569 453 594 467 q 515 439 543 439 m 661 367 q 624 382 640 367 q 608 419 608 397 q 624 458 608 443 q 661 474 640 474 q 700 458 685 474 q 715 419 715 443 q 700 382 715 397 q 661 367 685 367 m 724 483 q 687 499 703 483 q 671 536 671 514 q 687 575 671 560 q 724 590 703 590 q 763 575 747 590 q 778 536 778 560 q 763 499 778 514 q 724 483 747 483 "},"q":{"ha":1217,"x_min":56,"x_max":1133,"o":"m 454 199 l 456 197 q 454 199 456 197 m 388 374 q 390 412 388 393 q 400 449 393 431 l 508 303 q 538 263 524 282 q 568 225 553 244 q 553 224 560 224 q 539 224 547 224 q 471 233 503 224 q 411 261 439 243 q 388 374 388 310 m 694 446 l 672 475 l 411 475 q 508 581 443 540 q 649 622 574 622 q 710 613 681 622 q 768 589 740 604 q 792 532 783 561 q 801 471 801 503 q 771 363 801 415 l 769 365 l 694 446 m 247 92 l 296 40 q 448 -72 361 -31 q 635 -114 535 -114 q 726 -105 682 -114 q 813 -81 769 -96 l 844 -114 l 1121 -114 l 1006 46 q 1101 190 1068 110 q 1133 361 1133 269 q 1097 538 1133 453 q 997 689 1060 622 l 946 742 q 868 829 913 789 q 773 898 824 869 q 665 942 722 926 q 550 958 608 958 q 365 922 454 958 q 206 820 275 885 q 97 669 138 756 q 56 483 56 582 q 108 265 56 368 q 247 92 160 163 m 897 153 l 1006 0 l 750 0 l 721 38 q 631 10 676 19 q 536 0 585 0 q 355 40 440 0 q 206 147 269 81 q 105 301 142 214 q 68 483 68 389 q 108 664 68 579 q 216 811 149 749 q 370 910 283 874 q 550 946 457 946 q 730 906 643 946 q 882 800 817 867 q 987 647 947 733 q 1026 467 1026 560 q 993 295 1026 374 q 897 153 960 217 m 667 463 l 767 331 q 801 397 789 363 q 814 471 814 432 q 792 571 814 522 q 734 656 771 619 q 649 714 697 692 q 550 736 601 736 q 449 716 497 736 q 363 660 400 696 q 303 578 325 625 q 281 479 281 532 q 301 378 281 426 q 356 292 321 329 q 438 233 392 256 q 539 211 485 211 q 588 217 565 211 l 407 463 l 667 463 m 875 154 l 972 17 l 757 17 l 726 57 q 631 27 678 38 q 536 17 583 17 q 361 56 443 17 q 217 159 279 94 q 120 308 156 224 q 85 483 85 392 q 124 658 85 576 q 227 799 163 739 q 376 894 292 860 q 550 929 460 929 q 724 891 640 929 q 870 789 807 853 q 972 641 933 725 q 1010 467 1010 557 q 975 299 1010 376 q 875 154 940 221 m 660 446 l 767 301 q 813 387 796 344 q 831 471 831 429 q 808 577 831 526 q 746 667 785 628 q 656 729 707 706 q 550 753 606 753 q 443 731 494 753 q 352 672 392 710 q 288 585 313 635 q 264 479 264 535 q 285 372 264 424 q 344 281 307 321 q 432 218 382 242 q 539 194 482 194 q 573 197 554 194 q 617 206 592 199 q 530 325 576 263 q 440 446 483 388 l 660 446 m 864 103 q 849 144 864 132 q 810 157 833 157 q 773 142 789 157 q 757 103 757 126 q 773 65 757 81 q 810 50 789 50 q 849 65 833 50 q 864 103 864 81 m 756 236 q 740 278 756 265 q 701 290 725 290 q 665 275 681 290 q 649 236 649 260 q 665 199 649 214 q 701 183 681 183 q 740 199 725 183 q 756 236 756 214 m 658 363 q 643 404 658 392 q 604 417 628 417 q 567 401 583 417 q 551 363 551 386 q 567 325 551 340 q 604 310 583 310 q 643 325 628 310 q 658 363 658 340 m 893 261 q 878 303 893 290 q 839 315 863 315 q 802 300 818 315 q 786 261 786 285 q 802 224 786 239 q 839 208 818 208 q 878 224 863 208 q 893 261 893 239 m 964 399 q 949 440 964 428 q 910 453 933 453 q 873 438 889 453 q 857 399 857 422 q 873 361 857 376 q 910 346 889 346 q 949 361 933 346 q 964 399 964 376 m 968 536 q 953 578 968 565 q 914 590 938 590 q 877 575 893 590 q 861 536 861 560 q 877 499 861 514 q 914 483 893 483 q 953 499 938 483 q 968 536 968 514 m 918 671 q 903 713 918 700 q 864 725 888 725 q 827 710 843 725 q 811 671 811 694 q 827 633 811 649 q 864 618 843 618 q 903 633 888 618 q 918 671 918 649 m 817 763 q 801 804 817 792 q 763 817 786 817 q 726 801 742 817 q 710 763 710 786 q 726 725 710 740 q 763 710 742 710 q 801 725 786 710 q 817 763 817 740 m 692 829 q 676 871 692 858 q 638 883 661 883 q 601 868 617 883 q 585 829 585 853 q 601 792 585 807 q 638 776 617 776 q 676 792 661 776 q 692 829 692 807 m 547 828 q 532 869 547 857 q 493 882 517 882 q 456 867 472 882 q 440 828 440 851 q 456 790 440 806 q 493 775 472 775 q 532 790 517 775 q 547 828 547 806 m 418 794 q 403 836 418 824 q 364 849 388 849 q 327 833 343 849 q 311 794 311 818 q 327 757 311 772 q 364 742 343 742 q 403 757 388 742 q 418 794 418 772 m 304 713 q 289 754 304 742 q 250 767 274 767 q 213 751 229 767 q 197 713 197 736 q 213 675 197 690 q 250 660 229 660 q 289 675 274 660 q 304 713 304 690 m 246 579 q 231 621 246 608 q 192 633 215 633 q 155 618 171 633 q 139 579 139 603 q 155 542 139 557 q 192 526 171 526 q 231 542 215 526 q 246 579 246 557 m 229 438 q 214 479 229 467 q 175 492 199 492 q 138 476 154 492 q 122 438 122 461 q 138 400 122 415 q 175 385 154 385 q 214 400 199 385 q 229 438 229 415 m 275 304 q 260 346 275 333 q 221 358 244 358 q 184 343 200 358 q 168 304 168 328 q 184 267 168 282 q 221 251 200 251 q 260 267 244 251 q 275 304 275 282 m 375 183 q 360 225 375 213 q 321 238 344 238 q 284 222 300 238 q 268 183 268 207 q 284 146 268 161 q 321 131 300 131 q 360 146 344 131 q 375 183 375 161 m 500 117 q 485 158 500 146 q 446 171 469 171 q 409 156 425 171 q 393 117 393 140 q 409 79 393 94 q 446 64 425 64 q 485 79 469 64 q 500 117 500 94 m 663 113 q 647 154 663 142 q 608 167 632 167 q 572 151 588 167 q 556 113 556 136 q 572 75 556 90 q 608 60 588 60 q 647 75 632 60 q 663 113 663 90 "},"r":{"ha":989,"x_min":103,"x_max":939,"o":"m 535 688 l 533 689 q 535 688 533 689 m 431 494 l 431 621 l 556 621 l 556 610 q 528 528 556 563 q 456 494 501 494 l 431 494 m 456 956 l 103 956 l 103 -12 l 111 -12 l 206 -114 l 431 -114 l 431 139 l 561 -12 l 567 -12 l 661 -114 l 939 -114 q 817 33 881 -43 q 693 179 753 108 q 845 299 792 213 q 899 504 899 386 q 875 635 899 575 q 810 739 851 694 l 749 803 q 626 915 703 874 q 456 956 550 956 m 115 943 l 456 943 q 588 919 526 943 q 694 850 649 894 q 766 744 740 806 q 792 610 792 683 q 736 404 792 490 q 579 289 681 318 l 822 0 l 567 0 l 324 283 l 324 0 l 115 0 l 115 943 m 324 735 l 324 482 l 456 482 q 538 519 508 482 q 568 610 568 557 q 538 697 568 660 q 456 735 508 735 l 324 735 m 132 926 l 456 926 q 581 903 522 926 q 682 838 639 879 q 750 738 725 796 q 775 610 775 679 q 717 414 775 497 q 550 299 658 331 l 786 17 l 575 17 l 307 329 l 307 17 l 132 17 l 132 926 m 307 751 l 307 465 l 456 465 q 550 508 515 465 q 585 610 585 550 q 576 663 585 638 q 550 708 567 689 q 509 740 533 728 q 456 751 485 751 l 307 751 m 276 103 q 261 142 276 126 q 222 157 246 157 q 185 142 201 157 q 169 103 169 126 q 185 65 169 81 q 222 50 201 50 q 261 65 246 50 q 276 103 276 81 m 281 242 q 265 281 281 265 q 226 296 250 296 q 190 281 206 296 q 174 242 174 265 q 190 204 174 219 q 226 189 206 189 q 265 204 250 189 q 281 242 281 219 m 281 383 q 265 422 281 407 q 226 438 250 438 q 190 422 206 438 q 174 383 174 407 q 190 346 174 361 q 226 331 206 331 q 265 346 250 331 q 281 383 281 361 m 285 533 q 269 572 285 557 q 231 588 254 588 q 194 572 210 588 q 178 533 178 557 q 194 496 178 511 q 231 481 210 481 q 269 496 254 481 q 285 533 285 511 m 285 679 q 269 718 285 703 q 231 733 254 733 q 194 718 210 733 q 178 679 178 703 q 194 642 178 657 q 231 626 210 626 q 269 642 254 626 q 285 679 285 657 m 281 838 q 265 876 281 861 q 226 892 250 892 q 190 876 206 892 q 174 838 174 861 q 190 800 174 815 q 226 785 206 785 q 265 800 250 785 q 281 838 281 815 m 415 844 q 400 883 415 868 q 361 899 385 899 q 324 883 340 899 q 308 844 308 868 q 324 807 308 822 q 361 792 340 792 q 400 807 385 792 q 415 844 415 822 m 569 828 q 554 867 569 851 q 515 882 539 882 q 478 867 494 882 q 463 828 463 851 q 478 790 463 806 q 515 775 494 775 q 554 790 539 775 q 569 828 569 806 m 690 763 q 675 801 690 786 q 636 817 660 817 q 599 801 615 817 q 583 763 583 786 q 599 725 583 740 q 636 710 615 710 q 675 725 660 710 q 690 763 690 740 m 736 626 q 721 665 736 650 q 682 681 706 681 q 645 665 661 681 q 629 626 629 650 q 645 589 629 604 q 682 574 661 574 q 721 589 706 574 q 736 626 736 604 m 706 497 q 690 536 706 521 q 651 551 675 551 q 615 536 631 551 q 599 497 599 521 q 615 460 599 475 q 651 444 631 444 q 690 460 675 444 q 706 497 706 475 m 606 404 q 590 443 606 428 q 551 458 575 458 q 515 443 531 458 q 499 404 499 428 q 515 367 499 382 q 551 351 531 351 q 590 367 575 351 q 606 404 606 382 m 428 385 q 413 424 428 408 q 374 439 397 439 q 337 424 353 439 q 321 385 321 408 q 337 347 321 363 q 374 332 353 332 q 413 347 397 332 q 428 385 428 363 m 504 283 q 489 322 504 307 q 450 338 474 338 q 413 322 429 338 q 397 283 397 307 q 413 246 397 261 q 450 231 429 231 q 489 246 474 231 q 504 283 504 261 m 681 89 q 665 128 681 113 q 626 143 650 143 q 590 128 606 143 q 574 89 574 113 q 590 51 574 67 q 626 36 606 36 q 665 51 650 36 q 681 89 681 67 m 593 188 q 578 226 593 211 q 539 242 563 242 q 502 226 518 242 q 486 188 486 211 q 502 150 486 165 q 539 135 518 135 q 578 150 563 135 q 593 188 593 165 "},"s":{"ha":963,"x_min":46,"x_max":894,"o":"m 835 339 l 767 411 q 661 508 726 471 q 528 581 596 546 l 507 589 l 490 596 q 483 599 488 597 q 474 603 479 600 q 492 615 481 610 q 518 621 503 621 q 565 615 536 621 q 624 599 593 610 q 684 572 654 589 q 735 535 714 556 l 883 701 l 788 804 l 790 807 q 712 871 754 843 q 626 918 669 899 q 538 947 582 938 q 457 957 494 957 q 318 940 383 957 q 205 887 253 922 q 129 799 157 851 q 101 675 101 746 q 123 581 101 621 q 179 508 144 540 l 214 472 l 247 438 l 246 438 l 249 435 q 256 428 251 431 l 261 422 q 353 352 299 381 q 467 299 408 324 l 468 297 l 540 263 q 507 231 533 240 q 446 221 481 221 q 406 225 429 221 q 356 239 382 229 q 306 263 331 249 q 261 299 281 278 q 251 312 256 306 q 242 325 246 318 l 46 193 q 85 143 64 167 q 129 100 106 119 l 140 88 l 142 86 l 196 29 q 351 -80 267 -46 q 518 -114 435 -114 q 670 -94 601 -114 q 789 -36 739 -75 q 867 60 839 3 q 894 190 894 117 q 878 274 894 238 q 835 339 863 310 m 419 0 q 285 22 353 0 q 156 90 218 44 q 63 189 104 131 l 236 308 q 297 251 258 274 q 308 244 301 246 q 383 217 344 225 q 446 208 422 208 q 524 226 492 208 q 556 279 556 243 l 556 285 q 535 318 553 301 q 491 350 517 335 q 434 381 465 365 q 374 410 403 396 q 293 449 333 429 q 218 492 253 468 q 143 566 172 524 q 114 675 114 608 q 141 794 114 743 q 215 878 168 844 q 324 928 261 911 q 457 944 386 944 q 536 935 494 944 q 619 909 578 926 q 701 866 661 892 q 774 807 740 840 l 760 792 l 636 651 q 586 688 615 672 q 526 713 557 703 q 466 729 494 724 q 419 735 438 735 q 371 716 389 735 q 353 678 353 697 q 366 651 353 664 q 400 626 379 638 l 400 625 l 467 593 q 494 582 481 588 q 522 569 507 576 q 591 535 556 553 q 659 498 626 518 q 718 453 692 478 q 761 399 744 429 q 788 296 788 354 q 760 169 788 224 q 684 76 733 114 q 567 19 635 39 q 419 0 500 0 m 747 390 q 708 439 732 417 q 656 479 685 461 q 597 513 628 497 q 535 544 565 529 l 515 554 l 517 554 q 486 567 503 560 q 456 581 469 575 l 392 611 q 352 642 368 625 q 336 678 336 658 q 359 726 336 701 q 419 751 382 751 q 465 747 438 751 q 522 733 492 743 q 581 710 551 724 q 635 675 611 696 l 747 803 l 751 806 q 683 857 719 835 q 607 895 646 879 q 530 919 568 911 q 457 928 492 928 q 330 912 389 928 q 226 865 271 896 q 156 786 182 833 q 131 675 131 739 q 158 575 131 615 q 228 506 185 535 q 297 465 260 483 q 372 429 335 447 l 381 425 l 379 425 l 399 417 q 457 388 428 403 q 510 358 486 374 q 551 324 535 342 q 572 288 568 307 l 572 279 q 535 213 572 235 q 446 192 499 192 q 379 201 421 192 q 301 229 338 210 l 289 236 q 232 285 254 254 l 86 185 q 165 104 119 140 q 290 39 224 61 q 419 17 357 17 q 560 35 496 17 q 672 88 625 53 q 745 176 719 124 q 771 296 771 228 q 747 390 771 350 m 619 846 q 658 833 643 846 q 674 792 674 821 q 658 754 674 769 q 619 739 643 739 q 583 754 599 739 q 567 792 567 769 q 583 831 567 815 q 619 846 599 846 m 485 879 q 524 867 508 879 q 539 825 539 854 q 524 788 539 803 q 485 772 508 772 q 448 788 464 772 q 432 825 432 803 q 448 864 432 849 q 485 879 464 879 m 343 879 q 382 867 367 879 q 397 825 397 854 q 382 788 397 803 q 343 772 367 772 q 306 788 322 772 q 290 825 290 803 q 306 864 290 849 q 343 879 322 879 m 186 742 q 202 781 186 765 q 239 796 218 796 q 278 783 263 796 q 293 742 293 771 q 278 704 293 719 q 239 689 263 689 q 202 704 218 689 q 186 742 186 719 m 257 554 q 220 569 236 554 q 204 607 204 585 q 220 646 204 631 q 257 661 236 661 q 296 649 281 661 q 311 607 311 636 q 296 569 311 585 q 257 554 281 554 m 369 475 q 333 490 349 475 q 317 528 317 506 q 333 567 317 551 q 369 582 349 582 q 408 569 393 582 q 424 528 424 557 q 408 490 424 506 q 369 475 393 475 m 494 413 q 458 428 474 413 q 442 465 442 443 q 458 504 442 489 q 494 519 474 519 q 533 507 518 519 q 549 465 549 494 q 533 428 549 443 q 494 413 518 413 m 558 399 q 574 438 558 422 q 611 453 590 453 q 650 440 635 453 q 665 399 665 428 q 650 361 665 376 q 611 346 635 346 q 574 361 590 346 q 558 399 558 376 m 218 122 q 181 138 197 122 q 165 175 165 153 q 181 214 165 199 q 218 229 197 229 q 257 217 242 229 q 272 175 272 204 q 257 138 272 153 q 218 122 242 122 m 338 61 q 301 76 317 61 q 285 114 285 92 q 301 153 285 138 q 338 168 317 168 q 376 156 361 168 q 392 114 392 143 q 376 76 392 92 q 338 61 361 61 m 469 51 q 433 67 449 51 q 417 104 417 82 q 433 143 417 128 q 469 158 449 158 q 508 146 493 158 q 524 104 524 133 q 508 67 524 82 q 469 51 493 51 m 603 92 q 566 107 582 92 q 550 144 550 122 q 566 183 550 168 q 603 199 582 199 q 642 186 626 199 q 657 144 657 174 q 642 107 657 122 q 603 92 626 92 m 661 208 q 624 224 640 208 q 608 261 608 239 q 624 300 608 285 q 661 315 640 315 q 700 303 685 315 q 715 261 715 290 q 700 224 715 239 q 661 208 685 208 "},"t":{"ha":921,"x_min":29,"x_max":849,"o":"m 29 956 l 29 721 l 38 721 l 132 619 l 265 619 l 265 -12 l 274 -12 l 368 -114 l 594 -114 l 594 619 l 849 619 l 849 846 l 754 947 l 754 956 l 29 956 m 42 733 l 42 943 l 742 943 l 742 733 l 488 733 l 488 0 l 278 0 l 278 733 l 42 733 m 58 750 l 58 926 l 725 926 l 725 750 l 471 750 l 471 17 l 294 17 l 294 750 l 58 750 m 433 104 q 418 143 433 128 q 379 158 403 158 q 342 143 358 158 q 326 104 326 128 q 342 67 326 82 q 379 51 358 51 q 418 67 403 51 q 433 104 433 82 m 438 243 q 422 282 438 267 q 383 297 407 297 q 347 282 363 297 q 331 243 331 267 q 347 206 331 221 q 383 190 363 190 q 422 206 407 190 q 438 243 438 221 m 438 385 q 422 424 438 408 q 383 439 407 439 q 347 424 363 439 q 331 385 331 408 q 347 347 331 363 q 383 332 363 332 q 422 347 407 332 q 438 385 438 363 m 442 535 q 426 574 442 558 q 388 589 411 589 q 351 574 367 589 q 335 535 335 558 q 351 497 335 513 q 388 482 367 482 q 426 497 411 482 q 442 535 442 513 m 442 681 q 426 719 442 704 q 388 735 411 735 q 351 719 367 735 q 335 681 335 704 q 351 643 335 658 q 388 628 367 628 q 426 643 411 628 q 442 681 442 658 m 438 839 q 422 878 438 863 q 383 893 407 893 q 347 878 363 893 q 331 839 331 863 q 347 801 331 817 q 383 786 363 786 q 422 801 407 786 q 438 839 438 817 m 314 835 q 299 874 314 858 q 260 889 283 889 q 223 874 239 889 q 207 835 207 858 q 223 797 207 813 q 260 782 239 782 q 299 797 283 782 q 314 835 314 813 m 189 838 q 174 876 189 861 q 135 892 158 892 q 98 876 114 892 q 82 838 82 861 q 98 800 82 815 q 135 785 114 785 q 175 800 161 785 q 189 838 189 815 m 576 838 q 561 876 576 861 q 522 892 546 892 q 485 876 501 892 q 469 838 469 861 q 485 800 469 815 q 522 785 501 785 q 561 800 546 785 q 576 838 576 815 m 707 835 q 692 874 707 858 q 653 889 676 889 q 616 874 632 889 q 600 835 600 858 q 616 797 600 813 q 653 782 632 782 q 692 797 676 782 q 707 835 707 813 "},"u":{"ha":1118,"x_min":88,"x_max":1010,"o":"m 368 272 l 360 282 l 368 272 m 206 117 l 214 107 l 206 117 m 910 956 l 674 956 l 674 376 q 659 315 674 343 q 620 268 644 288 q 565 238 596 249 q 501 226 533 226 q 422 242 460 226 q 419 256 419 249 q 419 271 419 264 l 419 846 l 325 947 l 325 956 l 90 956 l 88 436 q 88 400 88 421 q 90 364 88 379 q 102 306 94 335 q 121 251 110 278 q 206 117 150 175 l 214 107 q 214 107 233 86 l 304 11 q 434 -81 358 -47 q 600 -114 510 -114 q 884 -16 776 -114 q 1007 258 992 82 q 1010 283 1010 269 q 1010 314 1010 297 q 1010 452 1010 382 q 1009 591 1010 522 q 1007 724 1008 660 q 1004 846 1006 789 l 910 946 l 910 956 m 686 943 l 897 943 q 901 692 900 829 q 903 419 903 556 q 903 390 903 404 q 900 364 903 375 l 900 365 q 781 97 886 193 q 501 0 675 0 q 351 27 419 0 q 229 103 282 54 q 144 219 176 151 q 103 365 111 286 q 100 399 100 381 q 100 436 100 418 l 103 943 l 313 943 l 313 376 q 328 310 313 340 q 372 259 344 281 q 432 226 399 238 q 501 214 465 214 q 569 226 536 214 q 628 259 601 238 q 670 310 654 281 q 686 376 686 340 l 686 943 m 703 926 l 881 926 q 885 684 883 813 q 886 419 886 556 q 886 392 886 406 q 883 368 886 379 q 847 221 876 286 q 769 110 818 156 q 651 41 719 65 q 501 17 583 17 q 357 42 424 17 q 240 115 290 68 q 159 226 190 161 q 119 367 128 290 q 117 400 117 382 q 117 436 117 418 q 118 681 117 558 q 119 926 119 804 l 296 926 l 296 376 q 313 303 296 336 q 360 247 331 271 q 426 210 389 224 q 501 197 463 197 q 575 210 539 197 q 640 247 611 224 q 685 303 668 271 q 703 376 703 336 l 703 926 m 264 840 q 249 879 264 864 q 210 894 233 894 q 173 879 189 894 q 157 840 157 864 q 173 803 157 818 q 210 788 189 788 q 249 803 233 788 q 264 840 264 818 m 260 699 q 244 738 260 722 q 206 753 229 753 q 169 738 185 753 q 153 699 153 722 q 169 661 153 676 q 206 646 185 646 q 244 661 229 646 q 260 699 260 676 m 260 565 q 244 604 260 589 q 206 619 229 619 q 169 604 185 619 q 153 565 153 589 q 169 528 153 543 q 206 513 185 513 q 244 528 229 513 q 260 565 260 543 m 264 432 q 249 471 264 456 q 210 486 233 486 q 173 471 189 486 q 157 432 157 456 q 173 394 157 410 q 210 379 189 379 q 249 394 233 379 q 264 432 264 410 m 285 290 q 269 329 285 314 q 231 344 254 344 q 194 329 210 344 q 178 290 178 314 q 194 253 178 268 q 231 238 210 238 q 269 253 254 238 q 285 290 285 268 m 356 169 q 340 208 356 193 q 301 224 325 224 q 265 208 281 224 q 249 169 249 193 q 265 132 249 147 q 301 117 281 117 q 340 132 325 117 q 356 169 356 147 m 481 115 q 465 154 481 139 q 426 169 450 169 q 390 154 406 169 q 374 115 374 139 q 390 78 374 93 q 426 63 406 63 q 465 78 450 63 q 481 115 481 93 m 618 115 q 603 154 618 139 q 564 169 588 169 q 527 154 543 169 q 511 115 511 139 q 527 78 511 93 q 564 63 543 63 q 603 78 588 63 q 618 115 618 93 m 751 169 q 736 208 751 193 q 697 224 721 224 q 660 208 676 224 q 644 169 644 193 q 660 132 644 147 q 697 117 676 117 q 736 132 721 117 q 751 169 751 147 m 826 283 q 811 322 826 307 q 772 338 796 338 q 735 322 751 338 q 719 283 719 307 q 735 246 719 261 q 772 231 751 231 q 811 246 796 231 q 826 283 826 261 m 856 425 q 840 464 856 449 q 801 479 825 479 q 765 464 781 479 q 749 425 749 449 q 765 388 749 403 q 801 372 781 372 q 840 388 825 372 q 856 425 856 403 m 843 558 q 828 597 843 582 q 789 613 813 613 q 752 597 768 613 q 736 558 736 582 q 752 521 736 536 q 789 506 768 506 q 828 521 813 506 q 843 558 843 536 m 856 696 q 840 735 856 719 q 801 750 825 750 q 765 735 781 750 q 749 696 749 719 q 765 658 749 674 q 801 643 781 643 q 840 658 825 643 q 856 696 856 674 m 860 846 q 844 885 860 869 q 806 900 829 900 q 769 885 785 900 q 753 846 753 869 q 769 808 753 824 q 806 793 785 793 q 844 808 829 793 q 860 846 860 824 "},"v":{"ha":958,"x_min":-1,"x_max":918,"o":"m 418 -112 l 514 -215 l 918 844 l 822 946 l 826 954 l 568 954 l 443 621 l 357 846 l 265 943 l 261 956 l -1 953 l 415 -122 l 418 -112 m 418 515 l 578 942 l 807 942 l 415 -85 l 18 940 l 253 943 l 418 515 m 418 469 l 589 925 l 783 925 l 415 -39 q 320 206 367 86 q 228 443 274 325 q 136 680 182 561 q 42 924 90 799 q 143 925 97 924 q 242 926 189 926 l 418 469 m 417 154 q 456 169 440 154 q 471 207 471 185 q 456 246 471 231 q 417 261 440 261 q 380 246 396 261 q 364 207 364 231 q 380 169 364 185 q 417 154 396 154 m 482 290 q 521 306 506 290 q 536 343 536 321 q 521 382 536 367 q 482 397 506 397 q 445 382 461 397 q 429 343 429 367 q 445 306 429 321 q 482 290 461 290 m 357 293 q 396 308 381 293 q 411 346 411 324 q 396 385 411 369 q 357 400 381 400 q 320 385 336 400 q 304 346 304 369 q 320 308 304 324 q 357 293 336 293 m 307 414 q 346 429 331 414 q 361 467 361 444 q 346 506 361 490 q 307 521 331 521 q 270 506 286 521 q 254 467 254 490 q 270 429 254 444 q 307 414 286 414 m 260 536 q 299 551 283 536 q 314 589 314 567 q 299 628 314 613 q 260 643 283 643 q 223 628 239 643 q 207 589 207 613 q 223 551 207 567 q 260 536 239 536 m 165 796 q 204 811 189 796 q 219 849 219 826 q 204 888 219 872 q 165 903 189 903 q 128 888 144 903 q 113 849 113 872 q 128 811 113 826 q 165 796 144 796 m 218 667 q 257 682 242 667 q 272 719 272 697 q 257 758 272 743 q 218 774 242 774 q 181 758 197 774 q 165 719 165 743 q 181 682 165 697 q 218 667 197 667 m 525 419 q 564 435 549 419 q 579 472 579 450 q 564 511 579 496 q 525 526 549 526 q 488 511 504 526 q 472 472 472 496 q 488 435 472 450 q 525 419 504 419 m 568 549 q 607 564 592 549 q 622 601 622 579 q 607 640 622 625 q 568 656 592 656 q 531 640 547 656 q 515 601 515 625 q 531 564 515 579 q 568 549 547 549 m 619 669 q 658 685 643 669 q 674 722 674 700 q 658 761 674 746 q 619 776 643 776 q 583 761 599 776 q 567 722 567 746 q 583 685 567 700 q 619 669 599 669 m 664 800 q 703 815 688 800 q 718 853 718 831 q 703 892 718 876 q 664 907 688 907 q 627 892 643 907 q 611 853 611 876 q 627 815 611 831 q 664 800 643 800 "},"w":{"ha":1410,"x_min":-1,"x_max":1369,"o":"m 1369 846 l 1274 947 l 1278 956 l 1019 956 l 978 860 l 896 947 l 900 956 l 678 956 l 658 926 l 646 904 l 611 942 l 606 956 l 376 956 q 390 921 382 940 q 407 880 397 901 q 426 837 417 858 q 444 797 436 815 l 510 642 l 474 557 l 353 846 l 263 942 l 257 956 l -1 956 l 449 -106 l 451 -97 l 547 -200 q 625 -14 583 -108 q 707 174 667 81 l 825 -107 l 828 -99 l 924 -201 l 1369 846 m 1258 943 l 825 -74 l 638 369 l 449 -72 l 18 943 l 249 943 l 449 472 q 486 553 468 513 q 524 642 504 593 l 396 943 l 599 943 l 638 858 q 640 865 639 861 q 644 875 642 869 q 658 901 649 885 q 683 943 667 917 l 882 943 l 753 644 l 825 474 l 1028 943 l 1258 943 m 1232 926 l 1039 926 l 825 431 l 735 644 l 856 926 l 693 926 q 669 879 678 901 q 654 840 660 857 q 649 822 651 831 q 644 804 647 813 l 588 926 l 421 926 l 471 808 l 542 642 q 506 558 524 597 q 472 483 489 519 l 447 432 l 238 926 l 43 926 l 449 -29 q 495 80 471 24 q 544 193 519 136 q 593 306 569 250 q 638 413 617 361 l 825 -32 q 1028 447 929 213 q 1232 926 1126 681 m 735 890 q 774 875 758 890 q 789 836 789 860 q 774 799 789 814 q 735 783 758 783 q 698 799 714 783 q 682 836 682 814 q 698 875 682 860 q 735 890 714 890 m 638 779 q 676 764 661 779 q 692 725 692 749 q 676 688 692 703 q 638 672 661 672 q 601 688 617 672 q 585 725 585 703 q 601 764 585 749 q 638 779 617 779 m 538 782 q 501 797 517 782 q 485 835 485 813 q 501 874 485 858 q 538 889 517 889 q 576 874 561 889 q 592 835 592 858 q 576 797 592 813 q 538 782 561 782 m 128 828 q 144 867 128 851 q 181 882 160 882 q 219 867 204 882 q 235 828 235 851 q 219 790 235 806 q 181 775 204 775 q 144 790 160 775 q 128 828 128 806 m 183 710 q 199 749 183 733 q 236 764 215 764 q 275 749 260 764 q 290 710 290 733 q 275 672 290 688 q 236 657 260 657 q 199 672 215 657 q 183 710 183 688 m 229 582 q 245 621 229 606 q 282 636 261 636 q 321 621 306 636 q 336 582 336 606 q 321 544 336 560 q 282 529 306 529 q 245 544 261 529 q 229 582 229 560 m 286 449 q 302 488 286 472 q 339 503 318 503 q 378 488 363 503 q 393 449 393 472 q 378 411 393 426 q 339 396 363 396 q 302 411 318 396 q 286 449 286 426 m 336 315 q 352 354 336 339 q 389 369 368 369 q 428 354 413 369 q 443 315 443 339 q 428 278 443 293 q 389 263 413 263 q 352 278 368 263 q 336 315 336 293 m 451 129 q 415 144 431 129 q 399 182 399 160 q 415 221 399 206 q 451 236 431 236 q 490 221 475 236 q 506 182 506 206 q 490 144 506 160 q 451 129 475 129 m 511 267 q 474 282 490 267 q 458 319 458 297 q 474 358 458 343 q 511 374 490 374 q 550 358 535 374 q 565 319 565 343 q 550 282 565 297 q 511 267 535 267 m 560 414 q 523 429 539 414 q 507 467 507 444 q 523 506 507 490 q 560 521 539 521 q 599 506 583 521 q 614 467 614 490 q 599 429 614 444 q 560 414 583 414 m 581 590 q 597 629 581 614 q 633 644 613 644 q 672 629 657 644 q 688 590 688 614 q 672 553 688 568 q 633 538 657 538 q 597 553 613 538 q 581 590 581 568 m 660 464 q 676 505 660 488 q 714 522 692 522 q 753 505 738 522 q 769 464 769 488 q 753 424 769 440 q 714 408 738 408 q 676 424 692 408 q 660 464 660 440 m 710 319 q 724 360 710 343 q 763 376 739 376 q 799 360 783 376 q 814 319 814 343 q 799 281 814 297 q 763 265 783 265 q 724 281 739 265 q 710 319 710 297 m 826 117 q 787 133 803 117 q 771 172 771 149 q 787 213 771 196 q 826 231 803 231 q 864 213 847 231 q 881 172 881 196 q 864 133 881 149 q 826 117 847 117 m 890 258 q 851 274 867 258 q 835 313 835 289 q 851 353 835 336 q 890 371 867 371 q 927 353 911 371 q 943 313 943 336 q 927 274 943 289 q 890 258 911 258 m 942 397 q 901 413 918 397 q 885 453 885 429 q 901 494 885 476 q 942 511 918 511 q 979 494 964 511 q 994 453 994 476 q 979 413 994 429 q 942 397 964 397 m 1000 539 q 959 555 975 539 q 943 594 943 571 q 959 635 943 618 q 1000 651 975 651 q 1037 635 1021 651 q 1053 594 1053 618 q 1037 555 1053 571 q 1000 539 1021 539 m 1046 672 q 1007 689 1022 672 q 992 729 992 706 q 1007 769 992 753 q 1046 785 1022 785 q 1083 769 1067 785 q 1100 729 1100 753 q 1083 689 1100 706 q 1046 672 1067 672 m 1103 797 q 1063 813 1079 797 q 1047 853 1047 829 q 1063 893 1047 876 q 1103 910 1079 910 q 1140 893 1124 910 q 1156 853 1156 876 q 1140 813 1156 829 q 1103 797 1124 797 "},"x":{"ha":943,"x_min":47,"x_max":908,"o":"m 813 947 l 817 956 l 551 956 q 533 919 543 939 q 513 881 524 900 q 495 848 504 864 q 479 817 486 832 l 450 763 l 449 761 l 404 846 l 317 939 l 308 956 l 47 956 q 175 712 107 840 q 303 467 243 583 l 57 -12 l 68 -12 l 163 -114 l 421 -114 l 507 58 l 544 -12 l 551 -12 l 646 -114 l 900 -114 l 661 361 l 908 846 l 813 947 m 796 943 l 554 467 l 789 0 l 551 0 l 433 231 l 404 174 q 360 86 383 133 q 317 0 336 39 l 78 0 l 315 467 l 68 943 l 301 943 l 432 700 q 497 823 464 761 q 560 943 531 885 l 796 943 m 768 926 l 535 467 q 649 242 589 358 q 763 17 708 125 l 563 17 l 433 268 l 389 181 l 306 17 l 106 17 l 335 468 q 215 697 276 581 q 96 926 154 814 l 290 926 l 432 664 l 506 803 l 571 926 l 768 926 m 288 840 q 272 879 288 864 q 233 894 257 894 q 197 879 213 894 q 181 840 181 864 q 197 803 181 818 q 233 788 213 788 q 272 803 257 788 q 288 840 288 818 m 358 724 q 343 763 358 747 q 304 778 328 778 q 267 763 283 778 q 251 724 251 747 q 267 686 251 701 q 304 671 283 671 q 343 686 328 671 q 358 724 358 701 m 417 599 q 401 638 417 622 q 363 653 386 653 q 326 638 342 653 q 310 599 310 622 q 326 561 310 576 q 363 546 342 546 q 401 561 386 546 q 417 599 417 576 m 492 474 q 476 513 492 497 q 438 528 461 528 q 401 513 417 528 q 385 474 385 497 q 401 436 385 451 q 438 421 417 421 q 476 436 461 421 q 492 474 492 451 m 550 340 q 535 379 550 364 q 496 394 519 394 q 459 379 475 394 q 443 340 443 364 q 459 303 443 318 q 496 288 475 288 q 535 303 519 288 q 550 340 550 318 m 671 103 q 656 142 671 126 q 617 157 640 157 q 580 142 596 157 q 564 103 564 126 q 580 65 564 81 q 617 50 596 50 q 656 65 640 50 q 671 103 671 81 m 613 219 q 597 258 613 243 q 558 274 582 274 q 522 258 538 274 q 506 219 506 243 q 522 182 506 197 q 558 167 538 167 q 597 182 582 167 q 613 219 613 197 m 558 599 q 543 638 558 622 q 504 653 528 653 q 467 638 483 653 q 451 599 451 622 q 467 561 451 576 q 504 546 483 546 q 543 561 528 546 q 558 599 558 576 m 617 715 q 601 754 617 739 q 563 769 586 769 q 526 754 542 769 q 510 715 510 739 q 526 678 510 693 q 563 663 542 663 q 601 678 586 663 q 617 715 617 693 m 688 836 q 672 875 688 860 q 633 890 657 890 q 597 875 613 890 q 581 836 581 860 q 597 799 581 814 q 633 783 613 783 q 672 799 657 783 q 688 836 688 814 m 418 347 q 403 386 418 371 q 364 401 388 401 q 327 386 343 401 q 311 347 311 371 q 327 310 311 325 q 364 294 343 294 q 403 310 388 294 q 418 347 418 325 m 357 226 q 342 265 357 250 q 303 281 326 281 q 266 265 282 281 q 250 226 250 250 q 266 189 250 204 q 303 174 282 174 q 342 189 326 174 q 357 226 357 204 m 300 94 q 285 133 300 118 q 246 149 269 149 q 209 133 225 149 q 193 94 193 118 q 209 57 193 72 q 246 42 225 42 q 285 57 269 42 q 300 94 300 72 "},"y":{"ha":949,"x_min":-1,"x_max":908,"o":"m 813 947 l 817 956 l 551 956 q 467 810 496 867 q 422 718 438 753 l 356 846 l 268 939 l 260 956 l -1 956 l 288 389 l 288 390 l 292 -12 l 300 -12 l 394 -114 l 625 -114 q 625 -25 625 -78 q 626 84 625 28 q 626 194 626 140 q 626 285 626 247 l 908 846 l 813 947 m 796 943 l 519 392 l 518 0 l 304 0 l 300 392 l 19 943 l 253 943 l 410 642 q 418 669 413 650 q 439 722 424 688 q 482 810 454 756 q 558 943 510 864 l 796 943 m 768 926 l 503 396 q 502 206 503 300 q 501 17 501 113 l 321 17 l 317 396 q 181 661 250 529 q 46 926 113 793 l 242 926 l 410 604 l 426 642 q 438 675 431 654 q 460 729 444 696 q 501 811 475 763 q 567 926 526 860 l 768 926 m 247 836 q 232 875 247 860 q 193 890 217 890 q 156 875 172 890 q 140 836 140 860 q 156 799 140 814 q 193 783 172 783 q 232 799 217 783 q 247 836 247 814 m 311 710 q 296 749 311 733 q 257 764 281 764 q 220 749 236 764 q 204 710 204 733 q 220 672 204 688 q 257 657 236 657 q 296 672 281 657 q 311 710 311 688 m 379 576 q 364 615 379 600 q 325 631 349 631 q 288 615 304 631 q 272 576 272 600 q 288 539 272 554 q 325 524 304 524 q 364 539 349 524 q 379 576 379 554 m 460 436 q 444 475 460 460 q 406 490 429 490 q 369 475 385 490 q 353 436 353 460 q 369 399 353 414 q 406 383 385 383 q 444 399 429 383 q 460 436 460 414 m 551 586 q 536 625 551 610 q 497 640 521 640 q 460 625 476 640 q 444 586 444 610 q 460 549 444 564 q 497 533 476 533 q 536 549 521 533 q 551 586 551 564 m 614 711 q 599 750 614 735 q 560 765 583 765 q 523 750 539 765 q 507 711 507 735 q 523 674 507 689 q 560 658 539 658 q 599 674 583 658 q 614 711 614 689 m 685 840 q 669 879 685 864 q 631 894 654 894 q 594 879 610 894 q 578 840 578 864 q 594 803 578 818 q 631 788 610 788 q 669 803 654 788 q 685 840 685 818 m 456 294 q 440 333 456 318 q 401 349 425 349 q 365 333 381 349 q 349 294 349 318 q 365 257 349 272 q 401 242 381 242 q 440 257 425 242 q 456 294 456 272 m 468 140 q 453 179 468 164 q 414 194 438 194 q 377 179 393 194 q 361 140 361 164 q 377 103 361 118 q 414 88 393 88 q 453 103 438 88 q 468 140 468 118 "},"z":{"ha":999,"x_min":65,"x_max":946,"o":"m 850 947 l 854 956 l 86 956 l 86 726 l 94 726 l 189 625 l 406 625 l 65 -12 l 76 -12 l 171 -114 l 929 -114 l 929 113 l 835 214 l 835 222 l 610 222 l 946 846 l 850 947 m 833 943 l 439 210 l 822 210 l 822 0 l 86 0 l 481 739 l 99 739 l 99 943 l 833 943 m 806 926 l 410 193 l 806 193 l 806 17 l 114 17 l 510 756 l 115 756 l 115 926 l 806 926 m 264 836 q 249 875 264 860 q 210 890 233 890 q 173 875 189 890 q 157 836 157 860 q 173 799 157 814 q 210 783 189 783 q 249 799 233 783 q 264 836 264 814 m 397 833 q 382 872 397 857 q 343 888 367 888 q 306 872 322 888 q 290 833 290 857 q 306 796 290 811 q 343 781 322 781 q 382 796 367 781 q 397 833 397 811 m 539 833 q 524 872 539 857 q 485 888 508 888 q 448 872 464 888 q 432 833 432 857 q 448 796 432 811 q 485 781 464 781 q 524 796 508 781 q 539 833 539 811 m 693 833 q 678 872 693 857 q 639 888 663 888 q 602 872 618 888 q 586 833 586 857 q 602 796 586 811 q 639 781 618 781 q 678 796 663 781 q 693 833 693 811 m 638 710 q 622 749 638 733 q 583 764 607 764 q 547 749 563 764 q 531 710 531 733 q 547 672 531 688 q 583 657 563 657 q 622 672 607 657 q 638 710 638 688 m 583 593 q 568 632 583 617 q 529 647 553 647 q 492 632 508 647 q 476 593 476 617 q 492 556 476 571 q 529 540 508 540 q 568 556 553 540 q 583 593 583 571 m 501 469 q 486 508 501 493 q 447 524 471 524 q 410 508 426 524 q 394 469 394 493 q 410 432 394 447 q 447 417 426 417 q 486 432 471 417 q 501 469 501 447 m 442 340 q 426 379 442 364 q 388 394 411 394 q 351 379 367 394 q 335 340 335 364 q 351 303 335 318 q 388 288 367 288 q 426 303 411 288 q 442 340 442 318 m 379 228 q 364 267 379 251 q 325 282 349 282 q 288 267 304 282 q 272 228 272 251 q 288 190 272 206 q 325 175 304 175 q 364 190 349 175 q 379 228 379 206 m 318 101 q 303 140 318 125 q 264 156 288 156 q 227 140 243 156 q 211 101 211 125 q 227 64 211 79 q 264 49 243 49 q 303 64 288 49 q 318 101 318 79 m 472 103 q 457 142 472 126 q 418 157 442 157 q 381 142 397 157 q 365 103 365 126 q 381 65 365 81 q 418 50 397 50 q 457 65 442 50 q 472 103 472 81 m 618 99 q 603 138 618 122 q 564 153 588 153 q 527 138 543 153 q 511 99 511 122 q 527 61 511 76 q 564 46 543 46 q 603 61 588 46 q 618 99 618 76 m 776 107 q 761 146 776 131 q 722 161 746 161 q 685 146 701 161 q 669 107 669 131 q 685 69 669 85 q 722 54 701 54 q 761 69 746 54 q 776 107 776 85 "},"D":{"ha":1118,"x_min":101,"x_max":1035,"o":"m 551 214 q 676 310 628 236 q 707 382 696 342 q 718 464 718 422 q 682 617 718 547 q 500 736 619 729 q 484 736 493 736 q 457 737 475 736 q 407 738 439 738 q 321 738 375 738 l 318 738 l 318 206 l 503 206 q 551 214 518 206 m 432 219 l 432 626 q 465 627 439 626 q 526 622 490 628 q 611 597 564 615 q 696 533 658 578 q 704 464 704 500 q 660 315 704 379 q 546 228 617 250 q 503 219 517 219 l 432 219 m 819 756 q 667 881 760 836 q 456 926 574 926 l 131 926 l 131 17 q 293 16 214 17 q 456 15 372 15 q 642 45 558 15 q 786 133 726 75 q 878 273 846 190 q 911 460 911 356 q 819 756 911 636 m 861 576 q 846 540 861 554 q 807 525 831 525 q 770 540 786 525 q 754 576 754 554 q 770 615 754 600 q 807 631 786 631 q 846 615 831 631 q 861 576 861 600 m 743 754 q 782 739 767 754 q 797 700 797 724 q 782 663 797 678 q 743 649 767 649 q 706 663 722 649 q 690 700 690 678 q 706 739 690 724 q 743 754 722 754 m 628 849 q 667 833 651 849 q 682 794 682 818 q 667 758 682 774 q 628 743 651 743 q 591 758 607 743 q 575 794 575 774 q 591 833 575 818 q 628 849 607 849 m 485 888 q 524 872 508 888 q 539 833 539 857 q 524 797 539 813 q 485 782 508 782 q 448 797 464 782 q 432 833 432 813 q 448 872 432 857 q 485 888 464 888 m 354 888 q 393 872 378 888 q 408 833 408 857 q 393 797 408 813 q 354 782 378 782 q 317 797 333 782 q 301 833 301 813 q 317 872 301 857 q 354 888 333 888 m 301 189 l 304 754 q 393 754 358 754 q 449 753 428 754 q 483 753 471 753 q 501 753 494 753 q 615 717 564 750 q 697 625 665 683 q 735 464 735 556 q 723 377 735 419 q 690 300 711 335 q 632 235 667 261 q 556 197 597 210 q 503 189 522 189 l 301 189 m 224 583 q 263 569 247 583 q 278 531 278 554 q 263 493 278 508 q 224 478 247 478 q 187 493 203 478 q 171 531 171 508 q 187 569 171 554 q 224 583 203 583 m 174 669 q 190 708 174 693 q 226 724 206 724 q 265 708 250 724 q 281 669 281 693 q 265 633 281 649 q 226 618 250 618 q 190 633 206 618 q 174 669 174 649 m 228 42 q 191 57 207 42 q 175 94 175 72 q 191 132 175 117 q 228 147 207 147 q 267 132 251 147 q 282 94 282 117 q 267 57 282 72 q 228 42 251 42 m 228 186 q 191 201 207 186 q 175 238 175 217 q 191 276 175 261 q 228 292 207 292 q 267 276 251 292 q 282 238 282 261 q 267 201 282 217 q 228 186 251 186 m 228 339 q 191 354 207 339 q 175 392 175 369 q 191 429 175 414 q 228 444 207 444 q 267 429 251 444 q 282 392 282 414 q 267 354 282 369 q 228 339 251 339 m 228 772 q 191 788 207 772 q 175 825 175 803 q 191 863 175 849 q 228 878 207 878 q 267 863 251 878 q 282 825 282 849 q 267 788 282 803 q 228 772 251 772 m 353 42 q 316 57 332 42 q 300 94 300 72 q 316 132 300 117 q 353 147 332 147 q 392 132 376 147 q 407 94 407 117 q 392 57 407 72 q 353 42 376 42 m 476 56 q 440 70 456 56 q 424 107 424 85 q 440 146 424 131 q 476 161 456 161 q 515 146 500 161 q 531 107 531 131 q 515 70 531 85 q 476 56 500 56 m 607 83 q 570 98 586 83 q 554 135 554 113 q 570 174 554 158 q 607 189 586 189 q 646 174 631 189 q 661 135 661 158 q 646 98 661 113 q 607 83 631 83 m 726 153 q 690 167 706 153 q 674 204 674 182 q 690 243 674 228 q 726 258 706 258 q 765 243 750 258 q 781 204 781 228 q 765 167 781 182 q 726 153 750 153 m 796 269 q 759 285 775 269 q 743 321 743 300 q 759 360 743 344 q 796 375 775 375 q 835 360 819 375 q 850 321 850 344 q 835 285 850 300 q 796 269 819 269 m 821 397 q 784 413 800 397 q 768 449 768 428 q 784 488 768 472 q 821 503 800 503 q 860 488 844 503 q 875 449 875 472 q 860 413 875 428 q 821 397 844 397 m 904 706 l 903 707 l 900 710 q 899 711 900 710 q 893 717 897 713 q 880 732 889 722 q 854 760 871 742 q 690 903 790 851 q 456 956 589 956 l 101 956 l 101 -12 l 110 -12 l 204 -114 l 554 -115 q 751 -83 663 -115 q 903 9 840 -51 q 1000 156 965 69 q 1035 354 1035 243 q 1001 551 1035 463 q 904 706 968 639 m 456 -1 l 114 0 l 114 943 l 456 943 q 674 896 578 943 q 833 765 771 849 q 903 627 879 703 q 928 460 928 551 q 894 265 928 351 q 798 120 860 179 q 649 30 736 61 q 456 -1 561 -1 "},"!":{"ha":572,"x_min":126,"x_max":454,"o":"m 454 158 l 454 835 l 360 936 l 360 944 l 126 944 l 126 260 l 133 260 l 182 207 q 144 165 158 192 q 129 107 129 139 q 144 50 129 76 q 182 8 158 24 l 263 -69 q 281 -86 278 -85 q 347 -108 308 -108 q 422 -76 392 -108 q 453 4 453 -44 q 424 78 453 46 l 417 83 l 418 83 l 410 92 l 363 158 l 454 158 m 347 272 l 139 272 l 139 932 l 347 932 l 347 272 m 250 0 q 172 32 204 0 q 140 110 140 64 q 172 188 140 156 q 250 219 204 219 q 328 188 296 219 q 360 110 360 156 q 328 32 360 64 q 250 0 296 0 m 250 203 q 184 176 211 203 q 157 110 157 149 q 184 44 157 71 q 250 17 211 17 q 316 44 289 17 q 343 110 343 71 q 316 176 343 149 q 250 203 289 203 m 250 50 q 213 65 229 50 q 197 103 197 81 q 213 142 197 126 q 250 157 229 157 q 289 142 274 157 q 304 103 304 126 q 289 65 304 81 q 250 50 274 50 m 331 915 l 156 915 l 156 289 l 331 289 l 331 915 m 242 329 q 205 344 221 329 q 189 382 189 360 q 205 421 189 406 q 242 436 221 436 q 281 421 265 436 q 296 382 296 406 q 281 344 296 360 q 242 329 265 329 m 185 524 q 201 563 185 547 q 238 578 217 578 q 276 563 261 578 q 292 524 292 547 q 276 486 292 501 q 238 471 261 471 q 201 486 217 471 q 185 524 185 501 m 242 621 q 205 636 221 621 q 189 674 189 651 q 205 713 189 697 q 242 728 221 728 q 281 713 265 728 q 296 674 296 697 q 281 636 296 651 q 242 621 265 621 m 242 763 q 205 778 221 763 q 189 815 189 793 q 205 854 189 839 q 242 869 221 869 q 281 854 265 869 q 296 815 296 839 q 281 778 296 793 q 242 763 265 763 "},",":{"ha":443,"x_min":75,"x_max":429,"o":"m 140 -140 l 236 -243 q 303 -207 269 -228 q 365 -158 338 -186 q 411 -94 393 -129 q 429 -15 429 -60 q 420 43 428 17 q 396 88 413 69 l 318 169 q 278 213 304 197 q 210 229 251 229 q 113 196 143 229 q 83 115 83 163 q 95 56 83 88 q 126 -1 107 25 l 75 -62 l 136 -143 l 140 -140 m 322 90 q 306 13 322 47 q 263 -47 289 -21 q 204 -94 236 -74 q 142 -128 172 -114 l 92 -62 l 143 0 q 103 69 115 32 q 99 140 92 107 q 133 194 106 172 q 210 217 160 217 q 297 181 272 217 q 322 90 321 146 m 306 90 q 291 23 306 53 q 253 -31 276 -7 q 202 -74 231 -56 q 146 -107 174 -93 q 128 -84 135 -94 q 113 -62 121 -74 l 164 1 q 113 115 113 60 q 135 175 113 150 q 210 200 158 200 q 283 169 263 200 q 306 90 304 139 m 265 99 q 250 138 265 122 q 211 153 235 153 q 174 138 190 153 q 158 99 158 122 q 174 61 158 76 q 211 46 190 46 q 250 61 235 46 q 265 99 265 76 "},".":{"ha":407,"x_min":54,"x_max":403,"o":"m 96 26 l 92 32 l 96 26 m 363 97 l 363 96 l 293 171 q 247 222 278 203 q 181 240 217 240 q 133 231 156 240 q 92 203 110 221 q 65 163 75 186 q 54 114 54 140 q 72 49 54 78 q 117 4 89 21 l 183 -67 l 183 -65 l 190 -74 q 230 -103 207 -92 q 279 -114 253 -114 q 326 -104 304 -114 q 366 -78 349 -94 q 393 -39 383 -61 q 403 8 403 -17 q 369 90 403 54 q 366 94 367 93 q 363 97 365 96 m 67 114 q 101 194 67 161 q 181 228 135 228 q 262 194 228 228 q 296 114 296 161 q 262 33 296 67 q 181 0 228 0 q 101 33 135 0 q 67 114 67 67 m 83 114 q 112 183 83 154 q 181 211 140 211 q 250 183 221 211 q 279 114 279 154 q 250 45 279 74 q 181 17 221 17 q 112 45 140 17 q 83 114 83 74 m 235 115 q 219 154 235 139 q 181 169 204 169 q 144 154 160 169 q 128 115 128 139 q 144 78 128 93 q 181 63 160 63 q 219 78 204 63 q 235 115 235 93 "},":":{"ha":522,"x_min":85,"x_max":439,"o":"m 211 211 q 142 183 171 211 q 114 114 114 154 q 142 45 114 74 q 211 17 171 17 q 281 45 251 17 q 310 114 310 74 q 281 183 310 154 q 211 211 251 211 m 211 63 q 174 78 190 63 q 158 115 158 93 q 174 154 158 139 q 211 169 190 169 q 250 154 235 169 q 265 115 265 139 q 250 78 265 93 q 211 63 235 63 m 217 718 q 286 747 257 718 q 315 815 315 775 q 286 884 315 856 q 217 913 257 913 q 148 884 176 913 q 119 815 119 856 q 148 747 119 775 q 217 718 176 718 m 217 871 q 256 856 240 871 q 271 817 271 840 q 256 779 271 794 q 217 764 240 764 q 180 779 196 764 q 164 817 164 794 q 180 856 164 840 q 217 871 196 871 m 393 97 l 393 96 l 324 171 q 278 222 308 203 q 211 240 247 240 q 163 231 186 240 q 123 203 140 221 q 95 163 106 186 q 85 114 85 140 q 102 49 85 78 q 147 4 119 21 l 214 -67 l 214 -65 l 221 -74 q 260 -103 238 -92 q 310 -114 283 -114 q 357 -104 335 -114 q 397 -78 379 -94 q 424 -39 414 -61 q 433 8 433 -17 q 400 90 433 54 q 397 94 397 93 q 393 97 396 96 m 211 0 q 131 33 165 0 q 97 114 97 67 q 131 194 97 161 q 211 228 165 228 q 292 194 258 228 q 326 114 326 161 q 292 33 326 67 q 211 0 258 0 m 153 706 l 219 635 l 219 636 l 226 628 q 266 599 243 610 q 315 588 289 588 q 363 597 340 588 q 402 624 385 607 q 429 663 419 640 q 439 710 439 685 q 406 792 439 756 q 402 796 403 794 q 399 799 401 797 l 399 797 l 329 872 q 283 923 314 904 q 217 942 253 942 q 169 932 192 942 q 128 905 146 922 q 101 865 111 888 q 90 815 90 842 q 108 751 90 779 q 153 706 125 722 m 217 929 q 298 896 264 929 q 332 815 332 863 q 298 735 332 768 q 217 701 264 701 q 137 735 171 701 q 103 815 103 768 q 137 896 103 863 q 217 929 171 929 "},";":{"ha":531,"x_min":96,"x_max":451,"o":"m 232 200 q 158 175 181 200 q 135 115 135 150 q 186 1 135 58 l 135 -62 q 150 -84 143 -74 q 168 -107 157 -94 q 224 -74 196 -93 q 276 -31 253 -56 q 313 23 299 -7 q 328 90 328 53 q 306 169 326 139 q 232 200 285 200 m 233 46 q 197 61 213 46 q 181 99 181 76 q 197 138 181 122 q 233 153 213 153 q 272 138 257 153 q 288 99 288 122 q 272 61 288 76 q 233 46 257 46 m 222 718 q 292 747 263 718 q 321 815 321 775 q 292 884 321 856 q 222 913 263 913 q 153 884 182 913 q 125 815 125 856 q 153 747 125 775 q 222 718 182 718 m 222 871 q 261 856 246 871 q 276 817 276 840 q 261 779 276 794 q 222 764 246 764 q 185 779 201 764 q 169 817 169 794 q 185 856 169 840 q 222 871 201 871 m 418 88 l 340 169 q 300 213 326 197 q 232 229 274 229 q 135 196 165 229 q 106 115 106 163 q 117 56 106 88 q 149 -1 129 25 l 97 -62 l 158 -143 l 163 -140 l 258 -243 q 326 -207 292 -228 q 388 -158 360 -186 q 433 -94 415 -129 q 451 -15 451 -60 q 442 43 450 17 q 418 88 435 69 m 164 -128 l 114 -62 l 165 0 q 126 69 138 32 q 121 140 114 107 q 155 194 128 172 q 232 217 182 217 q 319 181 294 217 q 344 90 343 146 q 328 13 344 47 q 285 -47 311 -21 q 226 -94 258 -74 q 164 -128 194 -114 m 158 706 l 225 635 l 225 636 l 232 628 q 272 599 249 610 q 321 588 294 588 q 368 597 346 588 q 408 624 390 607 q 435 663 425 640 q 444 710 444 685 q 411 792 444 756 q 408 796 408 794 q 404 799 407 797 l 404 797 l 335 872 q 289 923 319 904 q 222 942 258 942 q 174 932 197 942 q 134 905 151 922 q 106 865 117 888 q 96 815 96 842 q 113 751 96 779 q 158 706 131 722 m 222 929 q 303 896 269 929 q 338 815 338 863 q 303 735 338 768 q 222 701 269 701 q 142 735 176 701 q 108 815 108 768 q 142 896 108 863 q 222 929 176 929 "},"?":{"ha":825,"x_min":46,"x_max":767,"o":"m 696 761 l 628 835 q 361 958 547 958 q 189 906 274 958 q 46 754 104 854 q 63 742 51 747 l 150 649 q 193 617 168 636 q 244 578 218 599 q 294 540 271 558 q 331 510 317 522 q 413 606 365 582 q 396 582 406 594 q 374 557 386 569 q 290 440 326 508 q 233 267 253 371 l 242 267 l 289 217 q 256 176 268 200 q 244 125 244 153 q 249 94 244 108 q 299 18 257 46 l 379 -60 q 397 -76 394 -75 q 464 -99 425 -99 q 539 -67 508 -99 q 569 14 569 -35 q 536 93 569 60 l 481 165 l 571 165 q 607 260 585 228 q 654 318 629 292 q 695 362 675 339 q 731 413 715 385 q 757 475 747 440 q 767 554 767 510 q 696 761 767 686 m 367 10 q 289 42 321 10 q 257 119 257 75 q 289 197 257 165 q 367 229 321 229 q 444 197 413 229 q 476 119 476 165 q 444 42 476 75 q 367 10 413 10 m 550 429 q 501 369 524 401 q 465 279 478 338 l 249 279 q 301 438 265 375 q 383 549 336 501 l 382 549 q 424 600 406 574 q 442 663 442 626 q 368 735 442 735 q 296 711 332 735 q 229 628 260 688 q 194 658 215 640 q 149 694 172 675 q 102 729 125 713 q 63 757 79 746 q 197 897 117 849 q 361 946 278 946 q 483 928 428 946 q 578 874 539 910 q 638 785 617 839 q 660 660 660 731 q 650 582 660 615 q 625 522 640 549 q 590 472 610 494 q 550 429 571 450 m 361 929 q 211 886 285 929 q 85 763 138 843 q 119 738 100 751 q 156 709 138 724 q 193 680 175 694 q 225 654 211 665 q 294 728 257 706 q 368 751 332 751 q 458 663 458 751 q 439 594 458 622 q 394 538 419 565 q 319 437 351 494 q 269 296 288 379 l 451 296 q 490 381 467 347 q 538 440 513 414 q 576 483 557 461 q 610 529 596 504 q 634 586 625 554 q 643 660 643 618 q 567 862 643 794 q 361 929 490 929 m 207 728 q 170 743 186 728 q 154 781 154 758 q 170 819 154 804 q 207 835 186 835 q 246 819 231 835 q 261 781 261 804 q 246 743 261 758 q 207 728 231 728 m 603 722 q 588 685 603 700 q 549 669 572 669 q 512 685 528 669 q 496 722 496 700 q 512 761 496 746 q 549 776 528 776 q 588 761 572 776 q 603 722 603 746 m 322 793 q 285 808 301 793 q 269 846 269 824 q 285 885 269 869 q 322 900 301 900 q 361 885 346 900 q 376 846 376 869 q 361 808 376 824 q 322 793 346 793 m 414 824 q 430 863 414 847 q 467 878 446 878 q 506 863 490 878 q 521 824 521 847 q 506 786 521 801 q 467 771 490 771 q 430 786 446 771 q 414 824 414 801 m 390 319 q 353 335 369 319 q 338 372 338 350 q 353 411 338 396 q 390 426 369 426 q 429 411 414 426 q 444 372 444 396 q 429 335 444 350 q 390 319 414 319 m 460 438 q 423 453 439 438 q 407 490 407 468 q 423 529 407 514 q 460 544 439 544 q 497 529 483 544 q 514 490 511 514 q 500 453 517 469 q 460 438 483 438 m 538 536 q 501 551 517 536 q 485 589 485 567 q 501 628 485 613 q 538 643 517 643 q 576 628 561 643 q 592 589 592 613 q 576 551 592 567 q 538 536 561 536 m 367 213 q 301 185 328 213 q 274 119 274 158 q 301 54 274 82 q 367 26 328 26 q 433 54 406 26 q 460 119 460 82 q 433 185 460 158 q 367 213 406 213 m 369 69 q 333 85 349 69 q 317 122 317 100 q 333 161 317 146 q 369 176 349 176 q 408 161 393 176 q 424 122 424 146 q 408 85 424 100 q 369 69 393 69 "},"B":{"ha":1064,"x_min":101,"x_max":981,"o":"m 431 583 l 431 626 l 611 626 q 569 592 600 600 q 503 583 539 583 l 431 583 m 431 218 l 431 265 l 646 265 q 604 228 638 238 q 536 218 571 218 l 431 218 m 871 746 l 864 751 l 804 815 l 803 817 q 672 924 757 892 q 485 956 586 956 l 106 956 l 101 -12 l 110 -12 l 204 -114 l 631 -114 q 771 -101 707 -114 q 881 -54 835 -87 q 954 35 928 -21 q 981 178 981 92 q 963 265 981 228 q 918 329 944 301 q 913 335 915 332 q 907 340 910 338 l 876 372 q 926 447 911 406 q 940 546 940 489 q 922 661 940 613 q 871 746 904 710 m 833 651 q 817 551 833 594 q 761 475 800 507 q 801 441 781 460 q 837 399 821 422 q 863 347 853 376 q 874 283 874 318 q 848 145 874 200 q 777 58 822 90 q 669 13 732 25 q 532 0 607 0 l 114 0 l 118 943 l 485 943 q 619 928 556 943 q 730 878 682 913 q 806 788 778 843 q 833 651 833 732 m 629 656 q 618 694 629 678 q 589 721 607 711 q 549 735 571 731 q 504 740 526 740 l 324 740 l 324 571 l 503 571 q 550 574 528 571 q 590 587 572 578 q 619 613 608 596 q 629 656 629 629 m 324 206 l 536 206 q 579 209 557 206 q 619 221 601 213 q 649 244 638 229 q 660 279 660 258 q 629 360 660 340 q 539 379 599 379 l 324 379 l 324 206 m 817 651 q 798 555 817 599 q 735 475 779 511 q 778 439 756 458 q 817 396 800 419 q 846 344 835 372 q 857 283 857 317 q 833 153 857 204 q 765 71 808 101 q 663 28 722 40 q 532 17 603 17 l 131 17 l 135 926 l 485 926 q 612 912 551 926 q 718 865 672 897 q 790 780 764 832 q 817 651 817 728 m 646 656 q 633 703 646 683 q 601 734 621 722 q 555 751 581 746 q 504 757 529 757 l 307 757 l 307 554 l 503 554 q 556 558 531 554 q 602 574 582 563 q 634 604 622 585 q 646 656 646 624 m 307 189 l 536 189 q 586 193 561 189 q 631 208 611 197 q 664 235 651 218 q 676 279 676 253 q 642 373 676 350 q 539 396 607 396 l 307 396 l 307 189 m 276 103 q 261 142 276 126 q 222 157 246 157 q 185 142 201 157 q 169 103 169 126 q 185 65 169 81 q 222 50 201 50 q 261 65 246 50 q 276 103 276 81 m 281 242 q 265 281 281 265 q 226 296 250 296 q 190 281 206 296 q 174 242 174 265 q 190 204 174 219 q 226 189 206 189 q 265 204 250 189 q 281 242 281 219 m 281 383 q 265 422 281 407 q 226 438 250 438 q 190 422 206 438 q 174 383 174 407 q 190 346 174 361 q 226 331 206 331 q 265 346 250 331 q 281 383 281 361 m 285 533 q 269 572 285 557 q 231 588 254 588 q 194 572 210 588 q 178 533 178 557 q 194 496 178 511 q 231 481 210 481 q 269 496 254 481 q 285 533 285 511 m 285 679 q 269 718 285 703 q 231 733 254 733 q 194 718 210 733 q 178 679 178 703 q 194 642 178 657 q 231 626 210 626 q 269 642 254 626 q 285 679 285 657 m 281 838 q 265 876 281 861 q 226 892 250 892 q 190 876 206 892 q 174 838 174 861 q 190 800 174 815 q 226 785 206 785 q 265 800 250 785 q 281 838 281 815 m 422 838 q 407 876 422 861 q 368 892 392 892 q 331 876 347 892 q 315 838 315 861 q 331 800 315 815 q 368 785 347 785 q 407 800 392 785 q 422 838 422 815 m 564 838 q 549 876 564 861 q 510 892 533 892 q 473 876 489 892 q 457 838 457 861 q 473 800 457 815 q 510 785 489 785 q 549 800 533 785 q 564 838 564 815 m 706 799 q 690 838 706 822 q 651 853 675 853 q 615 838 631 853 q 599 799 599 822 q 615 761 599 776 q 651 746 631 746 q 690 761 675 746 q 706 799 706 776 m 789 683 q 774 722 789 707 q 735 738 758 738 q 698 722 714 738 q 682 683 682 707 q 698 646 682 661 q 735 631 714 631 q 774 646 758 631 q 789 683 789 661 m 756 553 q 740 592 756 576 q 701 607 725 607 q 665 592 681 607 q 649 553 649 576 q 665 515 649 531 q 701 500 681 500 q 740 515 725 500 q 756 553 756 531 m 569 472 q 554 511 569 496 q 515 526 539 526 q 478 511 494 526 q 463 472 463 496 q 478 435 463 450 q 515 419 494 419 q 554 435 539 419 q 569 472 569 450 m 426 469 q 411 508 426 493 q 372 524 396 524 q 335 508 351 524 q 319 469 319 493 q 335 432 319 447 q 372 417 351 417 q 411 432 396 417 q 426 469 426 447 m 429 100 q 414 139 429 124 q 375 154 399 154 q 338 139 354 154 q 322 100 322 124 q 338 63 322 78 q 375 47 354 47 q 414 63 399 47 q 429 100 429 78 m 563 100 q 547 139 563 124 q 508 154 532 154 q 472 139 488 154 q 456 100 456 124 q 472 63 456 78 q 508 47 488 47 q 547 63 532 47 q 563 100 563 78 m 704 125 q 689 164 704 149 q 650 179 674 179 q 613 164 629 179 q 597 125 597 149 q 613 88 597 103 q 650 72 629 72 q 689 88 674 72 q 704 125 704 103 m 804 213 q 789 251 804 236 q 750 267 774 267 q 713 251 729 267 q 697 213 697 236 q 713 175 697 190 q 750 160 729 160 q 789 175 774 160 q 804 213 804 190 m 808 346 q 793 385 808 369 q 754 400 778 400 q 717 385 733 400 q 701 346 701 369 q 717 308 701 324 q 754 293 733 293 q 793 308 778 293 q 808 346 808 324 m 710 440 q 694 479 710 464 q 656 494 679 494 q 619 479 635 494 q 603 440 603 464 q 619 403 603 418 q 656 388 635 388 q 694 403 679 388 q 710 440 710 418 "},"C":{"ha":1074,"x_min":53,"x_max":1006,"o":"m 231 94 l 275 47 q 280 42 278 44 q 285 38 282 40 q 442 -74 351 -33 q 636 -114 532 -114 q 824 -70 732 -114 q 1006 57 917 -26 l 910 160 l 913 163 l 743 325 q 635 249 689 276 q 538 222 582 222 q 403 260 461 222 q 382 367 382 307 q 402 465 382 419 q 457 546 422 511 q 538 600 492 581 q 638 619 585 619 q 736 593 683 619 q 842 518 789 567 l 1004 674 l 908 776 l 911 779 q 539 956 731 956 q 349 918 438 956 q 195 815 261 881 q 91 662 129 750 q 53 472 53 574 q 100 258 53 356 q 231 94 147 161 m 743 308 l 896 163 q 722 42 811 83 q 538 0 632 0 q 353 37 439 0 q 203 137 267 74 q 102 286 139 200 q 65 472 65 372 q 102 657 65 571 q 203 806 139 743 q 354 906 268 869 q 539 943 440 943 q 894 779 726 943 l 743 635 q 638 708 690 682 q 539 733 586 733 q 437 713 485 733 q 353 656 389 692 q 296 574 317 621 q 275 472 275 526 q 295 369 275 417 q 351 285 315 321 q 434 230 386 250 q 538 210 482 210 q 638 235 585 210 q 743 308 690 261 m 742 286 l 872 163 q 709 54 793 92 q 538 17 625 17 q 360 52 443 17 q 215 149 276 88 q 117 293 153 210 q 82 472 82 376 q 118 649 82 567 q 216 794 154 732 q 361 891 278 856 q 539 926 444 926 q 869 779 713 926 q 806 717 833 746 q 743 657 778 689 q 639 724 693 699 q 539 750 585 750 q 430 728 481 750 q 341 669 379 707 q 281 581 303 632 q 258 472 258 531 q 280 363 258 414 q 339 274 301 311 q 428 215 376 236 q 538 193 479 193 q 638 219 583 193 q 742 286 692 244 m 790 178 q 775 217 790 201 q 736 232 760 232 q 699 217 715 232 q 683 178 683 201 q 699 140 683 156 q 736 125 715 125 q 775 140 760 125 q 790 178 790 156 m 664 117 q 649 156 664 140 q 610 171 633 171 q 573 156 589 171 q 557 117 557 140 q 573 79 557 94 q 610 64 589 64 q 649 79 633 64 q 664 117 664 94 m 522 113 q 507 151 522 136 q 468 167 492 167 q 431 151 447 167 q 415 113 415 136 q 431 75 415 90 q 468 60 447 60 q 507 75 492 60 q 522 113 522 90 m 381 167 q 365 206 381 190 q 326 221 350 221 q 290 206 306 221 q 274 167 274 190 q 290 129 274 144 q 326 114 306 114 q 365 129 350 114 q 381 167 381 144 m 281 267 q 265 306 281 290 q 226 321 250 321 q 190 306 206 321 q 174 267 174 290 q 190 229 174 244 q 226 214 206 214 q 265 229 250 214 q 281 267 281 244 m 235 396 q 219 435 235 419 q 181 450 204 450 q 144 435 160 450 q 128 396 128 419 q 144 358 128 374 q 181 343 160 343 q 219 358 204 343 q 235 396 235 374 m 226 533 q 211 572 226 557 q 172 588 196 588 q 135 572 151 588 q 119 533 119 557 q 135 496 119 511 q 172 481 151 481 q 211 496 196 481 q 226 533 226 511 m 286 667 q 271 706 286 690 q 232 721 256 721 q 195 706 211 721 q 179 667 179 690 q 195 629 179 644 q 232 614 211 614 q 271 629 256 614 q 286 667 286 644 m 382 775 q 367 814 382 799 q 328 829 351 829 q 291 814 307 829 q 275 775 275 799 q 291 738 275 753 q 328 722 307 722 q 367 738 351 722 q 382 775 382 753 m 515 833 q 500 872 515 857 q 461 888 485 888 q 424 872 440 888 q 408 833 408 857 q 424 796 408 811 q 461 781 440 781 q 500 796 485 781 q 515 833 515 811 m 657 838 q 642 876 657 861 q 603 892 626 892 q 566 876 582 892 q 550 838 550 861 q 566 800 550 815 q 603 785 582 785 q 642 800 626 785 q 657 838 657 815 m 786 779 q 771 818 786 803 q 732 833 756 833 q 695 818 711 833 q 679 779 679 803 q 695 742 679 757 q 732 726 711 726 q 771 742 756 726 q 786 779 786 757 "}}}
